%TF.GenerationSoftware,KiCad,Pcbnew,(6.0.9)*%
%TF.CreationDate,2022-12-05T21:09:52-07:00*%
%TF.ProjectId,Rotisserie-Chicken,526f7469-7373-4657-9269-652d43686963,rev?*%
%TF.SameCoordinates,Original*%
%TF.FileFunction,Copper,L1,Top*%
%TF.FilePolarity,Positive*%
%FSLAX46Y46*%
G04 Gerber Fmt 4.6, Leading zero omitted, Abs format (unit mm)*
G04 Created by KiCad (PCBNEW (6.0.9)) date 2022-12-05 21:09:52*
%MOMM*%
%LPD*%
G01*
G04 APERTURE LIST*
%TA.AperFunction,ComponentPad*%
%ADD10R,1.371600X1.371600*%
%TD*%
%TA.AperFunction,ComponentPad*%
%ADD11C,1.371600*%
%TD*%
%TA.AperFunction,SMDPad,CuDef*%
%ADD12R,0.940000X1.020000*%
%TD*%
%TA.AperFunction,ComponentPad*%
%ADD13R,2.050000X2.050000*%
%TD*%
%TA.AperFunction,ComponentPad*%
%ADD14C,2.050000*%
%TD*%
%TA.AperFunction,ComponentPad*%
%ADD15R,1.650000X1.650000*%
%TD*%
%TA.AperFunction,ComponentPad*%
%ADD16C,1.650000*%
%TD*%
%TA.AperFunction,ViaPad*%
%ADD17C,0.800000*%
%TD*%
%TA.AperFunction,Conductor*%
%ADD18C,0.508000*%
%TD*%
G04 APERTURE END LIST*
D10*
%TO.P,D1,1,1*%
%TO.N,Net-(D1-Pad1)*%
X97871000Y-69596000D03*
D11*
%TO.P,D1,2,2*%
%TO.N,12V*%
X100411000Y-69596000D03*
%TD*%
D12*
%TO.P,R1,1*%
%TO.N,Earth*%
X100048000Y-75565000D03*
%TO.P,R1,2*%
%TO.N,Net-(D1-Pad1)*%
X101628000Y-75565000D03*
%TD*%
D13*
%TO.P,P2,1,1*%
%TO.N,Motor+*%
X115103500Y-76907500D03*
D14*
%TO.P,P2,2,2*%
%TO.N,Motor-*%
X111143500Y-76907500D03*
%TD*%
D15*
%TO.P,P1,1,5*%
%TO.N,12V*%
X114808000Y-93336500D03*
D16*
%TO.P,P1,2,6*%
%TO.N,Earth*%
X109728000Y-93336500D03*
%TO.P,P1,3,5*%
%TO.N,12V*%
X104648000Y-93336500D03*
%TO.P,P1,4,6*%
%TO.N,Earth*%
X99568000Y-93336500D03*
%TO.P,P1,5,5*%
%TO.N,Motor+*%
X94488000Y-93336500D03*
%TO.P,P1,6,6*%
%TO.N,Motor-*%
X89408000Y-93336500D03*
%TD*%
D17*
%TO.N,Earth*%
X97409000Y-75565000D03*
%TD*%
D18*
%TO.N,Earth*%
X100048000Y-75565000D02*
X97409000Y-75565000D01*
%TO.N,Net-(D1-Pad1)*%
X100838000Y-72898000D02*
X101600000Y-73660000D01*
X97871000Y-71709000D02*
X99060000Y-72898000D01*
X101600000Y-73660000D02*
X101600000Y-75438000D01*
X97871000Y-69596000D02*
X97871000Y-71709000D01*
X99060000Y-72898000D02*
X100838000Y-72898000D01*
%TO.N,12V*%
X118618000Y-91948000D02*
X117221000Y-93345000D01*
X117221000Y-93345000D02*
X114554000Y-93345000D01*
X113665000Y-69596000D02*
X118618000Y-74549000D01*
X100411000Y-69596000D02*
X113665000Y-69596000D01*
X118618000Y-74549000D02*
X118618000Y-91948000D01*
%TO.N,Motor+*%
X114427000Y-80899000D02*
X115062000Y-80264000D01*
X94488000Y-89789000D02*
X103378000Y-80899000D01*
X103378000Y-80899000D02*
X114427000Y-80899000D01*
X115062000Y-80264000D02*
X115062000Y-77216000D01*
X94488000Y-93336500D02*
X94488000Y-89789000D01*
%TO.N,Motor-*%
X101908500Y-76907500D02*
X89408000Y-89408000D01*
X111143500Y-76907500D02*
X101908500Y-76907500D01*
X89408000Y-89408000D02*
X89408000Y-93472000D01*
%TO.N,12V*%
X104648000Y-91440000D02*
X105918000Y-90170000D01*
X114935000Y-91186000D02*
X114935000Y-93345000D01*
X113919000Y-90170000D02*
X114935000Y-91186000D01*
X104648000Y-93336500D02*
X104648000Y-91440000D01*
X105918000Y-90170000D02*
X113919000Y-90170000D01*
%TD*%
%TA.AperFunction,Conductor*%
%TO.N,Earth*%
G36*
X126433621Y-64028502D02*
G01*
X126480114Y-64082158D01*
X126491500Y-64134500D01*
X126491500Y-101473500D01*
X126471498Y-101541621D01*
X126417842Y-101588114D01*
X126365500Y-101599500D01*
X77088500Y-101599500D01*
X77020379Y-101579498D01*
X76973886Y-101525842D01*
X76962500Y-101473500D01*
X76962500Y-97836485D01*
X78870854Y-97836485D01*
X78871156Y-97840320D01*
X78894652Y-98138861D01*
X78896370Y-98160695D01*
X78961206Y-98479378D01*
X79064398Y-98787784D01*
X79204405Y-99081316D01*
X79206467Y-99084553D01*
X79206470Y-99084558D01*
X79217325Y-99101597D01*
X79379141Y-99355597D01*
X79381584Y-99358560D01*
X79381585Y-99358562D01*
X79558973Y-99573750D01*
X79586001Y-99606538D01*
X79821902Y-99830399D01*
X80083326Y-100023843D01*
X80139223Y-100055468D01*
X80363019Y-100182086D01*
X80363023Y-100182088D01*
X80366376Y-100183985D01*
X80369937Y-100185460D01*
X80369939Y-100185461D01*
X80391761Y-100194500D01*
X80666832Y-100308438D01*
X80770288Y-100337129D01*
X80976500Y-100394317D01*
X80976508Y-100394319D01*
X80980216Y-100395347D01*
X81301856Y-100443416D01*
X81305154Y-100443560D01*
X81416918Y-100448440D01*
X81416922Y-100448440D01*
X81418294Y-100448500D01*
X81616598Y-100448500D01*
X81858605Y-100433698D01*
X81862388Y-100432997D01*
X81862395Y-100432996D01*
X82062459Y-100395916D01*
X82178372Y-100374433D01*
X82387682Y-100308438D01*
X82484860Y-100277798D01*
X82484863Y-100277797D01*
X82488532Y-100276640D01*
X82492029Y-100275046D01*
X82492035Y-100275044D01*
X82780954Y-100143376D01*
X82780958Y-100143374D01*
X82784462Y-100141777D01*
X82818147Y-100121135D01*
X83058473Y-99973863D01*
X83058476Y-99973861D01*
X83061751Y-99971854D01*
X83064755Y-99969464D01*
X83064760Y-99969461D01*
X83189008Y-99870629D01*
X83316264Y-99769405D01*
X83318958Y-99766664D01*
X83318962Y-99766660D01*
X83541513Y-99540190D01*
X83541517Y-99540185D01*
X83544208Y-99537447D01*
X83742185Y-99279439D01*
X83907242Y-98999227D01*
X84036920Y-98700988D01*
X84129285Y-98389169D01*
X84182961Y-98068417D01*
X84197146Y-97743515D01*
X84184473Y-97582485D01*
X120018854Y-97582485D01*
X120019156Y-97586320D01*
X120038542Y-97832638D01*
X120044370Y-97906695D01*
X120109206Y-98225378D01*
X120212398Y-98533784D01*
X120352405Y-98827316D01*
X120527141Y-99101597D01*
X120529584Y-99104560D01*
X120529585Y-99104562D01*
X120679308Y-99286190D01*
X120734001Y-99352538D01*
X120969902Y-99576399D01*
X121231326Y-99769843D01*
X121372851Y-99849914D01*
X121511019Y-99928086D01*
X121511023Y-99928088D01*
X121514376Y-99929985D01*
X121814832Y-100054438D01*
X121918288Y-100083129D01*
X122124500Y-100140317D01*
X122124508Y-100140319D01*
X122128216Y-100141347D01*
X122449856Y-100189416D01*
X122453154Y-100189560D01*
X122564918Y-100194440D01*
X122564922Y-100194440D01*
X122566294Y-100194500D01*
X122764598Y-100194500D01*
X123006605Y-100179698D01*
X123010388Y-100178997D01*
X123010395Y-100178996D01*
X123166489Y-100150065D01*
X123326372Y-100120433D01*
X123535682Y-100054438D01*
X123632860Y-100023798D01*
X123632863Y-100023797D01*
X123636532Y-100022640D01*
X123640029Y-100021046D01*
X123640035Y-100021044D01*
X123928954Y-99889376D01*
X123928958Y-99889374D01*
X123932462Y-99887777D01*
X124022361Y-99832687D01*
X124206473Y-99719863D01*
X124206476Y-99719861D01*
X124209751Y-99717854D01*
X124212755Y-99715464D01*
X124212760Y-99715461D01*
X124353419Y-99603575D01*
X124464264Y-99515405D01*
X124466958Y-99512664D01*
X124466962Y-99512660D01*
X124689513Y-99286190D01*
X124689517Y-99286185D01*
X124692208Y-99283447D01*
X124890185Y-99025439D01*
X125055242Y-98745227D01*
X125184920Y-98446988D01*
X125277285Y-98135169D01*
X125330961Y-97814417D01*
X125345146Y-97489515D01*
X125332388Y-97327410D01*
X125319932Y-97169140D01*
X125319932Y-97169137D01*
X125319630Y-97165305D01*
X125254794Y-96846622D01*
X125151602Y-96538216D01*
X125011595Y-96244684D01*
X125000742Y-96227647D01*
X124885377Y-96046561D01*
X124836859Y-95970403D01*
X124707386Y-95813340D01*
X124632442Y-95722425D01*
X124632438Y-95722420D01*
X124629999Y-95719462D01*
X124394098Y-95495601D01*
X124132674Y-95302157D01*
X123926807Y-95185683D01*
X123852981Y-95143914D01*
X123852977Y-95143912D01*
X123849624Y-95142015D01*
X123836513Y-95136584D01*
X123623139Y-95048202D01*
X123549168Y-95017562D01*
X123445712Y-94988871D01*
X123239500Y-94931683D01*
X123239492Y-94931681D01*
X123235784Y-94930653D01*
X122914144Y-94882584D01*
X122910846Y-94882440D01*
X122799082Y-94877560D01*
X122799078Y-94877560D01*
X122797706Y-94877500D01*
X122599402Y-94877500D01*
X122357395Y-94892302D01*
X122353612Y-94893003D01*
X122353605Y-94893004D01*
X122197511Y-94921935D01*
X122037628Y-94951567D01*
X121853058Y-95009762D01*
X121731140Y-95048202D01*
X121731137Y-95048203D01*
X121727468Y-95049360D01*
X121723971Y-95050954D01*
X121723965Y-95050956D01*
X121435046Y-95182624D01*
X121435042Y-95182626D01*
X121431538Y-95184223D01*
X121428259Y-95186233D01*
X121428256Y-95186234D01*
X121234520Y-95304956D01*
X121154249Y-95354146D01*
X121151245Y-95356536D01*
X121151240Y-95356539D01*
X121099225Y-95397914D01*
X120899736Y-95556595D01*
X120897042Y-95559336D01*
X120897038Y-95559340D01*
X120674487Y-95785810D01*
X120674483Y-95785815D01*
X120671792Y-95788553D01*
X120473815Y-96046561D01*
X120308758Y-96326773D01*
X120179080Y-96625012D01*
X120086715Y-96936831D01*
X120033039Y-97257583D01*
X120018854Y-97582485D01*
X84184473Y-97582485D01*
X84184170Y-97578638D01*
X84171932Y-97423140D01*
X84171932Y-97423137D01*
X84171630Y-97419305D01*
X84106794Y-97100622D01*
X84003602Y-96792216D01*
X83863595Y-96498684D01*
X83688859Y-96224403D01*
X83686415Y-96221438D01*
X83484442Y-95976425D01*
X83484438Y-95976420D01*
X83481999Y-95973462D01*
X83246098Y-95749601D01*
X82984674Y-95556157D01*
X82779781Y-95440234D01*
X82704981Y-95397914D01*
X82704977Y-95397912D01*
X82701624Y-95396015D01*
X82401168Y-95271562D01*
X82297712Y-95242871D01*
X82091500Y-95185683D01*
X82091492Y-95185681D01*
X82087784Y-95184653D01*
X81766144Y-95136584D01*
X81762846Y-95136440D01*
X81651082Y-95131560D01*
X81651078Y-95131560D01*
X81649706Y-95131500D01*
X81451402Y-95131500D01*
X81209395Y-95146302D01*
X81205612Y-95147003D01*
X81205605Y-95147004D01*
X81049511Y-95175935D01*
X80889628Y-95205567D01*
X80705058Y-95263762D01*
X80583140Y-95302202D01*
X80583137Y-95302203D01*
X80579468Y-95303360D01*
X80575971Y-95304954D01*
X80575965Y-95304956D01*
X80287046Y-95436624D01*
X80287042Y-95436626D01*
X80283538Y-95438223D01*
X80280259Y-95440233D01*
X80280256Y-95440234D01*
X80090373Y-95556595D01*
X80006249Y-95608146D01*
X80003245Y-95610536D01*
X80003240Y-95610539D01*
X79878993Y-95709370D01*
X79751736Y-95810595D01*
X79749042Y-95813336D01*
X79749038Y-95813340D01*
X79526487Y-96039810D01*
X79526483Y-96039815D01*
X79523792Y-96042553D01*
X79325815Y-96300561D01*
X79160758Y-96580773D01*
X79031080Y-96879012D01*
X78938715Y-97190831D01*
X78885039Y-97511583D01*
X78870854Y-97836485D01*
X76962500Y-97836485D01*
X76962500Y-93336500D01*
X88069406Y-93336500D01*
X88089742Y-93568944D01*
X88150133Y-93794326D01*
X88152455Y-93799306D01*
X88152456Y-93799308D01*
X88246418Y-94000810D01*
X88246421Y-94000815D01*
X88248744Y-94005797D01*
X88251900Y-94010304D01*
X88251901Y-94010306D01*
X88352748Y-94154330D01*
X88382578Y-94196932D01*
X88547568Y-94361922D01*
X88552076Y-94365079D01*
X88552079Y-94365081D01*
X88734194Y-94492599D01*
X88738703Y-94495756D01*
X88743685Y-94498079D01*
X88743690Y-94498082D01*
X88944180Y-94591572D01*
X88950174Y-94594367D01*
X88955482Y-94595789D01*
X88955484Y-94595790D01*
X89170241Y-94653334D01*
X89170243Y-94653334D01*
X89175556Y-94654758D01*
X89408000Y-94675094D01*
X89640444Y-94654758D01*
X89645757Y-94653334D01*
X89645759Y-94653334D01*
X89860516Y-94595790D01*
X89860518Y-94595789D01*
X89865826Y-94594367D01*
X89871820Y-94591572D01*
X90072310Y-94498082D01*
X90072315Y-94498079D01*
X90077297Y-94495756D01*
X90081806Y-94492599D01*
X90263921Y-94365081D01*
X90263924Y-94365079D01*
X90268432Y-94361922D01*
X90433422Y-94196932D01*
X90463253Y-94154330D01*
X90564099Y-94010306D01*
X90564100Y-94010304D01*
X90567256Y-94005797D01*
X90569579Y-94000815D01*
X90569582Y-94000810D01*
X90663544Y-93799308D01*
X90663545Y-93799306D01*
X90665867Y-93794326D01*
X90726258Y-93568944D01*
X90746594Y-93336500D01*
X93149406Y-93336500D01*
X93169742Y-93568944D01*
X93230133Y-93794326D01*
X93232455Y-93799306D01*
X93232456Y-93799308D01*
X93326418Y-94000810D01*
X93326421Y-94000815D01*
X93328744Y-94005797D01*
X93331900Y-94010304D01*
X93331901Y-94010306D01*
X93432748Y-94154330D01*
X93462578Y-94196932D01*
X93627568Y-94361922D01*
X93632076Y-94365079D01*
X93632079Y-94365081D01*
X93814194Y-94492599D01*
X93818703Y-94495756D01*
X93823685Y-94498079D01*
X93823690Y-94498082D01*
X94024180Y-94591572D01*
X94030174Y-94594367D01*
X94035482Y-94595789D01*
X94035484Y-94595790D01*
X94250241Y-94653334D01*
X94250243Y-94653334D01*
X94255556Y-94654758D01*
X94488000Y-94675094D01*
X94720444Y-94654758D01*
X94725757Y-94653334D01*
X94725759Y-94653334D01*
X94940516Y-94595790D01*
X94940518Y-94595789D01*
X94945826Y-94594367D01*
X94951820Y-94591572D01*
X95152310Y-94498082D01*
X95152315Y-94498079D01*
X95157297Y-94495756D01*
X95161806Y-94492599D01*
X95236193Y-94440513D01*
X98828542Y-94440513D01*
X98837838Y-94452528D01*
X98894446Y-94492165D01*
X98903941Y-94497648D01*
X99105364Y-94591572D01*
X99115656Y-94595318D01*
X99330328Y-94652839D01*
X99341123Y-94654742D01*
X99562525Y-94674113D01*
X99573475Y-94674113D01*
X99794877Y-94654742D01*
X99805672Y-94652839D01*
X100020344Y-94595318D01*
X100030636Y-94591572D01*
X100232059Y-94497648D01*
X100241554Y-94492165D01*
X100299000Y-94451941D01*
X100307375Y-94441464D01*
X100300307Y-94428017D01*
X99580812Y-93708522D01*
X99566868Y-93700908D01*
X99565035Y-93701039D01*
X99558420Y-93705290D01*
X98834972Y-94428738D01*
X98828542Y-94440513D01*
X95236193Y-94440513D01*
X95343921Y-94365081D01*
X95343924Y-94365079D01*
X95348432Y-94361922D01*
X95513422Y-94196932D01*
X95543253Y-94154330D01*
X95644099Y-94010306D01*
X95644100Y-94010304D01*
X95647256Y-94005797D01*
X95649579Y-94000815D01*
X95649582Y-94000810D01*
X95743544Y-93799308D01*
X95743545Y-93799306D01*
X95745867Y-93794326D01*
X95806258Y-93568944D01*
X95826115Y-93341975D01*
X98230387Y-93341975D01*
X98249758Y-93563377D01*
X98251661Y-93574172D01*
X98309182Y-93788844D01*
X98312928Y-93799136D01*
X98406852Y-94000559D01*
X98412335Y-94010054D01*
X98452559Y-94067500D01*
X98463036Y-94075875D01*
X98476483Y-94068807D01*
X99195978Y-93349312D01*
X99202356Y-93337632D01*
X99932408Y-93337632D01*
X99932539Y-93339465D01*
X99936790Y-93346080D01*
X100660238Y-94069528D01*
X100672013Y-94075958D01*
X100684028Y-94066662D01*
X100723665Y-94010054D01*
X100729148Y-94000559D01*
X100823072Y-93799136D01*
X100826818Y-93788844D01*
X100884339Y-93574172D01*
X100886242Y-93563377D01*
X100905613Y-93341975D01*
X100905613Y-93331025D01*
X100886242Y-93109623D01*
X100884339Y-93098828D01*
X100826818Y-92884156D01*
X100823072Y-92873864D01*
X100729148Y-92672441D01*
X100723665Y-92662946D01*
X100683441Y-92605500D01*
X100672964Y-92597125D01*
X100659517Y-92604193D01*
X99940022Y-93323688D01*
X99932408Y-93337632D01*
X99202356Y-93337632D01*
X99203592Y-93335368D01*
X99203461Y-93333535D01*
X99199210Y-93326920D01*
X98475762Y-92603472D01*
X98463987Y-92597042D01*
X98451972Y-92606338D01*
X98412335Y-92662946D01*
X98406852Y-92672441D01*
X98312928Y-92873864D01*
X98309182Y-92884156D01*
X98251661Y-93098828D01*
X98249758Y-93109623D01*
X98230387Y-93331025D01*
X98230387Y-93341975D01*
X95826115Y-93341975D01*
X95826594Y-93336500D01*
X95806258Y-93104056D01*
X95745867Y-92878674D01*
X95649699Y-92672441D01*
X95649582Y-92672190D01*
X95649579Y-92672185D01*
X95647256Y-92667203D01*
X95598129Y-92597042D01*
X95516581Y-92480579D01*
X95516579Y-92480576D01*
X95513422Y-92476068D01*
X95348432Y-92311078D01*
X95343922Y-92307920D01*
X95343916Y-92307915D01*
X95304230Y-92280127D01*
X95265389Y-92231536D01*
X98828625Y-92231536D01*
X98835693Y-92244983D01*
X99555188Y-92964478D01*
X99569132Y-92972092D01*
X99570965Y-92971961D01*
X99577580Y-92967710D01*
X100301028Y-92244262D01*
X100307458Y-92232487D01*
X100298162Y-92220472D01*
X100241554Y-92180835D01*
X100232059Y-92175352D01*
X100030636Y-92081428D01*
X100020344Y-92077682D01*
X99805672Y-92020161D01*
X99794877Y-92018258D01*
X99573475Y-91998887D01*
X99562525Y-91998887D01*
X99341123Y-92018258D01*
X99330328Y-92020161D01*
X99115656Y-92077682D01*
X99105364Y-92081428D01*
X98903941Y-92175352D01*
X98894446Y-92180835D01*
X98837000Y-92221059D01*
X98828625Y-92231536D01*
X95265389Y-92231536D01*
X95259901Y-92224670D01*
X95250500Y-92176914D01*
X95250500Y-90157028D01*
X95270502Y-90088907D01*
X95287405Y-90067933D01*
X103656933Y-81698405D01*
X103719245Y-81664379D01*
X103746028Y-81661500D01*
X114359624Y-81661500D01*
X114378574Y-81662933D01*
X114392973Y-81665124D01*
X114392979Y-81665124D01*
X114400208Y-81666224D01*
X114407500Y-81665631D01*
X114407503Y-81665631D01*
X114453183Y-81661915D01*
X114463398Y-81661500D01*
X114471525Y-81661500D01*
X114475161Y-81661076D01*
X114475163Y-81661076D01*
X114478615Y-81660673D01*
X114499924Y-81658189D01*
X114504244Y-81657762D01*
X114577426Y-81651809D01*
X114584388Y-81649553D01*
X114590376Y-81648357D01*
X114596333Y-81646949D01*
X114603607Y-81646101D01*
X114610489Y-81643603D01*
X114610493Y-81643602D01*
X114672607Y-81621055D01*
X114676711Y-81619645D01*
X114746575Y-81597013D01*
X114752838Y-81593213D01*
X114758380Y-81590675D01*
X114763856Y-81587933D01*
X114770741Y-81585434D01*
X114832132Y-81545185D01*
X114835800Y-81542870D01*
X114898581Y-81504773D01*
X114902786Y-81501059D01*
X114902789Y-81501057D01*
X114907005Y-81497333D01*
X114907031Y-81497362D01*
X114909962Y-81494762D01*
X114913316Y-81491958D01*
X114919435Y-81487946D01*
X114972989Y-81431413D01*
X114975366Y-81428972D01*
X115553528Y-80850810D01*
X115567941Y-80838423D01*
X115579665Y-80829795D01*
X115585564Y-80825454D01*
X115619979Y-80784945D01*
X115626909Y-80777429D01*
X115632653Y-80771685D01*
X115634927Y-80768811D01*
X115634933Y-80768804D01*
X115650372Y-80749289D01*
X115653163Y-80745885D01*
X115695945Y-80695528D01*
X115695948Y-80695524D01*
X115700684Y-80689949D01*
X115704012Y-80683432D01*
X115707389Y-80678368D01*
X115710616Y-80673144D01*
X115715160Y-80667400D01*
X115746242Y-80600896D01*
X115748147Y-80596999D01*
X115781543Y-80531596D01*
X115783284Y-80524482D01*
X115785416Y-80518748D01*
X115787344Y-80512952D01*
X115790444Y-80506320D01*
X115805395Y-80434440D01*
X115806365Y-80430156D01*
X115823804Y-80358888D01*
X115824500Y-80347670D01*
X115824537Y-80347672D01*
X115824773Y-80343773D01*
X115825163Y-80339402D01*
X115826652Y-80332243D01*
X115824546Y-80254423D01*
X115824500Y-80251014D01*
X115824500Y-78567000D01*
X115844502Y-78498879D01*
X115898158Y-78452386D01*
X115950500Y-78441000D01*
X116176634Y-78441000D01*
X116238816Y-78434245D01*
X116375205Y-78383115D01*
X116491761Y-78295761D01*
X116579115Y-78179205D01*
X116630245Y-78042816D01*
X116637000Y-77980634D01*
X116637000Y-75834366D01*
X116630245Y-75772184D01*
X116579115Y-75635795D01*
X116491761Y-75519239D01*
X116375205Y-75431885D01*
X116238816Y-75380755D01*
X116176634Y-75374000D01*
X114030366Y-75374000D01*
X113968184Y-75380755D01*
X113831795Y-75431885D01*
X113715239Y-75519239D01*
X113627885Y-75635795D01*
X113576755Y-75772184D01*
X113570000Y-75834366D01*
X113570000Y-77980634D01*
X113576755Y-78042816D01*
X113627885Y-78179205D01*
X113715239Y-78295761D01*
X113831795Y-78383115D01*
X113968184Y-78434245D01*
X114030366Y-78441000D01*
X114173500Y-78441000D01*
X114241621Y-78461002D01*
X114288114Y-78514658D01*
X114299500Y-78567000D01*
X114299500Y-79895972D01*
X114279498Y-79964093D01*
X114262595Y-79985067D01*
X114148067Y-80099595D01*
X114085755Y-80133621D01*
X114058972Y-80136500D01*
X103445376Y-80136500D01*
X103426426Y-80135067D01*
X103412027Y-80132876D01*
X103412023Y-80132876D01*
X103404793Y-80131776D01*
X103397501Y-80132369D01*
X103397498Y-80132369D01*
X103351814Y-80136085D01*
X103341600Y-80136500D01*
X103333475Y-80136500D01*
X103329840Y-80136924D01*
X103329837Y-80136924D01*
X103311911Y-80139014D01*
X103305110Y-80139807D01*
X103300739Y-80140240D01*
X103227574Y-80146190D01*
X103220617Y-80148444D01*
X103214663Y-80149633D01*
X103208665Y-80151051D01*
X103201393Y-80151899D01*
X103132383Y-80176948D01*
X103128270Y-80178360D01*
X103093816Y-80189522D01*
X103065386Y-80198732D01*
X103065384Y-80198733D01*
X103058426Y-80200987D01*
X103052170Y-80204783D01*
X103046601Y-80207333D01*
X103041137Y-80210070D01*
X103034259Y-80212566D01*
X102972838Y-80252836D01*
X102969175Y-80255146D01*
X102906419Y-80293227D01*
X102897995Y-80300667D01*
X102897969Y-80300638D01*
X102895038Y-80303238D01*
X102891684Y-80306042D01*
X102885565Y-80310054D01*
X102880533Y-80315366D01*
X102832012Y-80366586D01*
X102829634Y-80369028D01*
X93996472Y-89202190D01*
X93982059Y-89214577D01*
X93964436Y-89227546D01*
X93959692Y-89233129D01*
X93959693Y-89233129D01*
X93930021Y-89268055D01*
X93923091Y-89275571D01*
X93917347Y-89281315D01*
X93915073Y-89284189D01*
X93915067Y-89284196D01*
X93899628Y-89303711D01*
X93896837Y-89307115D01*
X93854055Y-89357472D01*
X93854052Y-89357476D01*
X93849316Y-89363051D01*
X93845988Y-89369568D01*
X93842611Y-89374632D01*
X93839384Y-89379856D01*
X93834840Y-89385600D01*
X93831741Y-89392231D01*
X93803768Y-89452082D01*
X93801837Y-89456033D01*
X93768457Y-89521404D01*
X93766716Y-89528519D01*
X93764579Y-89534265D01*
X93762655Y-89540048D01*
X93759556Y-89546679D01*
X93746654Y-89608712D01*
X93744608Y-89618547D01*
X93743639Y-89622829D01*
X93726196Y-89694112D01*
X93725500Y-89705330D01*
X93725461Y-89705328D01*
X93725228Y-89709229D01*
X93724839Y-89713588D01*
X93723348Y-89720756D01*
X93723546Y-89728073D01*
X93725454Y-89798577D01*
X93725500Y-89801986D01*
X93725500Y-92176914D01*
X93705498Y-92245035D01*
X93671770Y-92280127D01*
X93632084Y-92307915D01*
X93632078Y-92307920D01*
X93627568Y-92311078D01*
X93462578Y-92476068D01*
X93459421Y-92480576D01*
X93459419Y-92480579D01*
X93377871Y-92597042D01*
X93328744Y-92667203D01*
X93326421Y-92672185D01*
X93326418Y-92672190D01*
X93326301Y-92672441D01*
X93230133Y-92878674D01*
X93169742Y-93104056D01*
X93149406Y-93336500D01*
X90746594Y-93336500D01*
X90726258Y-93104056D01*
X90665867Y-92878674D01*
X90569699Y-92672441D01*
X90569582Y-92672190D01*
X90569579Y-92672185D01*
X90567256Y-92667203D01*
X90518129Y-92597042D01*
X90436581Y-92480579D01*
X90436579Y-92480576D01*
X90433422Y-92476068D01*
X90268432Y-92311078D01*
X90263922Y-92307920D01*
X90263916Y-92307915D01*
X90224230Y-92280127D01*
X90179901Y-92224670D01*
X90170500Y-92176914D01*
X90170500Y-89776028D01*
X90190502Y-89707907D01*
X90207405Y-89686933D01*
X102187433Y-77706905D01*
X102249745Y-77672879D01*
X102276528Y-77670000D01*
X109741665Y-77670000D01*
X109809786Y-77690002D01*
X109849098Y-77730165D01*
X109896453Y-77807442D01*
X109896457Y-77807448D01*
X109899036Y-77811656D01*
X110055799Y-77995201D01*
X110239344Y-78151964D01*
X110445153Y-78278084D01*
X110449723Y-78279977D01*
X110449727Y-78279979D01*
X110663584Y-78368561D01*
X110668157Y-78370455D01*
X110750539Y-78390233D01*
X110898053Y-78425649D01*
X110898059Y-78425650D01*
X110902866Y-78426804D01*
X111143500Y-78445742D01*
X111384134Y-78426804D01*
X111388941Y-78425650D01*
X111388947Y-78425649D01*
X111536461Y-78390233D01*
X111618843Y-78370455D01*
X111623416Y-78368561D01*
X111837273Y-78279979D01*
X111837277Y-78279977D01*
X111841847Y-78278084D01*
X112047656Y-78151964D01*
X112231201Y-77995201D01*
X112387964Y-77811656D01*
X112514084Y-77605847D01*
X112606455Y-77382843D01*
X112626233Y-77300461D01*
X112661649Y-77152947D01*
X112661650Y-77152941D01*
X112662804Y-77148134D01*
X112681742Y-76907500D01*
X112662804Y-76666866D01*
X112661650Y-76662059D01*
X112661649Y-76662053D01*
X112623153Y-76501707D01*
X112606455Y-76432157D01*
X112563581Y-76328649D01*
X112515979Y-76213727D01*
X112515977Y-76213723D01*
X112514084Y-76209153D01*
X112387964Y-76003344D01*
X112231201Y-75819799D01*
X112047656Y-75663036D01*
X111841847Y-75536916D01*
X111837277Y-75535023D01*
X111837273Y-75535021D01*
X111623416Y-75446439D01*
X111623414Y-75446438D01*
X111618843Y-75444545D01*
X111536461Y-75424767D01*
X111388947Y-75389351D01*
X111388941Y-75389350D01*
X111384134Y-75388196D01*
X111143500Y-75369258D01*
X110902866Y-75388196D01*
X110898059Y-75389350D01*
X110898053Y-75389351D01*
X110750539Y-75424767D01*
X110668157Y-75444545D01*
X110663586Y-75446438D01*
X110663584Y-75446439D01*
X110449727Y-75535021D01*
X110449723Y-75535023D01*
X110445153Y-75536916D01*
X110239344Y-75663036D01*
X110055799Y-75819799D01*
X109899036Y-76003344D01*
X109896457Y-76007552D01*
X109896453Y-76007558D01*
X109849098Y-76084835D01*
X109796450Y-76132466D01*
X109741665Y-76145000D01*
X102732500Y-76145000D01*
X102664379Y-76124998D01*
X102617886Y-76071342D01*
X102606500Y-76019000D01*
X102606500Y-75006866D01*
X102599745Y-74944684D01*
X102548615Y-74808295D01*
X102461261Y-74691739D01*
X102412933Y-74655519D01*
X102370420Y-74598662D01*
X102362500Y-74554695D01*
X102362500Y-73727376D01*
X102363933Y-73708426D01*
X102366124Y-73694027D01*
X102366124Y-73694021D01*
X102367224Y-73686792D01*
X102365261Y-73662652D01*
X102362915Y-73633817D01*
X102362500Y-73623602D01*
X102362500Y-73615475D01*
X102359189Y-73587076D01*
X102358760Y-73582736D01*
X102358720Y-73582235D01*
X102352809Y-73509574D01*
X102350553Y-73502612D01*
X102349357Y-73496624D01*
X102347949Y-73490667D01*
X102347101Y-73483393D01*
X102344603Y-73476511D01*
X102344602Y-73476507D01*
X102322055Y-73414393D01*
X102320645Y-73410289D01*
X102298013Y-73340425D01*
X102294213Y-73334162D01*
X102291675Y-73328620D01*
X102288933Y-73323144D01*
X102286434Y-73316259D01*
X102246185Y-73254868D01*
X102243870Y-73251200D01*
X102205773Y-73188419D01*
X102198333Y-73179995D01*
X102198362Y-73179969D01*
X102195762Y-73177038D01*
X102192958Y-73173684D01*
X102188946Y-73167565D01*
X102132413Y-73114011D01*
X102129972Y-73111634D01*
X101424810Y-72406472D01*
X101412423Y-72392059D01*
X101403795Y-72380335D01*
X101399454Y-72374436D01*
X101358945Y-72340021D01*
X101351429Y-72333091D01*
X101345685Y-72327347D01*
X101342811Y-72325073D01*
X101342804Y-72325067D01*
X101323289Y-72309628D01*
X101319885Y-72306837D01*
X101269528Y-72264055D01*
X101269524Y-72264052D01*
X101263949Y-72259316D01*
X101257432Y-72255988D01*
X101252368Y-72252611D01*
X101247144Y-72249384D01*
X101241400Y-72244840D01*
X101215109Y-72232552D01*
X101174918Y-72213768D01*
X101170967Y-72211837D01*
X101112117Y-72181787D01*
X101105596Y-72178457D01*
X101098481Y-72176716D01*
X101092735Y-72174579D01*
X101086952Y-72172655D01*
X101080321Y-72169556D01*
X101008443Y-72154606D01*
X101004171Y-72153639D01*
X100932888Y-72136196D01*
X100927289Y-72135849D01*
X100927285Y-72135848D01*
X100921670Y-72135500D01*
X100921672Y-72135461D01*
X100917771Y-72135228D01*
X100913412Y-72134839D01*
X100906244Y-72133348D01*
X100898927Y-72133546D01*
X100828423Y-72135454D01*
X100825014Y-72135500D01*
X99428028Y-72135500D01*
X99359907Y-72115498D01*
X99338933Y-72098595D01*
X98670405Y-71430067D01*
X98636379Y-71367755D01*
X98633500Y-71340972D01*
X98633500Y-70883475D01*
X98653502Y-70815354D01*
X98707158Y-70768861D01*
X98715270Y-70765493D01*
X98795097Y-70735567D01*
X98803505Y-70732415D01*
X98920061Y-70645061D01*
X99007415Y-70528505D01*
X99058545Y-70392116D01*
X99065300Y-70329934D01*
X99065300Y-70104102D01*
X99085302Y-70035981D01*
X99138958Y-69989488D01*
X99209232Y-69979384D01*
X99273812Y-70008878D01*
X99305726Y-70051351D01*
X99372275Y-70195708D01*
X99375606Y-70200421D01*
X99375607Y-70200423D01*
X99491458Y-70364347D01*
X99498957Y-70374958D01*
X99528698Y-70403930D01*
X99603073Y-70476383D01*
X99656183Y-70528121D01*
X99660979Y-70531326D01*
X99660982Y-70531328D01*
X99667512Y-70535691D01*
X99838688Y-70650067D01*
X99843991Y-70652345D01*
X99843994Y-70652347D01*
X99935640Y-70691721D01*
X100040360Y-70736712D01*
X100254445Y-70785155D01*
X100260216Y-70785382D01*
X100260218Y-70785382D01*
X100333634Y-70788266D01*
X100473773Y-70793772D01*
X100565442Y-70780481D01*
X100685284Y-70763105D01*
X100685289Y-70763104D01*
X100690998Y-70762276D01*
X100696462Y-70760421D01*
X100696467Y-70760420D01*
X100893378Y-70693577D01*
X100898846Y-70691721D01*
X101090357Y-70584470D01*
X101259115Y-70444115D01*
X101292537Y-70403929D01*
X101351474Y-70364347D01*
X101389410Y-70358500D01*
X113296972Y-70358500D01*
X113365093Y-70378502D01*
X113386067Y-70395405D01*
X117818595Y-74827933D01*
X117852621Y-74890245D01*
X117855500Y-74917028D01*
X117855500Y-91579972D01*
X117835498Y-91648093D01*
X117818595Y-91669067D01*
X116942067Y-92545595D01*
X116879755Y-92579621D01*
X116852972Y-92582500D01*
X116267128Y-92582500D01*
X116199007Y-92562498D01*
X116152514Y-92508842D01*
X116141500Y-92464075D01*
X116141500Y-92463366D01*
X116134745Y-92401184D01*
X116083615Y-92264795D01*
X115996261Y-92148239D01*
X115879705Y-92060885D01*
X115871296Y-92057733D01*
X115871295Y-92057732D01*
X115779271Y-92023234D01*
X115722506Y-91980593D01*
X115697806Y-91914031D01*
X115697500Y-91905252D01*
X115697500Y-91253376D01*
X115698933Y-91234426D01*
X115701124Y-91220027D01*
X115701124Y-91220021D01*
X115702224Y-91212792D01*
X115701578Y-91204843D01*
X115697915Y-91159817D01*
X115697500Y-91149602D01*
X115697500Y-91141475D01*
X115694189Y-91113076D01*
X115693760Y-91108736D01*
X115693622Y-91107033D01*
X115687809Y-91035574D01*
X115685553Y-91028612D01*
X115684357Y-91022624D01*
X115682949Y-91016667D01*
X115682101Y-91009393D01*
X115679603Y-91002511D01*
X115679602Y-91002507D01*
X115657055Y-90940393D01*
X115655645Y-90936289D01*
X115633013Y-90866425D01*
X115629213Y-90860162D01*
X115626675Y-90854620D01*
X115623933Y-90849144D01*
X115621434Y-90842259D01*
X115581185Y-90780868D01*
X115578870Y-90777200D01*
X115540773Y-90714419D01*
X115533333Y-90705995D01*
X115533362Y-90705969D01*
X115530762Y-90703038D01*
X115527958Y-90699684D01*
X115523946Y-90693565D01*
X115467413Y-90640011D01*
X115464972Y-90637634D01*
X114505810Y-89678472D01*
X114493423Y-89664059D01*
X114484795Y-89652335D01*
X114480454Y-89646436D01*
X114439945Y-89612021D01*
X114432429Y-89605091D01*
X114426685Y-89599347D01*
X114423811Y-89597073D01*
X114423804Y-89597067D01*
X114404289Y-89581628D01*
X114400885Y-89578837D01*
X114350528Y-89536055D01*
X114350524Y-89536052D01*
X114344949Y-89531316D01*
X114338432Y-89527988D01*
X114333368Y-89524611D01*
X114328144Y-89521384D01*
X114322400Y-89516840D01*
X114259797Y-89487581D01*
X114255918Y-89485768D01*
X114251967Y-89483837D01*
X114193117Y-89453787D01*
X114186596Y-89450457D01*
X114179481Y-89448716D01*
X114173735Y-89446579D01*
X114167952Y-89444655D01*
X114161321Y-89441556D01*
X114089443Y-89426606D01*
X114085171Y-89425639D01*
X114013888Y-89408196D01*
X114008289Y-89407849D01*
X114008285Y-89407848D01*
X114002670Y-89407500D01*
X114002672Y-89407461D01*
X113998771Y-89407228D01*
X113994412Y-89406839D01*
X113987244Y-89405348D01*
X113979927Y-89405546D01*
X113909423Y-89407454D01*
X113906014Y-89407500D01*
X105985368Y-89407500D01*
X105966420Y-89406067D01*
X105959033Y-89404943D01*
X105952024Y-89403877D01*
X105952022Y-89403877D01*
X105944792Y-89402777D01*
X105937500Y-89403370D01*
X105937497Y-89403370D01*
X105891825Y-89407085D01*
X105881611Y-89407500D01*
X105873475Y-89407500D01*
X105869840Y-89407924D01*
X105869837Y-89407924D01*
X105856065Y-89409530D01*
X105845084Y-89410810D01*
X105840713Y-89411243D01*
X105829701Y-89412138D01*
X105774872Y-89416597D01*
X105774869Y-89416598D01*
X105767573Y-89417191D01*
X105760609Y-89419447D01*
X105754614Y-89420645D01*
X105748664Y-89422051D01*
X105741393Y-89422899D01*
X105672398Y-89447943D01*
X105668252Y-89449366D01*
X105605388Y-89469731D01*
X105605386Y-89469732D01*
X105598425Y-89471987D01*
X105592170Y-89475783D01*
X105586633Y-89478318D01*
X105581142Y-89481068D01*
X105574259Y-89483566D01*
X105568135Y-89487581D01*
X105512868Y-89523815D01*
X105509200Y-89526130D01*
X105446419Y-89564227D01*
X105442212Y-89567943D01*
X105442208Y-89567946D01*
X105437995Y-89571668D01*
X105437969Y-89571638D01*
X105435041Y-89574236D01*
X105431687Y-89577040D01*
X105425565Y-89581054D01*
X105420532Y-89586367D01*
X105371995Y-89637604D01*
X105369617Y-89640046D01*
X104156472Y-90853190D01*
X104142059Y-90865577D01*
X104124436Y-90878546D01*
X104119692Y-90884129D01*
X104119693Y-90884129D01*
X104090021Y-90919055D01*
X104083091Y-90926571D01*
X104077347Y-90932315D01*
X104075073Y-90935189D01*
X104075067Y-90935196D01*
X104059628Y-90954711D01*
X104056837Y-90958115D01*
X104014055Y-91008472D01*
X104014052Y-91008476D01*
X104009316Y-91014051D01*
X104005988Y-91020568D01*
X104002611Y-91025632D01*
X103999384Y-91030856D01*
X103994840Y-91036600D01*
X103991741Y-91043231D01*
X103963768Y-91103082D01*
X103961837Y-91107033D01*
X103946108Y-91137837D01*
X103928457Y-91172404D01*
X103926716Y-91179519D01*
X103924579Y-91185265D01*
X103922655Y-91191048D01*
X103919556Y-91197679D01*
X103918066Y-91204843D01*
X103904608Y-91269547D01*
X103903639Y-91273829D01*
X103886196Y-91345112D01*
X103885500Y-91356330D01*
X103885461Y-91356328D01*
X103885228Y-91360229D01*
X103884839Y-91364588D01*
X103883348Y-91371756D01*
X103883546Y-91379073D01*
X103885454Y-91449577D01*
X103885500Y-91452986D01*
X103885500Y-92176914D01*
X103865498Y-92245035D01*
X103831770Y-92280127D01*
X103792084Y-92307915D01*
X103792078Y-92307920D01*
X103787568Y-92311078D01*
X103622578Y-92476068D01*
X103619421Y-92480576D01*
X103619419Y-92480579D01*
X103537871Y-92597042D01*
X103488744Y-92667203D01*
X103486421Y-92672185D01*
X103486418Y-92672190D01*
X103486301Y-92672441D01*
X103390133Y-92878674D01*
X103329742Y-93104056D01*
X103309406Y-93336500D01*
X103329742Y-93568944D01*
X103390133Y-93794326D01*
X103392455Y-93799306D01*
X103392456Y-93799308D01*
X103486418Y-94000810D01*
X103486421Y-94000815D01*
X103488744Y-94005797D01*
X103491900Y-94010304D01*
X103491901Y-94010306D01*
X103592748Y-94154330D01*
X103622578Y-94196932D01*
X103787568Y-94361922D01*
X103792076Y-94365079D01*
X103792079Y-94365081D01*
X103974194Y-94492599D01*
X103978703Y-94495756D01*
X103983685Y-94498079D01*
X103983690Y-94498082D01*
X104184180Y-94591572D01*
X104190174Y-94594367D01*
X104195482Y-94595789D01*
X104195484Y-94595790D01*
X104410241Y-94653334D01*
X104410243Y-94653334D01*
X104415556Y-94654758D01*
X104648000Y-94675094D01*
X104880444Y-94654758D01*
X104885757Y-94653334D01*
X104885759Y-94653334D01*
X105100516Y-94595790D01*
X105100518Y-94595789D01*
X105105826Y-94594367D01*
X105111820Y-94591572D01*
X105312310Y-94498082D01*
X105312315Y-94498079D01*
X105317297Y-94495756D01*
X105321806Y-94492599D01*
X105396193Y-94440513D01*
X108988542Y-94440513D01*
X108997838Y-94452528D01*
X109054446Y-94492165D01*
X109063941Y-94497648D01*
X109265364Y-94591572D01*
X109275656Y-94595318D01*
X109490328Y-94652839D01*
X109501123Y-94654742D01*
X109722525Y-94674113D01*
X109733475Y-94674113D01*
X109954877Y-94654742D01*
X109965672Y-94652839D01*
X110180344Y-94595318D01*
X110190636Y-94591572D01*
X110392059Y-94497648D01*
X110401554Y-94492165D01*
X110459000Y-94451941D01*
X110467375Y-94441464D01*
X110460307Y-94428017D01*
X109740812Y-93708522D01*
X109726868Y-93700908D01*
X109725035Y-93701039D01*
X109718420Y-93705290D01*
X108994972Y-94428738D01*
X108988542Y-94440513D01*
X105396193Y-94440513D01*
X105503921Y-94365081D01*
X105503924Y-94365079D01*
X105508432Y-94361922D01*
X105673422Y-94196932D01*
X105703253Y-94154330D01*
X105804099Y-94010306D01*
X105804100Y-94010304D01*
X105807256Y-94005797D01*
X105809579Y-94000815D01*
X105809582Y-94000810D01*
X105903544Y-93799308D01*
X105903545Y-93799306D01*
X105905867Y-93794326D01*
X105966258Y-93568944D01*
X105986115Y-93341975D01*
X108390387Y-93341975D01*
X108409758Y-93563377D01*
X108411661Y-93574172D01*
X108469182Y-93788844D01*
X108472928Y-93799136D01*
X108566852Y-94000559D01*
X108572335Y-94010054D01*
X108612559Y-94067500D01*
X108623036Y-94075875D01*
X108636483Y-94068807D01*
X109355978Y-93349312D01*
X109362356Y-93337632D01*
X110092408Y-93337632D01*
X110092539Y-93339465D01*
X110096790Y-93346080D01*
X110820238Y-94069528D01*
X110832013Y-94075958D01*
X110844028Y-94066662D01*
X110883665Y-94010054D01*
X110889148Y-94000559D01*
X110983072Y-93799136D01*
X110986818Y-93788844D01*
X111044339Y-93574172D01*
X111046242Y-93563377D01*
X111065613Y-93341975D01*
X111065613Y-93331025D01*
X111046242Y-93109623D01*
X111044339Y-93098828D01*
X110986818Y-92884156D01*
X110983072Y-92873864D01*
X110889148Y-92672441D01*
X110883665Y-92662946D01*
X110843441Y-92605500D01*
X110832964Y-92597125D01*
X110819517Y-92604193D01*
X110100022Y-93323688D01*
X110092408Y-93337632D01*
X109362356Y-93337632D01*
X109363592Y-93335368D01*
X109363461Y-93333535D01*
X109359210Y-93326920D01*
X108635762Y-92603472D01*
X108623987Y-92597042D01*
X108611972Y-92606338D01*
X108572335Y-92662946D01*
X108566852Y-92672441D01*
X108472928Y-92873864D01*
X108469182Y-92884156D01*
X108411661Y-93098828D01*
X108409758Y-93109623D01*
X108390387Y-93331025D01*
X108390387Y-93341975D01*
X105986115Y-93341975D01*
X105986594Y-93336500D01*
X105966258Y-93104056D01*
X105905867Y-92878674D01*
X105809699Y-92672441D01*
X105809582Y-92672190D01*
X105809579Y-92672185D01*
X105807256Y-92667203D01*
X105758129Y-92597042D01*
X105676581Y-92480579D01*
X105676579Y-92480576D01*
X105673422Y-92476068D01*
X105508432Y-92311078D01*
X105503922Y-92307920D01*
X105503916Y-92307915D01*
X105464230Y-92280127D01*
X105425389Y-92231536D01*
X108988625Y-92231536D01*
X108995693Y-92244983D01*
X109715188Y-92964478D01*
X109729132Y-92972092D01*
X109730965Y-92971961D01*
X109737580Y-92967710D01*
X110461028Y-92244262D01*
X110467458Y-92232487D01*
X110458162Y-92220472D01*
X110401554Y-92180835D01*
X110392059Y-92175352D01*
X110190636Y-92081428D01*
X110180344Y-92077682D01*
X109965672Y-92020161D01*
X109954877Y-92018258D01*
X109733475Y-91998887D01*
X109722525Y-91998887D01*
X109501123Y-92018258D01*
X109490328Y-92020161D01*
X109275656Y-92077682D01*
X109265364Y-92081428D01*
X109063941Y-92175352D01*
X109054446Y-92180835D01*
X108997000Y-92221059D01*
X108988625Y-92231536D01*
X105425389Y-92231536D01*
X105419901Y-92224670D01*
X105410500Y-92176914D01*
X105410500Y-91808028D01*
X105430502Y-91739907D01*
X105447405Y-91718933D01*
X106196933Y-90969405D01*
X106259245Y-90935379D01*
X106286028Y-90932500D01*
X113550972Y-90932500D01*
X113619093Y-90952502D01*
X113640067Y-90969405D01*
X114135595Y-91464933D01*
X114169621Y-91527245D01*
X114172500Y-91554028D01*
X114172500Y-91877000D01*
X114152498Y-91945121D01*
X114098842Y-91991614D01*
X114046500Y-92003000D01*
X113934866Y-92003000D01*
X113872684Y-92009755D01*
X113736295Y-92060885D01*
X113619739Y-92148239D01*
X113532385Y-92264795D01*
X113481255Y-92401184D01*
X113474500Y-92463366D01*
X113474500Y-94209634D01*
X113481255Y-94271816D01*
X113532385Y-94408205D01*
X113619739Y-94524761D01*
X113736295Y-94612115D01*
X113872684Y-94663245D01*
X113934866Y-94670000D01*
X115681134Y-94670000D01*
X115743316Y-94663245D01*
X115879705Y-94612115D01*
X115996261Y-94524761D01*
X116083615Y-94408205D01*
X116134745Y-94271816D01*
X116140386Y-94219891D01*
X116167628Y-94154330D01*
X116225992Y-94113904D01*
X116265649Y-94107500D01*
X117153624Y-94107500D01*
X117172574Y-94108933D01*
X117186973Y-94111124D01*
X117186979Y-94111124D01*
X117194208Y-94112224D01*
X117201500Y-94111631D01*
X117201503Y-94111631D01*
X117247183Y-94107915D01*
X117257398Y-94107500D01*
X117265525Y-94107500D01*
X117269161Y-94107076D01*
X117269163Y-94107076D01*
X117272615Y-94106673D01*
X117293924Y-94104189D01*
X117298244Y-94103762D01*
X117371426Y-94097809D01*
X117378388Y-94095553D01*
X117384376Y-94094357D01*
X117390333Y-94092949D01*
X117397607Y-94092101D01*
X117404489Y-94089603D01*
X117404493Y-94089602D01*
X117466607Y-94067055D01*
X117470711Y-94065645D01*
X117540575Y-94043013D01*
X117546838Y-94039213D01*
X117552380Y-94036675D01*
X117557856Y-94033933D01*
X117564741Y-94031434D01*
X117597351Y-94010054D01*
X117626132Y-93991185D01*
X117629800Y-93988870D01*
X117692581Y-93950773D01*
X117696786Y-93947059D01*
X117696789Y-93947057D01*
X117701005Y-93943333D01*
X117701031Y-93943362D01*
X117703962Y-93940762D01*
X117707316Y-93937958D01*
X117713435Y-93933946D01*
X117766989Y-93877413D01*
X117769366Y-93874972D01*
X119109528Y-92534810D01*
X119123941Y-92522423D01*
X119135665Y-92513795D01*
X119141564Y-92509454D01*
X119175979Y-92468945D01*
X119182909Y-92461429D01*
X119188653Y-92455685D01*
X119190927Y-92452811D01*
X119190933Y-92452804D01*
X119206372Y-92433289D01*
X119209163Y-92429885D01*
X119251945Y-92379528D01*
X119251948Y-92379524D01*
X119256684Y-92373949D01*
X119260011Y-92367434D01*
X119263392Y-92362364D01*
X119266617Y-92357142D01*
X119271160Y-92351400D01*
X119302246Y-92284888D01*
X119304152Y-92280988D01*
X119316090Y-92257609D01*
X119337543Y-92215596D01*
X119339284Y-92208479D01*
X119341411Y-92202761D01*
X119343342Y-92196955D01*
X119346443Y-92190321D01*
X119348417Y-92180835D01*
X119361389Y-92118469D01*
X119362359Y-92114181D01*
X119370374Y-92081428D01*
X119379804Y-92042888D01*
X119380500Y-92031670D01*
X119380539Y-92031672D01*
X119380772Y-92027771D01*
X119381161Y-92023412D01*
X119382652Y-92016244D01*
X119380546Y-91938423D01*
X119380500Y-91935014D01*
X119380500Y-74616376D01*
X119381933Y-74597426D01*
X119384124Y-74583027D01*
X119384124Y-74583021D01*
X119385224Y-74575792D01*
X119383657Y-74556521D01*
X119380915Y-74522817D01*
X119380500Y-74512602D01*
X119380500Y-74504475D01*
X119377189Y-74476076D01*
X119376760Y-74471736D01*
X119375026Y-74450410D01*
X119370809Y-74398574D01*
X119368553Y-74391612D01*
X119367357Y-74385624D01*
X119365949Y-74379667D01*
X119365101Y-74372393D01*
X119362603Y-74365511D01*
X119362602Y-74365507D01*
X119340055Y-74303393D01*
X119338645Y-74299289D01*
X119316013Y-74229425D01*
X119312213Y-74223162D01*
X119309675Y-74217620D01*
X119306933Y-74212144D01*
X119304434Y-74205259D01*
X119264185Y-74143868D01*
X119261870Y-74140200D01*
X119223773Y-74077419D01*
X119216333Y-74068995D01*
X119216362Y-74068969D01*
X119213762Y-74066038D01*
X119210958Y-74062684D01*
X119206946Y-74056565D01*
X119150413Y-74003011D01*
X119147972Y-74000634D01*
X114251810Y-69104472D01*
X114239423Y-69090059D01*
X114226454Y-69072436D01*
X114185945Y-69038021D01*
X114178429Y-69031091D01*
X114172685Y-69025347D01*
X114169811Y-69023073D01*
X114169804Y-69023067D01*
X114150289Y-69007628D01*
X114146885Y-69004837D01*
X114096528Y-68962055D01*
X114096524Y-68962052D01*
X114090949Y-68957316D01*
X114084432Y-68953988D01*
X114079368Y-68950611D01*
X114074144Y-68947384D01*
X114068400Y-68942840D01*
X114042109Y-68930552D01*
X114001918Y-68911768D01*
X113997967Y-68909837D01*
X113964702Y-68892851D01*
X113940484Y-68880485D01*
X119510854Y-68880485D01*
X119522125Y-69023701D01*
X119534591Y-69182085D01*
X119536370Y-69204695D01*
X119601206Y-69523378D01*
X119704398Y-69831784D01*
X119844405Y-70125316D01*
X119846467Y-70128553D01*
X119846470Y-70128558D01*
X119892253Y-70200423D01*
X120019141Y-70399597D01*
X120021584Y-70402560D01*
X120021585Y-70402562D01*
X120222967Y-70646857D01*
X120226001Y-70650538D01*
X120461902Y-70874399D01*
X120723326Y-71067843D01*
X120864851Y-71147914D01*
X121003019Y-71226086D01*
X121003023Y-71226088D01*
X121006376Y-71227985D01*
X121306832Y-71352438D01*
X121410288Y-71381129D01*
X121616500Y-71438317D01*
X121616508Y-71438319D01*
X121620216Y-71439347D01*
X121941856Y-71487416D01*
X121945154Y-71487560D01*
X122056918Y-71492440D01*
X122056922Y-71492440D01*
X122058294Y-71492500D01*
X122256598Y-71492500D01*
X122498605Y-71477698D01*
X122502388Y-71476997D01*
X122502395Y-71476996D01*
X122702459Y-71439916D01*
X122818372Y-71418433D01*
X123027682Y-71352438D01*
X123124860Y-71321798D01*
X123124863Y-71321797D01*
X123128532Y-71320640D01*
X123132029Y-71319046D01*
X123132035Y-71319044D01*
X123420954Y-71187376D01*
X123420958Y-71187374D01*
X123424462Y-71185777D01*
X123701751Y-71015854D01*
X123704755Y-71013464D01*
X123704760Y-71013461D01*
X123868174Y-70883475D01*
X123956264Y-70813405D01*
X123958958Y-70810664D01*
X123958962Y-70810660D01*
X124181513Y-70584190D01*
X124181517Y-70584185D01*
X124184208Y-70581447D01*
X124335515Y-70384260D01*
X124379835Y-70326502D01*
X124379837Y-70326498D01*
X124382185Y-70323439D01*
X124542457Y-70051351D01*
X124545289Y-70046543D01*
X124545291Y-70046540D01*
X124547242Y-70043227D01*
X124676920Y-69744988D01*
X124710515Y-69631575D01*
X124768191Y-69436861D01*
X124769285Y-69433169D01*
X124822961Y-69112417D01*
X124837146Y-68787515D01*
X124824174Y-68622696D01*
X124811932Y-68467140D01*
X124811932Y-68467137D01*
X124811630Y-68463305D01*
X124746794Y-68144622D01*
X124643602Y-67836216D01*
X124503595Y-67542684D01*
X124328859Y-67268403D01*
X124216741Y-67132393D01*
X124124442Y-67020425D01*
X124124438Y-67020420D01*
X124121999Y-67017462D01*
X123886098Y-66793601D01*
X123624674Y-66600157D01*
X123419781Y-66484234D01*
X123344981Y-66441914D01*
X123344977Y-66441912D01*
X123341624Y-66440015D01*
X123041168Y-66315562D01*
X122937712Y-66286871D01*
X122731500Y-66229683D01*
X122731492Y-66229681D01*
X122727784Y-66228653D01*
X122406144Y-66180584D01*
X122402846Y-66180440D01*
X122291082Y-66175560D01*
X122291078Y-66175560D01*
X122289706Y-66175500D01*
X122091402Y-66175500D01*
X121849395Y-66190302D01*
X121845612Y-66191003D01*
X121845605Y-66191004D01*
X121689512Y-66219934D01*
X121529628Y-66249567D01*
X121345058Y-66307762D01*
X121223140Y-66346202D01*
X121223137Y-66346203D01*
X121219468Y-66347360D01*
X121215971Y-66348954D01*
X121215965Y-66348956D01*
X120927046Y-66480624D01*
X120927042Y-66480626D01*
X120923538Y-66482223D01*
X120920259Y-66484233D01*
X120920256Y-66484234D01*
X120856275Y-66523442D01*
X120646249Y-66652146D01*
X120643245Y-66654536D01*
X120643240Y-66654539D01*
X120518992Y-66753371D01*
X120391736Y-66854595D01*
X120389042Y-66857336D01*
X120389038Y-66857340D01*
X120166487Y-67083810D01*
X120166483Y-67083815D01*
X120163792Y-67086553D01*
X119965815Y-67344561D01*
X119800758Y-67624773D01*
X119671080Y-67923012D01*
X119578715Y-68234831D01*
X119525039Y-68555583D01*
X119510854Y-68880485D01*
X113940484Y-68880485D01*
X113932596Y-68876457D01*
X113925481Y-68874716D01*
X113919735Y-68872579D01*
X113913952Y-68870655D01*
X113907321Y-68867556D01*
X113835443Y-68852606D01*
X113831171Y-68851639D01*
X113759888Y-68834196D01*
X113754289Y-68833849D01*
X113754285Y-68833848D01*
X113748670Y-68833500D01*
X113748672Y-68833461D01*
X113744771Y-68833228D01*
X113740412Y-68832839D01*
X113733244Y-68831348D01*
X113725927Y-68831546D01*
X113655423Y-68833454D01*
X113652014Y-68833500D01*
X101393803Y-68833500D01*
X101325682Y-68813498D01*
X101302795Y-68794043D01*
X101302340Y-68793434D01*
X101221749Y-68718937D01*
X101145398Y-68648358D01*
X101145395Y-68648356D01*
X101141158Y-68644439D01*
X100955523Y-68527313D01*
X100914703Y-68511027D01*
X100804700Y-68467140D01*
X100751653Y-68445976D01*
X100745985Y-68444849D01*
X100745983Y-68444848D01*
X100542041Y-68404282D01*
X100542037Y-68404282D01*
X100536373Y-68403155D01*
X100530598Y-68403079D01*
X100530594Y-68403079D01*
X100419963Y-68401631D01*
X100316895Y-68400281D01*
X100311198Y-68401260D01*
X100311197Y-68401260D01*
X100218613Y-68417169D01*
X100100568Y-68437453D01*
X99894638Y-68513425D01*
X99889677Y-68516377D01*
X99889676Y-68516377D01*
X99710969Y-68622696D01*
X99710966Y-68622698D01*
X99706001Y-68625652D01*
X99540974Y-68770377D01*
X99405085Y-68942751D01*
X99402394Y-68947867D01*
X99402392Y-68947869D01*
X99362829Y-69023067D01*
X99302884Y-69137003D01*
X99300483Y-69135740D01*
X99263065Y-69182085D01*
X99195680Y-69204443D01*
X99126906Y-69186821D01*
X99078575Y-69134814D01*
X99065300Y-69078519D01*
X99065300Y-68862066D01*
X99058545Y-68799884D01*
X99007415Y-68663495D01*
X98920061Y-68546939D01*
X98803505Y-68459585D01*
X98667116Y-68408455D01*
X98604934Y-68401700D01*
X97137066Y-68401700D01*
X97074884Y-68408455D01*
X96938495Y-68459585D01*
X96821939Y-68546939D01*
X96734585Y-68663495D01*
X96683455Y-68799884D01*
X96676700Y-68862066D01*
X96676700Y-70329934D01*
X96683455Y-70392116D01*
X96734585Y-70528505D01*
X96821939Y-70645061D01*
X96938495Y-70732415D01*
X96946903Y-70735567D01*
X97026730Y-70765493D01*
X97083494Y-70808135D01*
X97108194Y-70874696D01*
X97108500Y-70883475D01*
X97108500Y-71641624D01*
X97107067Y-71660574D01*
X97104876Y-71674973D01*
X97104876Y-71674979D01*
X97103776Y-71682208D01*
X97104369Y-71689500D01*
X97104369Y-71689503D01*
X97108085Y-71735183D01*
X97108500Y-71745398D01*
X97108500Y-71753525D01*
X97111811Y-71781924D01*
X97112238Y-71786244D01*
X97118191Y-71859426D01*
X97120447Y-71866388D01*
X97121643Y-71872376D01*
X97123051Y-71878333D01*
X97123899Y-71885607D01*
X97126397Y-71892489D01*
X97126398Y-71892493D01*
X97148945Y-71954607D01*
X97150355Y-71958711D01*
X97172987Y-72028575D01*
X97176787Y-72034838D01*
X97179325Y-72040380D01*
X97182067Y-72045856D01*
X97184566Y-72052741D01*
X97188581Y-72058865D01*
X97224815Y-72114132D01*
X97227130Y-72117800D01*
X97265227Y-72180581D01*
X97268941Y-72184786D01*
X97268943Y-72184789D01*
X97272667Y-72189005D01*
X97272638Y-72189031D01*
X97275238Y-72191962D01*
X97278042Y-72195316D01*
X97282054Y-72201435D01*
X97336077Y-72252611D01*
X97338586Y-72254988D01*
X97341028Y-72257366D01*
X98473190Y-73389528D01*
X98485577Y-73403941D01*
X98498546Y-73421564D01*
X98504129Y-73426307D01*
X98539055Y-73455979D01*
X98546571Y-73462909D01*
X98552315Y-73468653D01*
X98555189Y-73470927D01*
X98555196Y-73470933D01*
X98574711Y-73486372D01*
X98578115Y-73489163D01*
X98628472Y-73531945D01*
X98628476Y-73531948D01*
X98634051Y-73536684D01*
X98640568Y-73540012D01*
X98645632Y-73543389D01*
X98650856Y-73546616D01*
X98656600Y-73551160D01*
X98723104Y-73582242D01*
X98727001Y-73584147D01*
X98792404Y-73617543D01*
X98799518Y-73619283D01*
X98805260Y-73621419D01*
X98811051Y-73623346D01*
X98817680Y-73626444D01*
X98889569Y-73641397D01*
X98893835Y-73642363D01*
X98965112Y-73659804D01*
X98970714Y-73660152D01*
X98970717Y-73660152D01*
X98976330Y-73660500D01*
X98976328Y-73660539D01*
X98980229Y-73660772D01*
X98984588Y-73661161D01*
X98991756Y-73662652D01*
X98999073Y-73662454D01*
X99069577Y-73660546D01*
X99072986Y-73660500D01*
X100469972Y-73660500D01*
X100538093Y-73680502D01*
X100559067Y-73697405D01*
X100800595Y-73938933D01*
X100834621Y-74001245D01*
X100837500Y-74028028D01*
X100837500Y-74450410D01*
X100817498Y-74518531D01*
X100763842Y-74565024D01*
X100693568Y-74575128D01*
X100667271Y-74568392D01*
X100635609Y-74556522D01*
X100620351Y-74552895D01*
X100569486Y-74547369D01*
X100562672Y-74547000D01*
X100320115Y-74547000D01*
X100304876Y-74551475D01*
X100303671Y-74552865D01*
X100302000Y-74560548D01*
X100302000Y-76564884D01*
X100306475Y-76580123D01*
X100307865Y-76581328D01*
X100315548Y-76582999D01*
X100562669Y-76582999D01*
X100569490Y-76582629D01*
X100620352Y-76577105D01*
X100635604Y-76573479D01*
X100756058Y-76528323D01*
X100776965Y-76516876D01*
X100846322Y-76501707D01*
X100897983Y-76516876D01*
X100904112Y-76520232D01*
X100911295Y-76525615D01*
X100919699Y-76528766D01*
X100919700Y-76528766D01*
X100946796Y-76538924D01*
X101003561Y-76581566D01*
X101028260Y-76648128D01*
X101013052Y-76717477D01*
X100991661Y-76746001D01*
X88916472Y-88821190D01*
X88902059Y-88833577D01*
X88884436Y-88846546D01*
X88879692Y-88852129D01*
X88879693Y-88852129D01*
X88850021Y-88887055D01*
X88843091Y-88894571D01*
X88837347Y-88900315D01*
X88835073Y-88903189D01*
X88835067Y-88903196D01*
X88819628Y-88922711D01*
X88816837Y-88926115D01*
X88774055Y-88976472D01*
X88774052Y-88976476D01*
X88769316Y-88982051D01*
X88765988Y-88988568D01*
X88762611Y-88993632D01*
X88759384Y-88998856D01*
X88754840Y-89004600D01*
X88751741Y-89011231D01*
X88723768Y-89071082D01*
X88721837Y-89075033D01*
X88688457Y-89140404D01*
X88686716Y-89147519D01*
X88684579Y-89153265D01*
X88682655Y-89159048D01*
X88679556Y-89165679D01*
X88669386Y-89214577D01*
X88664608Y-89237547D01*
X88663639Y-89241829D01*
X88646196Y-89313112D01*
X88645500Y-89324330D01*
X88645461Y-89324328D01*
X88645228Y-89328229D01*
X88644839Y-89332588D01*
X88643348Y-89339756D01*
X88643546Y-89347073D01*
X88645454Y-89417577D01*
X88645500Y-89420986D01*
X88645500Y-92176914D01*
X88625498Y-92245035D01*
X88591770Y-92280127D01*
X88552084Y-92307915D01*
X88552078Y-92307920D01*
X88547568Y-92311078D01*
X88382578Y-92476068D01*
X88379421Y-92480576D01*
X88379419Y-92480579D01*
X88297871Y-92597042D01*
X88248744Y-92667203D01*
X88246421Y-92672185D01*
X88246418Y-92672190D01*
X88246301Y-92672441D01*
X88150133Y-92878674D01*
X88089742Y-93104056D01*
X88069406Y-93336500D01*
X76962500Y-93336500D01*
X76962500Y-76119669D01*
X99070001Y-76119669D01*
X99070371Y-76126490D01*
X99075895Y-76177352D01*
X99079521Y-76192604D01*
X99124676Y-76313054D01*
X99133214Y-76328649D01*
X99209715Y-76430724D01*
X99222276Y-76443285D01*
X99324351Y-76519786D01*
X99339946Y-76528324D01*
X99460394Y-76573478D01*
X99475649Y-76577105D01*
X99526514Y-76582631D01*
X99533328Y-76583000D01*
X99775885Y-76583000D01*
X99791124Y-76578525D01*
X99792329Y-76577135D01*
X99794000Y-76569452D01*
X99794000Y-75837115D01*
X99789525Y-75821876D01*
X99788135Y-75820671D01*
X99780452Y-75819000D01*
X99088116Y-75819000D01*
X99072877Y-75823475D01*
X99071672Y-75824865D01*
X99070001Y-75832548D01*
X99070001Y-76119669D01*
X76962500Y-76119669D01*
X76962500Y-75292885D01*
X99070000Y-75292885D01*
X99074475Y-75308124D01*
X99075865Y-75309329D01*
X99083548Y-75311000D01*
X99775885Y-75311000D01*
X99791124Y-75306525D01*
X99792329Y-75305135D01*
X99794000Y-75297452D01*
X99794000Y-74565116D01*
X99789525Y-74549877D01*
X99788135Y-74548672D01*
X99780452Y-74547001D01*
X99533331Y-74547001D01*
X99526510Y-74547371D01*
X99475648Y-74552895D01*
X99460396Y-74556521D01*
X99339946Y-74601676D01*
X99324351Y-74610214D01*
X99222276Y-74686715D01*
X99209715Y-74699276D01*
X99133214Y-74801351D01*
X99124676Y-74816946D01*
X99079522Y-74937394D01*
X99075895Y-74952649D01*
X99070369Y-75003514D01*
X99070000Y-75010328D01*
X99070000Y-75292885D01*
X76962500Y-75292885D01*
X76962500Y-67864485D01*
X78743854Y-67864485D01*
X78744156Y-67868320D01*
X78762108Y-68096417D01*
X78769370Y-68188695D01*
X78834206Y-68507378D01*
X78937398Y-68815784D01*
X79077405Y-69109316D01*
X79079467Y-69112553D01*
X79079470Y-69112558D01*
X79123764Y-69182085D01*
X79252141Y-69383597D01*
X79254584Y-69386560D01*
X79254585Y-69386562D01*
X79404308Y-69568190D01*
X79459001Y-69634538D01*
X79694902Y-69858399D01*
X79956326Y-70051843D01*
X80080059Y-70121848D01*
X80236019Y-70210086D01*
X80236023Y-70210088D01*
X80239376Y-70211985D01*
X80539832Y-70336438D01*
X80619385Y-70358500D01*
X80849500Y-70422317D01*
X80849508Y-70422319D01*
X80853216Y-70423347D01*
X81174856Y-70471416D01*
X81178154Y-70471560D01*
X81289918Y-70476440D01*
X81289922Y-70476440D01*
X81291294Y-70476500D01*
X81489598Y-70476500D01*
X81731605Y-70461698D01*
X81735388Y-70460997D01*
X81735395Y-70460996D01*
X81935459Y-70423916D01*
X82051372Y-70402433D01*
X82260682Y-70336438D01*
X82357860Y-70305798D01*
X82357863Y-70305797D01*
X82361532Y-70304640D01*
X82365029Y-70303046D01*
X82365035Y-70303044D01*
X82653954Y-70171376D01*
X82653958Y-70171374D01*
X82657462Y-70169777D01*
X82660744Y-70167766D01*
X82931473Y-70001863D01*
X82931476Y-70001861D01*
X82934751Y-69999854D01*
X82937755Y-69997464D01*
X82937760Y-69997461D01*
X83062007Y-69898630D01*
X83189264Y-69797405D01*
X83191958Y-69794664D01*
X83191962Y-69794660D01*
X83414513Y-69568190D01*
X83414517Y-69568185D01*
X83417208Y-69565447D01*
X83615185Y-69307439D01*
X83780242Y-69027227D01*
X83909920Y-68728988D01*
X83926830Y-68671903D01*
X83961285Y-68555583D01*
X84002285Y-68417169D01*
X84055961Y-68096417D01*
X84070146Y-67771515D01*
X84057388Y-67609410D01*
X84044932Y-67451140D01*
X84044932Y-67451137D01*
X84044630Y-67447305D01*
X83979794Y-67128622D01*
X83876602Y-66820216D01*
X83736595Y-66526684D01*
X83709552Y-66484234D01*
X83610377Y-66328561D01*
X83561859Y-66252403D01*
X83559415Y-66249438D01*
X83357442Y-66004425D01*
X83357438Y-66004420D01*
X83354999Y-66001462D01*
X83119098Y-65777601D01*
X82857674Y-65584157D01*
X82652781Y-65468234D01*
X82577981Y-65425914D01*
X82577977Y-65425912D01*
X82574624Y-65424015D01*
X82274168Y-65299562D01*
X82170712Y-65270871D01*
X81964500Y-65213683D01*
X81964492Y-65213681D01*
X81960784Y-65212653D01*
X81639144Y-65164584D01*
X81635846Y-65164440D01*
X81524082Y-65159560D01*
X81524078Y-65159560D01*
X81522706Y-65159500D01*
X81324402Y-65159500D01*
X81082395Y-65174302D01*
X81078612Y-65175003D01*
X81078605Y-65175004D01*
X80922512Y-65203934D01*
X80762628Y-65233567D01*
X80578058Y-65291762D01*
X80456140Y-65330202D01*
X80456137Y-65330203D01*
X80452468Y-65331360D01*
X80448971Y-65332954D01*
X80448965Y-65332956D01*
X80160046Y-65464624D01*
X80160042Y-65464626D01*
X80156538Y-65466223D01*
X79879249Y-65636146D01*
X79876245Y-65638536D01*
X79876240Y-65638539D01*
X79751993Y-65737370D01*
X79624736Y-65838595D01*
X79622042Y-65841336D01*
X79622038Y-65841340D01*
X79399487Y-66067810D01*
X79399483Y-66067815D01*
X79396792Y-66070553D01*
X79275914Y-66228084D01*
X79208790Y-66315562D01*
X79198815Y-66328561D01*
X79107117Y-66484234D01*
X79037483Y-66602450D01*
X79033758Y-66608773D01*
X78904080Y-66907012D01*
X78902986Y-66910706D01*
X78902984Y-66910711D01*
X78862727Y-67046617D01*
X78811715Y-67218831D01*
X78758039Y-67539583D01*
X78743854Y-67864485D01*
X76962500Y-67864485D01*
X76962500Y-64134500D01*
X76982502Y-64066379D01*
X77036158Y-64019886D01*
X77088500Y-64008500D01*
X126365500Y-64008500D01*
X126433621Y-64028502D01*
G37*
%TD.AperFunction*%
%TD*%
M02*
