%TF.GenerationSoftware,KiCad,Pcbnew,(6.0.9)*%
%TF.CreationDate,2022-12-05T21:09:52-07:00*%
%TF.ProjectId,Rotisserie-Chicken,526f7469-7373-4657-9269-652d43686963,rev?*%
%TF.SameCoordinates,Original*%
%TF.FileFunction,Legend,Top*%
%TF.FilePolarity,Positive*%
%FSLAX46Y46*%
G04 Gerber Fmt 4.6, Leading zero omitted, Abs format (unit mm)*
G04 Created by KiCad (PCBNEW (6.0.9)) date 2022-12-05 21:09:52*
%MOMM*%
%LPD*%
G01*
G04 APERTURE LIST*
%ADD10C,0.150000*%
%ADD11C,0.076200*%
%ADD12C,0.120000*%
%ADD13C,0.127000*%
%ADD14C,0.200000*%
%ADD15C,0.010000*%
G04 APERTURE END LIST*
D10*
X114554047Y-98791428D02*
X115315952Y-98791428D01*
X114935000Y-99172380D02*
X114935000Y-98410476D01*
X104267047Y-98537428D02*
X105028952Y-98537428D01*
X104648000Y-98918380D02*
X104648000Y-98156476D01*
X109728047Y-98834428D02*
X110489952Y-98834428D01*
X99060047Y-98453428D02*
X99821952Y-98453428D01*
X94107047Y-98537428D02*
X94868952Y-98537428D01*
X94488000Y-98918380D02*
X94488000Y-98156476D01*
X88900047Y-98453428D02*
X89661952Y-98453428D01*
X110053761Y-100877666D02*
X110529952Y-100877666D01*
X109958523Y-101163380D02*
X110291857Y-100163380D01*
X110625190Y-101163380D01*
X110958523Y-101163380D02*
X110958523Y-100496714D01*
X110958523Y-100687190D02*
X111006142Y-100591952D01*
X111053761Y-100544333D01*
X111149000Y-100496714D01*
X111244238Y-100496714D01*
X112006142Y-101163380D02*
X112006142Y-100163380D01*
X112006142Y-101115761D02*
X111910904Y-101163380D01*
X111720428Y-101163380D01*
X111625190Y-101115761D01*
X111577571Y-101068142D01*
X111529952Y-100972904D01*
X111529952Y-100687190D01*
X111577571Y-100591952D01*
X111625190Y-100544333D01*
X111720428Y-100496714D01*
X111910904Y-100496714D01*
X112006142Y-100544333D01*
X112910904Y-100496714D02*
X112910904Y-101163380D01*
X112482333Y-100496714D02*
X112482333Y-101020523D01*
X112529952Y-101115761D01*
X112625190Y-101163380D01*
X112768047Y-101163380D01*
X112863285Y-101115761D01*
X112910904Y-101068142D01*
X113387095Y-101163380D02*
X113387095Y-100496714D01*
X113387095Y-100163380D02*
X113339476Y-100211000D01*
X113387095Y-100258619D01*
X113434714Y-100211000D01*
X113387095Y-100163380D01*
X113387095Y-100258619D01*
X113863285Y-100496714D02*
X113863285Y-101163380D01*
X113863285Y-100591952D02*
X113910904Y-100544333D01*
X114006142Y-100496714D01*
X114149000Y-100496714D01*
X114244238Y-100544333D01*
X114291857Y-100639571D01*
X114291857Y-101163380D01*
X114910904Y-101163380D02*
X114815666Y-101115761D01*
X114768047Y-101068142D01*
X114720428Y-100972904D01*
X114720428Y-100687190D01*
X114768047Y-100591952D01*
X114815666Y-100544333D01*
X114910904Y-100496714D01*
X115053761Y-100496714D01*
X115149000Y-100544333D01*
X115196619Y-100591952D01*
X115244238Y-100687190D01*
X115244238Y-100972904D01*
X115196619Y-101068142D01*
X115149000Y-101115761D01*
X115053761Y-101163380D01*
X114910904Y-101163380D01*
X100131809Y-101163380D02*
X100131809Y-100163380D01*
X100512761Y-100163380D01*
X100608000Y-100211000D01*
X100655619Y-100258619D01*
X100703238Y-100353857D01*
X100703238Y-100496714D01*
X100655619Y-100591952D01*
X100608000Y-100639571D01*
X100512761Y-100687190D01*
X100131809Y-100687190D01*
X101274666Y-101163380D02*
X101179428Y-101115761D01*
X101131809Y-101068142D01*
X101084190Y-100972904D01*
X101084190Y-100687190D01*
X101131809Y-100591952D01*
X101179428Y-100544333D01*
X101274666Y-100496714D01*
X101417523Y-100496714D01*
X101512761Y-100544333D01*
X101560380Y-100591952D01*
X101608000Y-100687190D01*
X101608000Y-100972904D01*
X101560380Y-101068142D01*
X101512761Y-101115761D01*
X101417523Y-101163380D01*
X101274666Y-101163380D01*
X101941333Y-100496714D02*
X102131809Y-101163380D01*
X102322285Y-100687190D01*
X102512761Y-101163380D01*
X102703238Y-100496714D01*
X103465142Y-101115761D02*
X103369904Y-101163380D01*
X103179428Y-101163380D01*
X103084190Y-101115761D01*
X103036571Y-101020523D01*
X103036571Y-100639571D01*
X103084190Y-100544333D01*
X103179428Y-100496714D01*
X103369904Y-100496714D01*
X103465142Y-100544333D01*
X103512761Y-100639571D01*
X103512761Y-100734809D01*
X103036571Y-100830047D01*
X103941333Y-101163380D02*
X103941333Y-100496714D01*
X103941333Y-100687190D02*
X103988952Y-100591952D01*
X104036571Y-100544333D01*
X104131809Y-100496714D01*
X104227047Y-100496714D01*
X89606666Y-101036380D02*
X89606666Y-100036380D01*
X89940000Y-100750666D01*
X90273333Y-100036380D01*
X90273333Y-101036380D01*
X90892380Y-101036380D02*
X90797142Y-100988761D01*
X90749523Y-100941142D01*
X90701904Y-100845904D01*
X90701904Y-100560190D01*
X90749523Y-100464952D01*
X90797142Y-100417333D01*
X90892380Y-100369714D01*
X91035238Y-100369714D01*
X91130476Y-100417333D01*
X91178095Y-100464952D01*
X91225714Y-100560190D01*
X91225714Y-100845904D01*
X91178095Y-100941142D01*
X91130476Y-100988761D01*
X91035238Y-101036380D01*
X90892380Y-101036380D01*
X91511428Y-100369714D02*
X91892380Y-100369714D01*
X91654285Y-100036380D02*
X91654285Y-100893523D01*
X91701904Y-100988761D01*
X91797142Y-101036380D01*
X91892380Y-101036380D01*
X92368571Y-101036380D02*
X92273333Y-100988761D01*
X92225714Y-100941142D01*
X92178095Y-100845904D01*
X92178095Y-100560190D01*
X92225714Y-100464952D01*
X92273333Y-100417333D01*
X92368571Y-100369714D01*
X92511428Y-100369714D01*
X92606666Y-100417333D01*
X92654285Y-100464952D01*
X92701904Y-100560190D01*
X92701904Y-100845904D01*
X92654285Y-100941142D01*
X92606666Y-100988761D01*
X92511428Y-101036380D01*
X92368571Y-101036380D01*
X93130476Y-101036380D02*
X93130476Y-100369714D01*
X93130476Y-100560190D02*
X93178095Y-100464952D01*
X93225714Y-100417333D01*
X93320952Y-100369714D01*
X93416190Y-100369714D01*
%TO.C,D1*%
X98522904Y-65898380D02*
X98522904Y-64898380D01*
X98761000Y-64898380D01*
X98903857Y-64946000D01*
X98999095Y-65041238D01*
X99046714Y-65136476D01*
X99094333Y-65326952D01*
X99094333Y-65469809D01*
X99046714Y-65660285D01*
X98999095Y-65755523D01*
X98903857Y-65850761D01*
X98761000Y-65898380D01*
X98522904Y-65898380D01*
X100046714Y-65898380D02*
X99475285Y-65898380D01*
X99761000Y-65898380D02*
X99761000Y-64898380D01*
X99665761Y-65041238D01*
X99570523Y-65136476D01*
X99475285Y-65184095D01*
D11*
%TO.C,R1*%
X100704666Y-74656904D02*
X100438000Y-74275952D01*
X100247523Y-74656904D02*
X100247523Y-73856904D01*
X100552285Y-73856904D01*
X100628476Y-73895000D01*
X100666571Y-73933095D01*
X100704666Y-74009285D01*
X100704666Y-74123571D01*
X100666571Y-74199761D01*
X100628476Y-74237857D01*
X100552285Y-74275952D01*
X100247523Y-74275952D01*
X101466571Y-74656904D02*
X101009428Y-74656904D01*
X101238000Y-74656904D02*
X101238000Y-73856904D01*
X101161809Y-73971190D01*
X101085619Y-74047380D01*
X101009428Y-74085476D01*
D10*
%TO.C,P2*%
X114170404Y-80269880D02*
X114170404Y-79269880D01*
X114551357Y-79269880D01*
X114646595Y-79317500D01*
X114694214Y-79365119D01*
X114741833Y-79460357D01*
X114741833Y-79603214D01*
X114694214Y-79698452D01*
X114646595Y-79746071D01*
X114551357Y-79793690D01*
X114170404Y-79793690D01*
X115122785Y-79365119D02*
X115170404Y-79317500D01*
X115265642Y-79269880D01*
X115503738Y-79269880D01*
X115598976Y-79317500D01*
X115646595Y-79365119D01*
X115694214Y-79460357D01*
X115694214Y-79555595D01*
X115646595Y-79698452D01*
X115075166Y-80269880D01*
X115694214Y-80269880D01*
%TO.C,P1*%
X116482904Y-88209380D02*
X116482904Y-87209380D01*
X116863857Y-87209380D01*
X116959095Y-87257000D01*
X117006714Y-87304619D01*
X117054333Y-87399857D01*
X117054333Y-87542714D01*
X117006714Y-87637952D01*
X116959095Y-87685571D01*
X116863857Y-87733190D01*
X116482904Y-87733190D01*
X118006714Y-88209380D02*
X117435285Y-88209380D01*
X117721000Y-88209380D02*
X117721000Y-87209380D01*
X117625761Y-87352238D01*
X117530523Y-87447476D01*
X117435285Y-87495095D01*
D12*
%TO.C,D1*%
X95508800Y-68961000D02*
X95508800Y-70231000D01*
X94746800Y-68961000D02*
X94746800Y-70231000D01*
X94746800Y-69596000D02*
X95508800Y-70231000D01*
X94746800Y-69596000D02*
X95508800Y-70104000D01*
X94746800Y-69596000D02*
X95508800Y-69850000D01*
X94746800Y-69596000D02*
X95508800Y-69977000D01*
X94746800Y-69596000D02*
X95508800Y-69088000D01*
X94746800Y-69596000D02*
X95508800Y-69723000D01*
X94746800Y-69596000D02*
X95508800Y-69342000D01*
X94746800Y-69596000D02*
X95508800Y-69469000D01*
X94746800Y-69596000D02*
X95508800Y-69215000D01*
X94746800Y-69596000D02*
X95508800Y-68961000D01*
X95762800Y-69596000D02*
X94492800Y-69596000D01*
X102265200Y-69596000D02*
G75*
G03*
X102265200Y-69596000I-3124200J0D01*
G01*
D13*
%TO.C,R1*%
X100038000Y-74875000D02*
X101638000Y-74875000D01*
X100038000Y-76255000D02*
X101638000Y-76255000D01*
%TO.C,P2*%
X117083500Y-64307500D02*
X117083500Y-73707500D01*
X109163500Y-64307500D02*
X117083500Y-64307500D01*
X109163500Y-73707500D02*
X109163500Y-64307500D01*
X109163500Y-73707500D02*
X117083500Y-73707500D01*
D14*
X117833500Y-76907500D02*
G75*
G03*
X117833500Y-76907500I-100000J0D01*
G01*
D13*
%TO.C,P1*%
X86868000Y-97436500D02*
X86868000Y-89236500D01*
X117348000Y-97436500D02*
X86868000Y-97436500D01*
X117348000Y-89236500D02*
X117348000Y-97436500D01*
X86868000Y-89236500D02*
X117348000Y-89236500D01*
D14*
X114908000Y-98036500D02*
G75*
G03*
X114908000Y-98036500I-100000J0D01*
G01*
%TO.C,LOGO1*%
G36*
X83183953Y-83761431D02*
G01*
X83186062Y-83726047D01*
X83191040Y-83698409D01*
X83200087Y-83672234D01*
X83214400Y-83641238D01*
X83216781Y-83636382D01*
X83265078Y-83560293D01*
X83327406Y-83498005D01*
X83401601Y-83451120D01*
X83485497Y-83421238D01*
X83515744Y-83415252D01*
X83601916Y-83410735D01*
X83682894Y-83423994D01*
X83757180Y-83452947D01*
X83823281Y-83495507D01*
X83879701Y-83549589D01*
X83924944Y-83613108D01*
X83957515Y-83683979D01*
X83975917Y-83760117D01*
X83978657Y-83839437D01*
X83964237Y-83919854D01*
X83932657Y-83996534D01*
X83897741Y-84047161D01*
X83849821Y-84097550D01*
X83795379Y-84141709D01*
X83741384Y-84173418D01*
X83690362Y-84190179D01*
X83628173Y-84200932D01*
X83563281Y-84204916D01*
X83504150Y-84201370D01*
X83480655Y-84196861D01*
X83402581Y-84167196D01*
X83330279Y-84120674D01*
X83267909Y-84060693D01*
X83219633Y-83990654D01*
X83213383Y-83978515D01*
X83199703Y-83948882D01*
X83190967Y-83923175D01*
X83186085Y-83895274D01*
X83183965Y-83859054D01*
X83183638Y-83823763D01*
X83268726Y-83823763D01*
X83281948Y-83898138D01*
X83313505Y-83967879D01*
X83348408Y-84014651D01*
X83409222Y-84068619D01*
X83476887Y-84104105D01*
X83549341Y-84120689D01*
X83624524Y-84117946D01*
X83700374Y-84095455D01*
X83713468Y-84089503D01*
X83772439Y-84051061D01*
X83823786Y-83997767D01*
X83862403Y-83934932D01*
X83862756Y-83934168D01*
X83875332Y-83900088D01*
X83881943Y-83862127D01*
X83883845Y-83812638D01*
X83883819Y-83805925D01*
X83877705Y-83734060D01*
X83858961Y-83674060D01*
X83825314Y-83620306D01*
X83795127Y-83586805D01*
X83745758Y-83544438D01*
X83695119Y-83517321D01*
X83636475Y-83502494D01*
X83593544Y-83498199D01*
X83550026Y-83496637D01*
X83517986Y-83499134D01*
X83488751Y-83507114D01*
X83456384Y-83520752D01*
X83392668Y-83556943D01*
X83344029Y-83602047D01*
X83305671Y-83660732D01*
X83299129Y-83673845D01*
X83274300Y-83747937D01*
X83268726Y-83823763D01*
X83183638Y-83823763D01*
X83183517Y-83810846D01*
X83183953Y-83761431D01*
G37*
D15*
X83183953Y-83761431D02*
X83186062Y-83726047D01*
X83191040Y-83698409D01*
X83200087Y-83672234D01*
X83214400Y-83641238D01*
X83216781Y-83636382D01*
X83265078Y-83560293D01*
X83327406Y-83498005D01*
X83401601Y-83451120D01*
X83485497Y-83421238D01*
X83515744Y-83415252D01*
X83601916Y-83410735D01*
X83682894Y-83423994D01*
X83757180Y-83452947D01*
X83823281Y-83495507D01*
X83879701Y-83549589D01*
X83924944Y-83613108D01*
X83957515Y-83683979D01*
X83975917Y-83760117D01*
X83978657Y-83839437D01*
X83964237Y-83919854D01*
X83932657Y-83996534D01*
X83897741Y-84047161D01*
X83849821Y-84097550D01*
X83795379Y-84141709D01*
X83741384Y-84173418D01*
X83690362Y-84190179D01*
X83628173Y-84200932D01*
X83563281Y-84204916D01*
X83504150Y-84201370D01*
X83480655Y-84196861D01*
X83402581Y-84167196D01*
X83330279Y-84120674D01*
X83267909Y-84060693D01*
X83219633Y-83990654D01*
X83213383Y-83978515D01*
X83199703Y-83948882D01*
X83190967Y-83923175D01*
X83186085Y-83895274D01*
X83183965Y-83859054D01*
X83183638Y-83823763D01*
X83268726Y-83823763D01*
X83281948Y-83898138D01*
X83313505Y-83967879D01*
X83348408Y-84014651D01*
X83409222Y-84068619D01*
X83476887Y-84104105D01*
X83549341Y-84120689D01*
X83624524Y-84117946D01*
X83700374Y-84095455D01*
X83713468Y-84089503D01*
X83772439Y-84051061D01*
X83823786Y-83997767D01*
X83862403Y-83934932D01*
X83862756Y-83934168D01*
X83875332Y-83900088D01*
X83881943Y-83862127D01*
X83883845Y-83812638D01*
X83883819Y-83805925D01*
X83877705Y-83734060D01*
X83858961Y-83674060D01*
X83825314Y-83620306D01*
X83795127Y-83586805D01*
X83745758Y-83544438D01*
X83695119Y-83517321D01*
X83636475Y-83502494D01*
X83593544Y-83498199D01*
X83550026Y-83496637D01*
X83517986Y-83499134D01*
X83488751Y-83507114D01*
X83456384Y-83520752D01*
X83392668Y-83556943D01*
X83344029Y-83602047D01*
X83305671Y-83660732D01*
X83299129Y-83673845D01*
X83274300Y-83747937D01*
X83268726Y-83823763D01*
X83183638Y-83823763D01*
X83183517Y-83810846D01*
X83183953Y-83761431D01*
G36*
X81337632Y-83424925D02*
G01*
X81427269Y-83429588D01*
X81499606Y-83443990D01*
X81555501Y-83468749D01*
X81595813Y-83504482D01*
X81621399Y-83551808D01*
X81633119Y-83611343D01*
X81634117Y-83638363D01*
X81625631Y-83704665D01*
X81601200Y-83761050D01*
X81562363Y-83805331D01*
X81510661Y-83835322D01*
X81490852Y-83841760D01*
X81450111Y-83852731D01*
X81484260Y-83900448D01*
X81531128Y-83966241D01*
X81574262Y-84027371D01*
X81612253Y-84081796D01*
X81643695Y-84127477D01*
X81667181Y-84162373D01*
X81681304Y-84184444D01*
X81684917Y-84191475D01*
X81675782Y-84194681D01*
X81652333Y-84195740D01*
X81632048Y-84195075D01*
X81579180Y-84192005D01*
X81466948Y-84027437D01*
X81431756Y-83976717D01*
X81399774Y-83932283D01*
X81372954Y-83896714D01*
X81353247Y-83872588D01*
X81342604Y-83862485D01*
X81342017Y-83862337D01*
X81337060Y-83867121D01*
X81333476Y-83883390D01*
X81331101Y-83913300D01*
X81329770Y-83959007D01*
X81329319Y-84022669D01*
X81329317Y-84029445D01*
X81329317Y-84197085D01*
X81290370Y-84197085D01*
X81263521Y-84195461D01*
X81246334Y-84191446D01*
X81244650Y-84190311D01*
X81243120Y-84178954D01*
X81241710Y-84149556D01*
X81240462Y-84104397D01*
X81239415Y-84045757D01*
X81238608Y-83975916D01*
X81238083Y-83897151D01*
X81237878Y-83811744D01*
X81237877Y-83804231D01*
X81237877Y-83782866D01*
X81329317Y-83782866D01*
X81387737Y-83775624D01*
X81426492Y-83769178D01*
X81462069Y-83760565D01*
X81477849Y-83755207D01*
X81514611Y-83731274D01*
X81535867Y-83695599D01*
X81542677Y-83646662D01*
X81537534Y-83595310D01*
X81520779Y-83557576D01*
X81490423Y-83531620D01*
X81444477Y-83515603D01*
X81393276Y-83508557D01*
X81329317Y-83503422D01*
X81329317Y-83782866D01*
X81237877Y-83782866D01*
X81237877Y-83424925D01*
X81337632Y-83424925D01*
G37*
X81337632Y-83424925D02*
X81427269Y-83429588D01*
X81499606Y-83443990D01*
X81555501Y-83468749D01*
X81595813Y-83504482D01*
X81621399Y-83551808D01*
X81633119Y-83611343D01*
X81634117Y-83638363D01*
X81625631Y-83704665D01*
X81601200Y-83761050D01*
X81562363Y-83805331D01*
X81510661Y-83835322D01*
X81490852Y-83841760D01*
X81450111Y-83852731D01*
X81484260Y-83900448D01*
X81531128Y-83966241D01*
X81574262Y-84027371D01*
X81612253Y-84081796D01*
X81643695Y-84127477D01*
X81667181Y-84162373D01*
X81681304Y-84184444D01*
X81684917Y-84191475D01*
X81675782Y-84194681D01*
X81652333Y-84195740D01*
X81632048Y-84195075D01*
X81579180Y-84192005D01*
X81466948Y-84027437D01*
X81431756Y-83976717D01*
X81399774Y-83932283D01*
X81372954Y-83896714D01*
X81353247Y-83872588D01*
X81342604Y-83862485D01*
X81342017Y-83862337D01*
X81337060Y-83867121D01*
X81333476Y-83883390D01*
X81331101Y-83913300D01*
X81329770Y-83959007D01*
X81329319Y-84022669D01*
X81329317Y-84029445D01*
X81329317Y-84197085D01*
X81290370Y-84197085D01*
X81263521Y-84195461D01*
X81246334Y-84191446D01*
X81244650Y-84190311D01*
X81243120Y-84178954D01*
X81241710Y-84149556D01*
X81240462Y-84104397D01*
X81239415Y-84045757D01*
X81238608Y-83975916D01*
X81238083Y-83897151D01*
X81237878Y-83811744D01*
X81237877Y-83804231D01*
X81237877Y-83782866D01*
X81329317Y-83782866D01*
X81387737Y-83775624D01*
X81426492Y-83769178D01*
X81462069Y-83760565D01*
X81477849Y-83755207D01*
X81514611Y-83731274D01*
X81535867Y-83695599D01*
X81542677Y-83646662D01*
X81537534Y-83595310D01*
X81520779Y-83557576D01*
X81490423Y-83531620D01*
X81444477Y-83515603D01*
X81393276Y-83508557D01*
X81329317Y-83503422D01*
X81329317Y-83782866D01*
X81237877Y-83782866D01*
X81237877Y-83424925D01*
X81337632Y-83424925D01*
G36*
X90872097Y-81527411D02*
G01*
X91220077Y-81530085D01*
X91222911Y-81664705D01*
X91225746Y-81799325D01*
X90849237Y-81799325D01*
X90849237Y-82002525D01*
X91204837Y-82002525D01*
X91204837Y-82266685D01*
X90849237Y-82266685D01*
X90849237Y-82469426D01*
X91034657Y-82472195D01*
X91220077Y-82474965D01*
X91222911Y-82609585D01*
X91225746Y-82744205D01*
X90524117Y-82744205D01*
X90524117Y-81524738D01*
X90872097Y-81527411D01*
G37*
X90872097Y-81527411D02*
X91220077Y-81530085D01*
X91222911Y-81664705D01*
X91225746Y-81799325D01*
X90849237Y-81799325D01*
X90849237Y-82002525D01*
X91204837Y-82002525D01*
X91204837Y-82266685D01*
X90849237Y-82266685D01*
X90849237Y-82469426D01*
X91034657Y-82472195D01*
X91220077Y-82474965D01*
X91222911Y-82609585D01*
X91225746Y-82744205D01*
X90524117Y-82744205D01*
X90524117Y-81524738D01*
X90872097Y-81527411D01*
G36*
X92896770Y-78106565D02*
G01*
X92901405Y-78113547D01*
X92901557Y-78116131D01*
X92896753Y-78129784D01*
X92892581Y-78131565D01*
X92882156Y-78139810D01*
X92877440Y-78149345D01*
X92869835Y-78164328D01*
X92853484Y-78192506D01*
X92830690Y-78230022D01*
X92803759Y-78273018D01*
X92800026Y-78278885D01*
X92772366Y-78322785D01*
X92748164Y-78362152D01*
X92729852Y-78392961D01*
X92719863Y-78411188D01*
X92719362Y-78412285D01*
X92709608Y-78430739D01*
X92692041Y-78460578D01*
X92669992Y-78496193D01*
X92663512Y-78506369D01*
X92642282Y-78540609D01*
X92626150Y-78568759D01*
X92617723Y-78586187D01*
X92617077Y-78588868D01*
X92610494Y-78598659D01*
X92608551Y-78598925D01*
X92599314Y-78607224D01*
X92586140Y-78628103D01*
X92580703Y-78638649D01*
X92564647Y-78666056D01*
X92548166Y-78685957D01*
X92543872Y-78689309D01*
X92528240Y-78693832D01*
X92496122Y-78699393D01*
X92451291Y-78705465D01*
X92397518Y-78711524D01*
X92355819Y-78715542D01*
X92281514Y-78722277D01*
X92197649Y-78729989D01*
X92113440Y-78737825D01*
X92038099Y-78744932D01*
X92022717Y-78746400D01*
X91873999Y-78760606D01*
X91740549Y-78773284D01*
X91617415Y-78784898D01*
X91499642Y-78795907D01*
X91382277Y-78806775D01*
X91260366Y-78817964D01*
X91128955Y-78829935D01*
X91052437Y-78836874D01*
X90987933Y-78842890D01*
X90922787Y-78849267D01*
X90863054Y-78855392D01*
X90814788Y-78860654D01*
X90798437Y-78862575D01*
X90750592Y-78867630D01*
X90703082Y-78871379D01*
X90665030Y-78873121D01*
X90660195Y-78873167D01*
X90636701Y-78873909D01*
X90617496Y-78877600D01*
X90598216Y-78886556D01*
X90574499Y-78903096D01*
X90541983Y-78929538D01*
X90521406Y-78946905D01*
X90477251Y-78984169D01*
X90424609Y-79028351D01*
X90370665Y-79073432D01*
X90330406Y-79106925D01*
X90281277Y-79147835D01*
X90228035Y-79192414D01*
X90177653Y-79234812D01*
X90142710Y-79264405D01*
X90107766Y-79293956D01*
X90061378Y-79332928D01*
X90007762Y-79377793D01*
X89951134Y-79425024D01*
X89897913Y-79469265D01*
X89847870Y-79510813D01*
X89801973Y-79548970D01*
X89762963Y-79581454D01*
X89733581Y-79605981D01*
X89716569Y-79620269D01*
X89714930Y-79621665D01*
X89697035Y-79636660D01*
X89668622Y-79660111D01*
X89634960Y-79687677D01*
X89624496Y-79696205D01*
X89590076Y-79724421D01*
X89559138Y-79750130D01*
X89537051Y-79768861D01*
X89533006Y-79772405D01*
X89514559Y-79788236D01*
X89485697Y-79812377D01*
X89451790Y-79840345D01*
X89441691Y-79848605D01*
X89405379Y-79878609D01*
X89360047Y-79916605D01*
X89312024Y-79957265D01*
X89275720Y-79988305D01*
X89231224Y-80026111D01*
X89199729Y-80051597D01*
X89179214Y-80066121D01*
X89167657Y-80071043D01*
X89163036Y-80067725D01*
X89162677Y-80064338D01*
X89169711Y-80056228D01*
X89190178Y-80034733D01*
X89223123Y-80000819D01*
X89267590Y-79955451D01*
X89322624Y-79899593D01*
X89387271Y-79834210D01*
X89460575Y-79760268D01*
X89541581Y-79678731D01*
X89629334Y-79590564D01*
X89722879Y-79496733D01*
X89821262Y-79398201D01*
X89894248Y-79325198D01*
X90018480Y-79201102D01*
X90129157Y-79090771D01*
X90227000Y-78993508D01*
X90312728Y-78908618D01*
X90387062Y-78835404D01*
X90450722Y-78773170D01*
X90504430Y-78721219D01*
X90548904Y-78678857D01*
X90584865Y-78645386D01*
X90613034Y-78620111D01*
X90634131Y-78602334D01*
X90648876Y-78591361D01*
X90657990Y-78586494D01*
X90658788Y-78586276D01*
X90685175Y-78580373D01*
X90723427Y-78571997D01*
X90765533Y-78562902D01*
X90767957Y-78562382D01*
X90816100Y-78552024D01*
X90866611Y-78541090D01*
X90905117Y-78532696D01*
X90948924Y-78523184D01*
X90999926Y-78512237D01*
X91037197Y-78504318D01*
X91073838Y-78496472D01*
X91124257Y-78485528D01*
X91182399Y-78472808D01*
X91242209Y-78459631D01*
X91255637Y-78456659D01*
X91347555Y-78436369D01*
X91422731Y-78419958D01*
X91484229Y-78406768D01*
X91535114Y-78396145D01*
X91578452Y-78387431D01*
X91585837Y-78385986D01*
X91603726Y-78382452D01*
X91623364Y-78378444D01*
X91647354Y-78373400D01*
X91678303Y-78366756D01*
X91718816Y-78357949D01*
X91771498Y-78346416D01*
X91838956Y-78331594D01*
X91918577Y-78314069D01*
X91966145Y-78303755D01*
X92011980Y-78294094D01*
X92048475Y-78286679D01*
X92058277Y-78284788D01*
X92084806Y-78279461D01*
X92126140Y-78270752D01*
X92177257Y-78259735D01*
X92233135Y-78247486D01*
X92251317Y-78243456D01*
X92310644Y-78230324D01*
X92369706Y-78217349D01*
X92422447Y-78205854D01*
X92462814Y-78197164D01*
X92469757Y-78195691D01*
X92518733Y-78185301D01*
X92571831Y-78173965D01*
X92606917Y-78166429D01*
X92652715Y-78156752D01*
X92700770Y-78146908D01*
X92728837Y-78141341D01*
X92766548Y-78133510D01*
X92800993Y-78125518D01*
X92815197Y-78121783D01*
X92857077Y-78110460D01*
X92883131Y-78105462D01*
X92896770Y-78106565D01*
G37*
X92896770Y-78106565D02*
X92901405Y-78113547D01*
X92901557Y-78116131D01*
X92896753Y-78129784D01*
X92892581Y-78131565D01*
X92882156Y-78139810D01*
X92877440Y-78149345D01*
X92869835Y-78164328D01*
X92853484Y-78192506D01*
X92830690Y-78230022D01*
X92803759Y-78273018D01*
X92800026Y-78278885D01*
X92772366Y-78322785D01*
X92748164Y-78362152D01*
X92729852Y-78392961D01*
X92719863Y-78411188D01*
X92719362Y-78412285D01*
X92709608Y-78430739D01*
X92692041Y-78460578D01*
X92669992Y-78496193D01*
X92663512Y-78506369D01*
X92642282Y-78540609D01*
X92626150Y-78568759D01*
X92617723Y-78586187D01*
X92617077Y-78588868D01*
X92610494Y-78598659D01*
X92608551Y-78598925D01*
X92599314Y-78607224D01*
X92586140Y-78628103D01*
X92580703Y-78638649D01*
X92564647Y-78666056D01*
X92548166Y-78685957D01*
X92543872Y-78689309D01*
X92528240Y-78693832D01*
X92496122Y-78699393D01*
X92451291Y-78705465D01*
X92397518Y-78711524D01*
X92355819Y-78715542D01*
X92281514Y-78722277D01*
X92197649Y-78729989D01*
X92113440Y-78737825D01*
X92038099Y-78744932D01*
X92022717Y-78746400D01*
X91873999Y-78760606D01*
X91740549Y-78773284D01*
X91617415Y-78784898D01*
X91499642Y-78795907D01*
X91382277Y-78806775D01*
X91260366Y-78817964D01*
X91128955Y-78829935D01*
X91052437Y-78836874D01*
X90987933Y-78842890D01*
X90922787Y-78849267D01*
X90863054Y-78855392D01*
X90814788Y-78860654D01*
X90798437Y-78862575D01*
X90750592Y-78867630D01*
X90703082Y-78871379D01*
X90665030Y-78873121D01*
X90660195Y-78873167D01*
X90636701Y-78873909D01*
X90617496Y-78877600D01*
X90598216Y-78886556D01*
X90574499Y-78903096D01*
X90541983Y-78929538D01*
X90521406Y-78946905D01*
X90477251Y-78984169D01*
X90424609Y-79028351D01*
X90370665Y-79073432D01*
X90330406Y-79106925D01*
X90281277Y-79147835D01*
X90228035Y-79192414D01*
X90177653Y-79234812D01*
X90142710Y-79264405D01*
X90107766Y-79293956D01*
X90061378Y-79332928D01*
X90007762Y-79377793D01*
X89951134Y-79425024D01*
X89897913Y-79469265D01*
X89847870Y-79510813D01*
X89801973Y-79548970D01*
X89762963Y-79581454D01*
X89733581Y-79605981D01*
X89716569Y-79620269D01*
X89714930Y-79621665D01*
X89697035Y-79636660D01*
X89668622Y-79660111D01*
X89634960Y-79687677D01*
X89624496Y-79696205D01*
X89590076Y-79724421D01*
X89559138Y-79750130D01*
X89537051Y-79768861D01*
X89533006Y-79772405D01*
X89514559Y-79788236D01*
X89485697Y-79812377D01*
X89451790Y-79840345D01*
X89441691Y-79848605D01*
X89405379Y-79878609D01*
X89360047Y-79916605D01*
X89312024Y-79957265D01*
X89275720Y-79988305D01*
X89231224Y-80026111D01*
X89199729Y-80051597D01*
X89179214Y-80066121D01*
X89167657Y-80071043D01*
X89163036Y-80067725D01*
X89162677Y-80064338D01*
X89169711Y-80056228D01*
X89190178Y-80034733D01*
X89223123Y-80000819D01*
X89267590Y-79955451D01*
X89322624Y-79899593D01*
X89387271Y-79834210D01*
X89460575Y-79760268D01*
X89541581Y-79678731D01*
X89629334Y-79590564D01*
X89722879Y-79496733D01*
X89821262Y-79398201D01*
X89894248Y-79325198D01*
X90018480Y-79201102D01*
X90129157Y-79090771D01*
X90227000Y-78993508D01*
X90312728Y-78908618D01*
X90387062Y-78835404D01*
X90450722Y-78773170D01*
X90504430Y-78721219D01*
X90548904Y-78678857D01*
X90584865Y-78645386D01*
X90613034Y-78620111D01*
X90634131Y-78602334D01*
X90648876Y-78591361D01*
X90657990Y-78586494D01*
X90658788Y-78586276D01*
X90685175Y-78580373D01*
X90723427Y-78571997D01*
X90765533Y-78562902D01*
X90767957Y-78562382D01*
X90816100Y-78552024D01*
X90866611Y-78541090D01*
X90905117Y-78532696D01*
X90948924Y-78523184D01*
X90999926Y-78512237D01*
X91037197Y-78504318D01*
X91073838Y-78496472D01*
X91124257Y-78485528D01*
X91182399Y-78472808D01*
X91242209Y-78459631D01*
X91255637Y-78456659D01*
X91347555Y-78436369D01*
X91422731Y-78419958D01*
X91484229Y-78406768D01*
X91535114Y-78396145D01*
X91578452Y-78387431D01*
X91585837Y-78385986D01*
X91603726Y-78382452D01*
X91623364Y-78378444D01*
X91647354Y-78373400D01*
X91678303Y-78366756D01*
X91718816Y-78357949D01*
X91771498Y-78346416D01*
X91838956Y-78331594D01*
X91918577Y-78314069D01*
X91966145Y-78303755D01*
X92011980Y-78294094D01*
X92048475Y-78286679D01*
X92058277Y-78284788D01*
X92084806Y-78279461D01*
X92126140Y-78270752D01*
X92177257Y-78259735D01*
X92233135Y-78247486D01*
X92251317Y-78243456D01*
X92310644Y-78230324D01*
X92369706Y-78217349D01*
X92422447Y-78205854D01*
X92462814Y-78197164D01*
X92469757Y-78195691D01*
X92518733Y-78185301D01*
X92571831Y-78173965D01*
X92606917Y-78166429D01*
X92652715Y-78156752D01*
X92700770Y-78146908D01*
X92728837Y-78141341D01*
X92766548Y-78133510D01*
X92800993Y-78125518D01*
X92815197Y-78121783D01*
X92857077Y-78110460D01*
X92883131Y-78105462D01*
X92896770Y-78106565D01*
G36*
X93418118Y-77257807D02*
G01*
X93410570Y-77277395D01*
X93392931Y-77309888D01*
X93364517Y-77356907D01*
X93353677Y-77374268D01*
X93328202Y-77415713D01*
X93307290Y-77451377D01*
X93293063Y-77477526D01*
X93287641Y-77490422D01*
X93287637Y-77490558D01*
X93281199Y-77501168D01*
X93278578Y-77501645D01*
X93269404Y-77510196D01*
X93263731Y-77524707D01*
X93252354Y-77550504D01*
X93239770Y-77568404D01*
X93220030Y-77593911D01*
X93206900Y-77613922D01*
X93197077Y-77630283D01*
X93178681Y-77660685D01*
X93153724Y-77701822D01*
X93124216Y-77750388D01*
X93092168Y-77803077D01*
X93059590Y-77856584D01*
X93028493Y-77907604D01*
X93000889Y-77952829D01*
X92978787Y-77988955D01*
X92977450Y-77991136D01*
X92958695Y-78019082D01*
X92941030Y-78034931D01*
X92916515Y-78044071D01*
X92891911Y-78049200D01*
X92861165Y-78055247D01*
X92816020Y-78064515D01*
X92761924Y-78075867D01*
X92704326Y-78088169D01*
X92688197Y-78091654D01*
X92630046Y-78104237D01*
X92573345Y-78116476D01*
X92523730Y-78127155D01*
X92486842Y-78135061D01*
X92479917Y-78136537D01*
X92404776Y-78152517D01*
X92346242Y-78164973D01*
X92301045Y-78174603D01*
X92265915Y-78182105D01*
X92237582Y-78188178D01*
X92212777Y-78193519D01*
X92195437Y-78197267D01*
X92112359Y-78215225D01*
X92046526Y-78229407D01*
X91995327Y-78240367D01*
X91956154Y-78248655D01*
X91926395Y-78254826D01*
X91903442Y-78259430D01*
X91885557Y-78262859D01*
X91859028Y-78268176D01*
X91817698Y-78276884D01*
X91766585Y-78287909D01*
X91710710Y-78300175D01*
X91692517Y-78304214D01*
X91636174Y-78316669D01*
X91582976Y-78328263D01*
X91537944Y-78337911D01*
X91506098Y-78344532D01*
X91499477Y-78345841D01*
X91460020Y-78353916D01*
X91420398Y-78362709D01*
X91413117Y-78364431D01*
X91383117Y-78371278D01*
X91341551Y-78380306D01*
X91296775Y-78389704D01*
X91291197Y-78390850D01*
X91239348Y-78401605D01*
X91180082Y-78414100D01*
X91125830Y-78425712D01*
X91123557Y-78426205D01*
X91069856Y-78437734D01*
X91010544Y-78450314D01*
X90958051Y-78461306D01*
X90955917Y-78461749D01*
X90907144Y-78472023D01*
X90856493Y-78482966D01*
X90814696Y-78492256D01*
X90813677Y-78492489D01*
X90767363Y-78502737D01*
X90716097Y-78513626D01*
X90689606Y-78519050D01*
X90626496Y-78531709D01*
X89831480Y-79327317D01*
X89725796Y-79433009D01*
X89624086Y-79534587D01*
X89527277Y-79631135D01*
X89436291Y-79721737D01*
X89352055Y-79805478D01*
X89275491Y-79881441D01*
X89207526Y-79948709D01*
X89149082Y-80006368D01*
X89101086Y-80053501D01*
X89064462Y-80089192D01*
X89040133Y-80112525D01*
X89029026Y-80122584D01*
X89028450Y-80122925D01*
X89020637Y-80115156D01*
X89020437Y-80112940D01*
X89026718Y-80099453D01*
X89042200Y-80079023D01*
X89045892Y-80074840D01*
X89061955Y-80055955D01*
X89087583Y-80024505D01*
X89119957Y-79984032D01*
X89156257Y-79938080D01*
X89193664Y-79890193D01*
X89221867Y-79853685D01*
X89243417Y-79825758D01*
X89271581Y-79789447D01*
X89303807Y-79748017D01*
X89337546Y-79704737D01*
X89370247Y-79662873D01*
X89399359Y-79625691D01*
X89422333Y-79596459D01*
X89436618Y-79578442D01*
X89439638Y-79574740D01*
X89451084Y-79560638D01*
X89473504Y-79532418D01*
X89505391Y-79491996D01*
X89545238Y-79441288D01*
X89591537Y-79382213D01*
X89642782Y-79316686D01*
X89678447Y-79271007D01*
X89712974Y-79226845D01*
X89750980Y-79178366D01*
X89785110Y-79134951D01*
X89789982Y-79128767D01*
X89818509Y-79092585D01*
X89838490Y-79067186D01*
X89853945Y-79047389D01*
X89868895Y-79028008D01*
X89887360Y-79003860D01*
X89913360Y-78969760D01*
X89917229Y-78964685D01*
X89944223Y-78929534D01*
X89967792Y-78899304D01*
X89984377Y-78878539D01*
X89988833Y-78873245D01*
X90002432Y-78856788D01*
X90022806Y-78830946D01*
X90037168Y-78812285D01*
X90057081Y-78786405D01*
X90071887Y-78767643D01*
X90077077Y-78761485D01*
X90085234Y-78751555D01*
X90102434Y-78729646D01*
X90125401Y-78699939D01*
X90132749Y-78690365D01*
X90159864Y-78655564D01*
X90185299Y-78623933D01*
X90204198Y-78601492D01*
X90206409Y-78599028D01*
X90222083Y-78580193D01*
X90229405Y-78568153D01*
X90229477Y-78567589D01*
X90235532Y-78556671D01*
X90250545Y-78537311D01*
X90255141Y-78531925D01*
X90272947Y-78510423D01*
X90298493Y-78478313D01*
X90327317Y-78441234D01*
X90338817Y-78426205D01*
X90364596Y-78392573D01*
X90385783Y-78365361D01*
X90399357Y-78348427D01*
X90402448Y-78344925D01*
X90408522Y-78337980D01*
X90421959Y-78321164D01*
X90443978Y-78292915D01*
X90475793Y-78251672D01*
X90518620Y-78195876D01*
X90520872Y-78192937D01*
X90550374Y-78155884D01*
X90573964Y-78131448D01*
X90597158Y-78115448D01*
X90625472Y-78103699D01*
X90647621Y-78096831D01*
X90692904Y-78083308D01*
X90740684Y-78068594D01*
X90767957Y-78059944D01*
X90805139Y-78048154D01*
X90857272Y-78031932D01*
X90919837Y-78012668D01*
X90988313Y-77991752D01*
X91058183Y-77970573D01*
X91082917Y-77963119D01*
X91112639Y-77954098D01*
X91154952Y-77941159D01*
X91203035Y-77926390D01*
X91230237Y-77918007D01*
X91287536Y-77900358D01*
X91351566Y-77880688D01*
X91411149Y-77862430D01*
X91428357Y-77857170D01*
X91476497Y-77842433D01*
X91536450Y-77824034D01*
X91600614Y-77804306D01*
X91661387Y-77785586D01*
X91662037Y-77785386D01*
X91740029Y-77761339D01*
X91802448Y-77742118D01*
X91853135Y-77726548D01*
X91895930Y-77713454D01*
X91934675Y-77701662D01*
X91973210Y-77689997D01*
X92015377Y-77677285D01*
X92027797Y-77673547D01*
X92084623Y-77656358D01*
X92146680Y-77637446D01*
X92203931Y-77619875D01*
X92225917Y-77613077D01*
X92277572Y-77597151D01*
X92338659Y-77578466D01*
X92399139Y-77560087D01*
X92424037Y-77552567D01*
X92470340Y-77538530D01*
X92511683Y-77525844D01*
X92542777Y-77516138D01*
X92556117Y-77511820D01*
X92575486Y-77505609D01*
X92609542Y-77495026D01*
X92653510Y-77481544D01*
X92702615Y-77466635D01*
X92703437Y-77466387D01*
X92765369Y-77447560D01*
X92836615Y-77425717D01*
X92907109Y-77403952D01*
X92952357Y-77389876D01*
X93010359Y-77371909D01*
X93071116Y-77353351D01*
X93126934Y-77336537D01*
X93165717Y-77325080D01*
X93217682Y-77309762D01*
X93271206Y-77293632D01*
X93321696Y-77278111D01*
X93364561Y-77264620D01*
X93395211Y-77254579D01*
X93405670Y-77250861D01*
X93416257Y-77249502D01*
X93418118Y-77257807D01*
G37*
X93418118Y-77257807D02*
X93410570Y-77277395D01*
X93392931Y-77309888D01*
X93364517Y-77356907D01*
X93353677Y-77374268D01*
X93328202Y-77415713D01*
X93307290Y-77451377D01*
X93293063Y-77477526D01*
X93287641Y-77490422D01*
X93287637Y-77490558D01*
X93281199Y-77501168D01*
X93278578Y-77501645D01*
X93269404Y-77510196D01*
X93263731Y-77524707D01*
X93252354Y-77550504D01*
X93239770Y-77568404D01*
X93220030Y-77593911D01*
X93206900Y-77613922D01*
X93197077Y-77630283D01*
X93178681Y-77660685D01*
X93153724Y-77701822D01*
X93124216Y-77750388D01*
X93092168Y-77803077D01*
X93059590Y-77856584D01*
X93028493Y-77907604D01*
X93000889Y-77952829D01*
X92978787Y-77988955D01*
X92977450Y-77991136D01*
X92958695Y-78019082D01*
X92941030Y-78034931D01*
X92916515Y-78044071D01*
X92891911Y-78049200D01*
X92861165Y-78055247D01*
X92816020Y-78064515D01*
X92761924Y-78075867D01*
X92704326Y-78088169D01*
X92688197Y-78091654D01*
X92630046Y-78104237D01*
X92573345Y-78116476D01*
X92523730Y-78127155D01*
X92486842Y-78135061D01*
X92479917Y-78136537D01*
X92404776Y-78152517D01*
X92346242Y-78164973D01*
X92301045Y-78174603D01*
X92265915Y-78182105D01*
X92237582Y-78188178D01*
X92212777Y-78193519D01*
X92195437Y-78197267D01*
X92112359Y-78215225D01*
X92046526Y-78229407D01*
X91995327Y-78240367D01*
X91956154Y-78248655D01*
X91926395Y-78254826D01*
X91903442Y-78259430D01*
X91885557Y-78262859D01*
X91859028Y-78268176D01*
X91817698Y-78276884D01*
X91766585Y-78287909D01*
X91710710Y-78300175D01*
X91692517Y-78304214D01*
X91636174Y-78316669D01*
X91582976Y-78328263D01*
X91537944Y-78337911D01*
X91506098Y-78344532D01*
X91499477Y-78345841D01*
X91460020Y-78353916D01*
X91420398Y-78362709D01*
X91413117Y-78364431D01*
X91383117Y-78371278D01*
X91341551Y-78380306D01*
X91296775Y-78389704D01*
X91291197Y-78390850D01*
X91239348Y-78401605D01*
X91180082Y-78414100D01*
X91125830Y-78425712D01*
X91123557Y-78426205D01*
X91069856Y-78437734D01*
X91010544Y-78450314D01*
X90958051Y-78461306D01*
X90955917Y-78461749D01*
X90907144Y-78472023D01*
X90856493Y-78482966D01*
X90814696Y-78492256D01*
X90813677Y-78492489D01*
X90767363Y-78502737D01*
X90716097Y-78513626D01*
X90689606Y-78519050D01*
X90626496Y-78531709D01*
X89831480Y-79327317D01*
X89725796Y-79433009D01*
X89624086Y-79534587D01*
X89527277Y-79631135D01*
X89436291Y-79721737D01*
X89352055Y-79805478D01*
X89275491Y-79881441D01*
X89207526Y-79948709D01*
X89149082Y-80006368D01*
X89101086Y-80053501D01*
X89064462Y-80089192D01*
X89040133Y-80112525D01*
X89029026Y-80122584D01*
X89028450Y-80122925D01*
X89020637Y-80115156D01*
X89020437Y-80112940D01*
X89026718Y-80099453D01*
X89042200Y-80079023D01*
X89045892Y-80074840D01*
X89061955Y-80055955D01*
X89087583Y-80024505D01*
X89119957Y-79984032D01*
X89156257Y-79938080D01*
X89193664Y-79890193D01*
X89221867Y-79853685D01*
X89243417Y-79825758D01*
X89271581Y-79789447D01*
X89303807Y-79748017D01*
X89337546Y-79704737D01*
X89370247Y-79662873D01*
X89399359Y-79625691D01*
X89422333Y-79596459D01*
X89436618Y-79578442D01*
X89439638Y-79574740D01*
X89451084Y-79560638D01*
X89473504Y-79532418D01*
X89505391Y-79491996D01*
X89545238Y-79441288D01*
X89591537Y-79382213D01*
X89642782Y-79316686D01*
X89678447Y-79271007D01*
X89712974Y-79226845D01*
X89750980Y-79178366D01*
X89785110Y-79134951D01*
X89789982Y-79128767D01*
X89818509Y-79092585D01*
X89838490Y-79067186D01*
X89853945Y-79047389D01*
X89868895Y-79028008D01*
X89887360Y-79003860D01*
X89913360Y-78969760D01*
X89917229Y-78964685D01*
X89944223Y-78929534D01*
X89967792Y-78899304D01*
X89984377Y-78878539D01*
X89988833Y-78873245D01*
X90002432Y-78856788D01*
X90022806Y-78830946D01*
X90037168Y-78812285D01*
X90057081Y-78786405D01*
X90071887Y-78767643D01*
X90077077Y-78761485D01*
X90085234Y-78751555D01*
X90102434Y-78729646D01*
X90125401Y-78699939D01*
X90132749Y-78690365D01*
X90159864Y-78655564D01*
X90185299Y-78623933D01*
X90204198Y-78601492D01*
X90206409Y-78599028D01*
X90222083Y-78580193D01*
X90229405Y-78568153D01*
X90229477Y-78567589D01*
X90235532Y-78556671D01*
X90250545Y-78537311D01*
X90255141Y-78531925D01*
X90272947Y-78510423D01*
X90298493Y-78478313D01*
X90327317Y-78441234D01*
X90338817Y-78426205D01*
X90364596Y-78392573D01*
X90385783Y-78365361D01*
X90399357Y-78348427D01*
X90402448Y-78344925D01*
X90408522Y-78337980D01*
X90421959Y-78321164D01*
X90443978Y-78292915D01*
X90475793Y-78251672D01*
X90518620Y-78195876D01*
X90520872Y-78192937D01*
X90550374Y-78155884D01*
X90573964Y-78131448D01*
X90597158Y-78115448D01*
X90625472Y-78103699D01*
X90647621Y-78096831D01*
X90692904Y-78083308D01*
X90740684Y-78068594D01*
X90767957Y-78059944D01*
X90805139Y-78048154D01*
X90857272Y-78031932D01*
X90919837Y-78012668D01*
X90988313Y-77991752D01*
X91058183Y-77970573D01*
X91082917Y-77963119D01*
X91112639Y-77954098D01*
X91154952Y-77941159D01*
X91203035Y-77926390D01*
X91230237Y-77918007D01*
X91287536Y-77900358D01*
X91351566Y-77880688D01*
X91411149Y-77862430D01*
X91428357Y-77857170D01*
X91476497Y-77842433D01*
X91536450Y-77824034D01*
X91600614Y-77804306D01*
X91661387Y-77785586D01*
X91662037Y-77785386D01*
X91740029Y-77761339D01*
X91802448Y-77742118D01*
X91853135Y-77726548D01*
X91895930Y-77713454D01*
X91934675Y-77701662D01*
X91973210Y-77689997D01*
X92015377Y-77677285D01*
X92027797Y-77673547D01*
X92084623Y-77656358D01*
X92146680Y-77637446D01*
X92203931Y-77619875D01*
X92225917Y-77613077D01*
X92277572Y-77597151D01*
X92338659Y-77578466D01*
X92399139Y-77560087D01*
X92424037Y-77552567D01*
X92470340Y-77538530D01*
X92511683Y-77525844D01*
X92542777Y-77516138D01*
X92556117Y-77511820D01*
X92575486Y-77505609D01*
X92609542Y-77495026D01*
X92653510Y-77481544D01*
X92702615Y-77466635D01*
X92703437Y-77466387D01*
X92765369Y-77447560D01*
X92836615Y-77425717D01*
X92907109Y-77403952D01*
X92952357Y-77389876D01*
X93010359Y-77371909D01*
X93071116Y-77353351D01*
X93126934Y-77336537D01*
X93165717Y-77325080D01*
X93217682Y-77309762D01*
X93271206Y-77293632D01*
X93321696Y-77278111D01*
X93364561Y-77264620D01*
X93395211Y-77254579D01*
X93405670Y-77250861D01*
X93416257Y-77249502D01*
X93418118Y-77257807D01*
G36*
X85934222Y-83416448D02*
G01*
X86012155Y-83436920D01*
X86048414Y-83453460D01*
X86077325Y-83469812D01*
X86092862Y-83483666D01*
X86099661Y-83501935D01*
X86102356Y-83531532D01*
X86102507Y-83534145D01*
X86103435Y-83563919D01*
X86102528Y-83583280D01*
X86100988Y-83587485D01*
X86090816Y-83582254D01*
X86068916Y-83568634D01*
X86044050Y-83552256D01*
X85986093Y-83519348D01*
X85929394Y-83501527D01*
X85865369Y-83496102D01*
X85865026Y-83496101D01*
X85792146Y-83505817D01*
X85723772Y-83533775D01*
X85663001Y-83577945D01*
X85612931Y-83636300D01*
X85589690Y-83676504D01*
X85565810Y-83746540D01*
X85560173Y-83817670D01*
X85571117Y-83887179D01*
X85596983Y-83952351D01*
X85636107Y-84010471D01*
X85686829Y-84058826D01*
X85747489Y-84094700D01*
X85816424Y-84115378D01*
X85860677Y-84119356D01*
X85927014Y-84115188D01*
X85983020Y-84099038D01*
X86036301Y-84068470D01*
X86049172Y-84058989D01*
X86074780Y-84040066D01*
X86093364Y-84027489D01*
X86099524Y-84024365D01*
X86102411Y-84033492D01*
X86104214Y-84056758D01*
X86104517Y-84073590D01*
X86100759Y-84112840D01*
X86088789Y-84136851D01*
X86086365Y-84139242D01*
X86042457Y-84167642D01*
X85984874Y-84188532D01*
X85919124Y-84201108D01*
X85850713Y-84204566D01*
X85785148Y-84198101D01*
X85747991Y-84188641D01*
X85666934Y-84152137D01*
X85598923Y-84102237D01*
X85544561Y-84041429D01*
X85504451Y-83972197D01*
X85479195Y-83897031D01*
X85469397Y-83818415D01*
X85475659Y-83738838D01*
X85498585Y-83660785D01*
X85538777Y-83586744D01*
X85587808Y-83527976D01*
X85623238Y-83496643D01*
X85662974Y-83467562D01*
X85693206Y-83449796D01*
X85769361Y-83422831D01*
X85851495Y-83411733D01*
X85934222Y-83416448D01*
G37*
X85934222Y-83416448D02*
X86012155Y-83436920D01*
X86048414Y-83453460D01*
X86077325Y-83469812D01*
X86092862Y-83483666D01*
X86099661Y-83501935D01*
X86102356Y-83531532D01*
X86102507Y-83534145D01*
X86103435Y-83563919D01*
X86102528Y-83583280D01*
X86100988Y-83587485D01*
X86090816Y-83582254D01*
X86068916Y-83568634D01*
X86044050Y-83552256D01*
X85986093Y-83519348D01*
X85929394Y-83501527D01*
X85865369Y-83496102D01*
X85865026Y-83496101D01*
X85792146Y-83505817D01*
X85723772Y-83533775D01*
X85663001Y-83577945D01*
X85612931Y-83636300D01*
X85589690Y-83676504D01*
X85565810Y-83746540D01*
X85560173Y-83817670D01*
X85571117Y-83887179D01*
X85596983Y-83952351D01*
X85636107Y-84010471D01*
X85686829Y-84058826D01*
X85747489Y-84094700D01*
X85816424Y-84115378D01*
X85860677Y-84119356D01*
X85927014Y-84115188D01*
X85983020Y-84099038D01*
X86036301Y-84068470D01*
X86049172Y-84058989D01*
X86074780Y-84040066D01*
X86093364Y-84027489D01*
X86099524Y-84024365D01*
X86102411Y-84033492D01*
X86104214Y-84056758D01*
X86104517Y-84073590D01*
X86100759Y-84112840D01*
X86088789Y-84136851D01*
X86086365Y-84139242D01*
X86042457Y-84167642D01*
X85984874Y-84188532D01*
X85919124Y-84201108D01*
X85850713Y-84204566D01*
X85785148Y-84198101D01*
X85747991Y-84188641D01*
X85666934Y-84152137D01*
X85598923Y-84102237D01*
X85544561Y-84041429D01*
X85504451Y-83972197D01*
X85479195Y-83897031D01*
X85469397Y-83818415D01*
X85475659Y-83738838D01*
X85498585Y-83660785D01*
X85538777Y-83586744D01*
X85587808Y-83527976D01*
X85623238Y-83496643D01*
X85662974Y-83467562D01*
X85693206Y-83449796D01*
X85769361Y-83422831D01*
X85851495Y-83411733D01*
X85934222Y-83416448D01*
G36*
X83907352Y-77252085D02*
G01*
X83948443Y-77262594D01*
X84006785Y-77279963D01*
X84015534Y-77282670D01*
X84071021Y-77299842D01*
X84137398Y-77320313D01*
X84206118Y-77341449D01*
X84265557Y-77359677D01*
X84321587Y-77376844D01*
X84376563Y-77393717D01*
X84424641Y-77408500D01*
X84459975Y-77419398D01*
X84463677Y-77420544D01*
X84506695Y-77433808D01*
X84564731Y-77451609D01*
X84633352Y-77472596D01*
X84708128Y-77495416D01*
X84784627Y-77518716D01*
X84858420Y-77541142D01*
X84895477Y-77552381D01*
X84952281Y-77569663D01*
X85014316Y-77588646D01*
X85071556Y-77606257D01*
X85093597Y-77613077D01*
X85145241Y-77629013D01*
X85206314Y-77647728D01*
X85266785Y-77666155D01*
X85291717Y-77673712D01*
X85349898Y-77691410D01*
X85416785Y-77711908D01*
X85481694Y-77731928D01*
X85510157Y-77740761D01*
X85578923Y-77762128D01*
X85652214Y-77784837D01*
X85726686Y-77807860D01*
X85798996Y-77830167D01*
X85865802Y-77850728D01*
X85923762Y-77868512D01*
X85969532Y-77882491D01*
X85999769Y-77891634D01*
X86002917Y-77892572D01*
X86041075Y-77903971D01*
X86084511Y-77917046D01*
X86101977Y-77922334D01*
X86144813Y-77935299D01*
X86190161Y-77948971D01*
X86206117Y-77953765D01*
X86273045Y-77973911D01*
X86330807Y-77991481D01*
X86389007Y-78009416D01*
X86455037Y-78029965D01*
X86524792Y-78051688D01*
X86578523Y-78068280D01*
X86619574Y-78080740D01*
X86651294Y-78090070D01*
X86677027Y-78097272D01*
X86700122Y-78103346D01*
X86701417Y-78103676D01*
X86727544Y-78111685D01*
X86742894Y-78119016D01*
X86744597Y-78121286D01*
X86750790Y-78132211D01*
X86766421Y-78152076D01*
X86775077Y-78162045D01*
X86793419Y-78183784D01*
X86804282Y-78198967D01*
X86805557Y-78202078D01*
X86811792Y-78212765D01*
X86827044Y-78231117D01*
X86829428Y-78233717D01*
X86849847Y-78258284D01*
X86873119Y-78289789D01*
X86881578Y-78302193D01*
X86899092Y-78326668D01*
X86912689Y-78342129D01*
X86917114Y-78344925D01*
X86926813Y-78352894D01*
X86933544Y-78364075D01*
X86945422Y-78382982D01*
X86965123Y-78409166D01*
X86976089Y-78422495D01*
X86997755Y-78449052D01*
X87026294Y-78485464D01*
X87056594Y-78525174D01*
X87066166Y-78537965D01*
X87091589Y-78571747D01*
X87112651Y-78599028D01*
X87126303Y-78615893D01*
X87129458Y-78619245D01*
X87138114Y-78629098D01*
X87155897Y-78651341D01*
X87179744Y-78682103D01*
X87193989Y-78700793D01*
X87221623Y-78736821D01*
X87246623Y-78768634D01*
X87265105Y-78791323D01*
X87270321Y-78797313D01*
X87288217Y-78818822D01*
X87309246Y-78846687D01*
X87313688Y-78852925D01*
X87332602Y-78879376D01*
X87350767Y-78903359D01*
X87373271Y-78931435D01*
X87395551Y-78958515D01*
X87417202Y-78985478D01*
X87443193Y-79018907D01*
X87456511Y-79036435D01*
X87484737Y-79073009D01*
X87516070Y-79112230D01*
X87528934Y-79127875D01*
X87557338Y-79162946D01*
X87588479Y-79202837D01*
X87604314Y-79223765D01*
X87648683Y-79282683D01*
X87694675Y-79342178D01*
X87747936Y-79409550D01*
X87750437Y-79412686D01*
X87777702Y-79447031D01*
X87803790Y-79480149D01*
X87821557Y-79502943D01*
X87844538Y-79532465D01*
X87870547Y-79565507D01*
X87877437Y-79574190D01*
X87904168Y-79608056D01*
X87939062Y-79652633D01*
X87978581Y-79703360D01*
X88019185Y-79755677D01*
X88057332Y-79805025D01*
X88089483Y-79846844D01*
X88109505Y-79873131D01*
X88135410Y-79906506D01*
X88161180Y-79938244D01*
X88175781Y-79955285D01*
X88200488Y-79985036D01*
X88224956Y-80017576D01*
X88227575Y-80021325D01*
X88249629Y-80050834D01*
X88272195Y-80077522D01*
X88275599Y-80081130D01*
X88294655Y-80104648D01*
X88297617Y-80118674D01*
X88286377Y-80122249D01*
X88277666Y-80115090D01*
X88255593Y-80094408D01*
X88221089Y-80061129D01*
X88175084Y-80016174D01*
X88118509Y-79960467D01*
X88052293Y-79894931D01*
X87977367Y-79820488D01*
X87894662Y-79738063D01*
X87805107Y-79648577D01*
X87709634Y-79552953D01*
X87609172Y-79452116D01*
X87504651Y-79346987D01*
X87485032Y-79327229D01*
X86696387Y-78532885D01*
X86514752Y-78493629D01*
X86453085Y-78480370D01*
X86395038Y-78468015D01*
X86344852Y-78457457D01*
X86306765Y-78449589D01*
X86287397Y-78445745D01*
X86256708Y-78439652D01*
X86213594Y-78430711D01*
X86165467Y-78420469D01*
X86145157Y-78416067D01*
X86091626Y-78404455D01*
X86034623Y-78392188D01*
X85984330Y-78381455D01*
X85972437Y-78378939D01*
X85900761Y-78363789D01*
X85842779Y-78351456D01*
X85792294Y-78340600D01*
X85743109Y-78329879D01*
X85689027Y-78317952D01*
X85626997Y-78304178D01*
X85570655Y-78291755D01*
X85517458Y-78280223D01*
X85472426Y-78270659D01*
X85440580Y-78264135D01*
X85433957Y-78262859D01*
X85413912Y-78259001D01*
X85388654Y-78253904D01*
X85355610Y-78247022D01*
X85312207Y-78237813D01*
X85255872Y-78225730D01*
X85184034Y-78210230D01*
X85124077Y-78197256D01*
X85029460Y-78176843D01*
X84950059Y-78159888D01*
X84881260Y-78145410D01*
X84844677Y-78137819D01*
X84805403Y-78129561D01*
X84752807Y-78118290D01*
X84693399Y-78105409D01*
X84633691Y-78092324D01*
X84626237Y-78090680D01*
X84568521Y-78078149D01*
X84511740Y-78066201D01*
X84461838Y-78056061D01*
X84424764Y-78048957D01*
X84420010Y-78048113D01*
X84356024Y-78036959D01*
X84315344Y-77969962D01*
X84293985Y-77934750D01*
X84275420Y-77904084D01*
X84263315Y-77884019D01*
X84262490Y-77882645D01*
X84250748Y-77864588D01*
X84244903Y-77857245D01*
X84237124Y-77846375D01*
X84222609Y-77823524D01*
X84209142Y-77801365D01*
X84190174Y-77769641D01*
X84173800Y-77742305D01*
X84166557Y-77730245D01*
X84154467Y-77709913D01*
X84137017Y-77680281D01*
X84126118Y-77661675D01*
X84109297Y-77635069D01*
X84095779Y-77617541D01*
X84090297Y-77613415D01*
X84083527Y-77605141D01*
X84082677Y-77598165D01*
X84077776Y-77584635D01*
X84073618Y-77582925D01*
X84064674Y-77574314D01*
X84058184Y-77557525D01*
X84050026Y-77538496D01*
X84041843Y-77532125D01*
X84032381Y-77524219D01*
X84031877Y-77520608D01*
X84026744Y-77508585D01*
X84012964Y-77483478D01*
X83992959Y-77449238D01*
X83969153Y-77409820D01*
X83943970Y-77369176D01*
X83919835Y-77331259D01*
X83899171Y-77300023D01*
X83884402Y-77279420D01*
X83882706Y-77277324D01*
X83871190Y-77261055D01*
X83870366Y-77251382D01*
X83881873Y-77248370D01*
X83907352Y-77252085D01*
G37*
X83907352Y-77252085D02*
X83948443Y-77262594D01*
X84006785Y-77279963D01*
X84015534Y-77282670D01*
X84071021Y-77299842D01*
X84137398Y-77320313D01*
X84206118Y-77341449D01*
X84265557Y-77359677D01*
X84321587Y-77376844D01*
X84376563Y-77393717D01*
X84424641Y-77408500D01*
X84459975Y-77419398D01*
X84463677Y-77420544D01*
X84506695Y-77433808D01*
X84564731Y-77451609D01*
X84633352Y-77472596D01*
X84708128Y-77495416D01*
X84784627Y-77518716D01*
X84858420Y-77541142D01*
X84895477Y-77552381D01*
X84952281Y-77569663D01*
X85014316Y-77588646D01*
X85071556Y-77606257D01*
X85093597Y-77613077D01*
X85145241Y-77629013D01*
X85206314Y-77647728D01*
X85266785Y-77666155D01*
X85291717Y-77673712D01*
X85349898Y-77691410D01*
X85416785Y-77711908D01*
X85481694Y-77731928D01*
X85510157Y-77740761D01*
X85578923Y-77762128D01*
X85652214Y-77784837D01*
X85726686Y-77807860D01*
X85798996Y-77830167D01*
X85865802Y-77850728D01*
X85923762Y-77868512D01*
X85969532Y-77882491D01*
X85999769Y-77891634D01*
X86002917Y-77892572D01*
X86041075Y-77903971D01*
X86084511Y-77917046D01*
X86101977Y-77922334D01*
X86144813Y-77935299D01*
X86190161Y-77948971D01*
X86206117Y-77953765D01*
X86273045Y-77973911D01*
X86330807Y-77991481D01*
X86389007Y-78009416D01*
X86455037Y-78029965D01*
X86524792Y-78051688D01*
X86578523Y-78068280D01*
X86619574Y-78080740D01*
X86651294Y-78090070D01*
X86677027Y-78097272D01*
X86700122Y-78103346D01*
X86701417Y-78103676D01*
X86727544Y-78111685D01*
X86742894Y-78119016D01*
X86744597Y-78121286D01*
X86750790Y-78132211D01*
X86766421Y-78152076D01*
X86775077Y-78162045D01*
X86793419Y-78183784D01*
X86804282Y-78198967D01*
X86805557Y-78202078D01*
X86811792Y-78212765D01*
X86827044Y-78231117D01*
X86829428Y-78233717D01*
X86849847Y-78258284D01*
X86873119Y-78289789D01*
X86881578Y-78302193D01*
X86899092Y-78326668D01*
X86912689Y-78342129D01*
X86917114Y-78344925D01*
X86926813Y-78352894D01*
X86933544Y-78364075D01*
X86945422Y-78382982D01*
X86965123Y-78409166D01*
X86976089Y-78422495D01*
X86997755Y-78449052D01*
X87026294Y-78485464D01*
X87056594Y-78525174D01*
X87066166Y-78537965D01*
X87091589Y-78571747D01*
X87112651Y-78599028D01*
X87126303Y-78615893D01*
X87129458Y-78619245D01*
X87138114Y-78629098D01*
X87155897Y-78651341D01*
X87179744Y-78682103D01*
X87193989Y-78700793D01*
X87221623Y-78736821D01*
X87246623Y-78768634D01*
X87265105Y-78791323D01*
X87270321Y-78797313D01*
X87288217Y-78818822D01*
X87309246Y-78846687D01*
X87313688Y-78852925D01*
X87332602Y-78879376D01*
X87350767Y-78903359D01*
X87373271Y-78931435D01*
X87395551Y-78958515D01*
X87417202Y-78985478D01*
X87443193Y-79018907D01*
X87456511Y-79036435D01*
X87484737Y-79073009D01*
X87516070Y-79112230D01*
X87528934Y-79127875D01*
X87557338Y-79162946D01*
X87588479Y-79202837D01*
X87604314Y-79223765D01*
X87648683Y-79282683D01*
X87694675Y-79342178D01*
X87747936Y-79409550D01*
X87750437Y-79412686D01*
X87777702Y-79447031D01*
X87803790Y-79480149D01*
X87821557Y-79502943D01*
X87844538Y-79532465D01*
X87870547Y-79565507D01*
X87877437Y-79574190D01*
X87904168Y-79608056D01*
X87939062Y-79652633D01*
X87978581Y-79703360D01*
X88019185Y-79755677D01*
X88057332Y-79805025D01*
X88089483Y-79846844D01*
X88109505Y-79873131D01*
X88135410Y-79906506D01*
X88161180Y-79938244D01*
X88175781Y-79955285D01*
X88200488Y-79985036D01*
X88224956Y-80017576D01*
X88227575Y-80021325D01*
X88249629Y-80050834D01*
X88272195Y-80077522D01*
X88275599Y-80081130D01*
X88294655Y-80104648D01*
X88297617Y-80118674D01*
X88286377Y-80122249D01*
X88277666Y-80115090D01*
X88255593Y-80094408D01*
X88221089Y-80061129D01*
X88175084Y-80016174D01*
X88118509Y-79960467D01*
X88052293Y-79894931D01*
X87977367Y-79820488D01*
X87894662Y-79738063D01*
X87805107Y-79648577D01*
X87709634Y-79552953D01*
X87609172Y-79452116D01*
X87504651Y-79346987D01*
X87485032Y-79327229D01*
X86696387Y-78532885D01*
X86514752Y-78493629D01*
X86453085Y-78480370D01*
X86395038Y-78468015D01*
X86344852Y-78457457D01*
X86306765Y-78449589D01*
X86287397Y-78445745D01*
X86256708Y-78439652D01*
X86213594Y-78430711D01*
X86165467Y-78420469D01*
X86145157Y-78416067D01*
X86091626Y-78404455D01*
X86034623Y-78392188D01*
X85984330Y-78381455D01*
X85972437Y-78378939D01*
X85900761Y-78363789D01*
X85842779Y-78351456D01*
X85792294Y-78340600D01*
X85743109Y-78329879D01*
X85689027Y-78317952D01*
X85626997Y-78304178D01*
X85570655Y-78291755D01*
X85517458Y-78280223D01*
X85472426Y-78270659D01*
X85440580Y-78264135D01*
X85433957Y-78262859D01*
X85413912Y-78259001D01*
X85388654Y-78253904D01*
X85355610Y-78247022D01*
X85312207Y-78237813D01*
X85255872Y-78225730D01*
X85184034Y-78210230D01*
X85124077Y-78197256D01*
X85029460Y-78176843D01*
X84950059Y-78159888D01*
X84881260Y-78145410D01*
X84844677Y-78137819D01*
X84805403Y-78129561D01*
X84752807Y-78118290D01*
X84693399Y-78105409D01*
X84633691Y-78092324D01*
X84626237Y-78090680D01*
X84568521Y-78078149D01*
X84511740Y-78066201D01*
X84461838Y-78056061D01*
X84424764Y-78048957D01*
X84420010Y-78048113D01*
X84356024Y-78036959D01*
X84315344Y-77969962D01*
X84293985Y-77934750D01*
X84275420Y-77904084D01*
X84263315Y-77884019D01*
X84262490Y-77882645D01*
X84250748Y-77864588D01*
X84244903Y-77857245D01*
X84237124Y-77846375D01*
X84222609Y-77823524D01*
X84209142Y-77801365D01*
X84190174Y-77769641D01*
X84173800Y-77742305D01*
X84166557Y-77730245D01*
X84154467Y-77709913D01*
X84137017Y-77680281D01*
X84126118Y-77661675D01*
X84109297Y-77635069D01*
X84095779Y-77617541D01*
X84090297Y-77613415D01*
X84083527Y-77605141D01*
X84082677Y-77598165D01*
X84077776Y-77584635D01*
X84073618Y-77582925D01*
X84064674Y-77574314D01*
X84058184Y-77557525D01*
X84050026Y-77538496D01*
X84041843Y-77532125D01*
X84032381Y-77524219D01*
X84031877Y-77520608D01*
X84026744Y-77508585D01*
X84012964Y-77483478D01*
X83992959Y-77449238D01*
X83969153Y-77409820D01*
X83943970Y-77369176D01*
X83919835Y-77331259D01*
X83899171Y-77300023D01*
X83884402Y-77279420D01*
X83882706Y-77277324D01*
X83871190Y-77261055D01*
X83870366Y-77251382D01*
X83881873Y-77248370D01*
X83907352Y-77252085D01*
G36*
X94562717Y-81530085D02*
G01*
X94565336Y-82137145D01*
X94567956Y-82744205D01*
X94242677Y-82744205D01*
X94242677Y-81524489D01*
X94562717Y-81530085D01*
G37*
X94562717Y-81530085D02*
X94565336Y-82137145D01*
X94567956Y-82744205D01*
X94242677Y-82744205D01*
X94242677Y-81524489D01*
X94562717Y-81530085D01*
G36*
X83395710Y-76459390D02*
G01*
X83421193Y-76471197D01*
X83459453Y-76489284D01*
X83507739Y-76512349D01*
X83563301Y-76539089D01*
X83581331Y-76547804D01*
X83645061Y-76578579D01*
X83708455Y-76609086D01*
X83767094Y-76637204D01*
X83816560Y-76660816D01*
X83852432Y-76677802D01*
X83854077Y-76678574D01*
X83894171Y-76697510D01*
X83946333Y-76722326D01*
X84004341Y-76750053D01*
X84061970Y-76777722D01*
X84072517Y-76782802D01*
X84141828Y-76816153D01*
X84209778Y-76848732D01*
X84280608Y-76882565D01*
X84358563Y-76919675D01*
X84447885Y-76962088D01*
X84514477Y-76993660D01*
X84566029Y-77018159D01*
X84627518Y-77047483D01*
X84690575Y-77077638D01*
X84737997Y-77100381D01*
X84840634Y-77149617D01*
X84953249Y-77203519D01*
X85067446Y-77258071D01*
X85174830Y-77309260D01*
X85205357Y-77323787D01*
X85250513Y-77345309D01*
X85306965Y-77372279D01*
X85367695Y-77401340D01*
X85425684Y-77429137D01*
X85428877Y-77430669D01*
X85486474Y-77458251D01*
X85547227Y-77487242D01*
X85604122Y-77514302D01*
X85650143Y-77536088D01*
X85652397Y-77537150D01*
X85698341Y-77558909D01*
X85755237Y-77586010D01*
X85815742Y-77614950D01*
X85870837Y-77641417D01*
X85979050Y-77693522D01*
X86070845Y-77737678D01*
X86148094Y-77774781D01*
X86212672Y-77805729D01*
X86266454Y-77831418D01*
X86311311Y-77852747D01*
X86349120Y-77870612D01*
X86368677Y-77879797D01*
X86456431Y-77921128D01*
X86526871Y-77954828D01*
X86581242Y-77981534D01*
X86620793Y-78001881D01*
X86646769Y-78016508D01*
X86660419Y-78026049D01*
X86663317Y-78030228D01*
X86655282Y-78038691D01*
X86632892Y-78035898D01*
X86617597Y-78030472D01*
X86598271Y-78023656D01*
X86565919Y-78013268D01*
X86527030Y-78001382D01*
X86521077Y-77999611D01*
X86477845Y-77986638D01*
X86436384Y-77973927D01*
X86405346Y-77964134D01*
X86404237Y-77963773D01*
X86371241Y-77953446D01*
X86329800Y-77941048D01*
X86302637Y-77933189D01*
X86259615Y-77920508D01*
X86209429Y-77905068D01*
X86170557Y-77892671D01*
X86129141Y-77879435D01*
X86076597Y-77863023D01*
X86021279Y-77846030D01*
X85992757Y-77837396D01*
X85923667Y-77816538D01*
X85852535Y-77794926D01*
X85783266Y-77773760D01*
X85719767Y-77754237D01*
X85665942Y-77737556D01*
X85625697Y-77724917D01*
X85611757Y-77720445D01*
X85581462Y-77710879D01*
X85540320Y-77698246D01*
X85496978Y-77685200D01*
X85494917Y-77684586D01*
X85448413Y-77670580D01*
X85400572Y-77655875D01*
X85362837Y-77644001D01*
X85319803Y-77630524D01*
X85271356Y-77615831D01*
X85245997Y-77608351D01*
X85183751Y-77589946D01*
X85115771Y-77569326D01*
X85051348Y-77549336D01*
X85012317Y-77536904D01*
X84983269Y-77527687D01*
X84937597Y-77513427D01*
X84878115Y-77494995D01*
X84807640Y-77473258D01*
X84728987Y-77449086D01*
X84644972Y-77423347D01*
X84585597Y-77405205D01*
X84536469Y-77390143D01*
X84492393Y-77376506D01*
X84458137Y-77365777D01*
X84438470Y-77359440D01*
X84438277Y-77359375D01*
X84416248Y-77352393D01*
X84381686Y-77341967D01*
X84341603Y-77330206D01*
X84336677Y-77328783D01*
X84293389Y-77316070D01*
X84251887Y-77303497D01*
X84220857Y-77293698D01*
X84219837Y-77293361D01*
X84184637Y-77281979D01*
X84137663Y-77267157D01*
X84083582Y-77250330D01*
X84027066Y-77232928D01*
X83972783Y-77216387D01*
X83925404Y-77202138D01*
X83889599Y-77191614D01*
X83874397Y-77187358D01*
X83847954Y-77179735D01*
X83829022Y-77171112D01*
X83813370Y-77157592D01*
X83796766Y-77135276D01*
X83774980Y-77100269D01*
X83768883Y-77090165D01*
X83741493Y-77044758D01*
X83722485Y-77013499D01*
X83709757Y-76993127D01*
X83701209Y-76980381D01*
X83694738Y-76972003D01*
X83688244Y-76964731D01*
X83687565Y-76963997D01*
X83673259Y-76943983D01*
X83659016Y-76917847D01*
X83644006Y-76888759D01*
X83623133Y-76852189D01*
X83599002Y-76812250D01*
X83574222Y-76773056D01*
X83551399Y-76738719D01*
X83533141Y-76713354D01*
X83522054Y-76701074D01*
X83521383Y-76700698D01*
X83513908Y-76689031D01*
X83513717Y-76686558D01*
X83508546Y-76673835D01*
X83494873Y-76648776D01*
X83475459Y-76615809D01*
X83453063Y-76579367D01*
X83430445Y-76543876D01*
X83410364Y-76513768D01*
X83395582Y-76493473D01*
X83389593Y-76487338D01*
X83383355Y-76477553D01*
X83381563Y-76462887D01*
X83385630Y-76455167D01*
X83385751Y-76455165D01*
X83395710Y-76459390D01*
G37*
X83395710Y-76459390D02*
X83421193Y-76471197D01*
X83459453Y-76489284D01*
X83507739Y-76512349D01*
X83563301Y-76539089D01*
X83581331Y-76547804D01*
X83645061Y-76578579D01*
X83708455Y-76609086D01*
X83767094Y-76637204D01*
X83816560Y-76660816D01*
X83852432Y-76677802D01*
X83854077Y-76678574D01*
X83894171Y-76697510D01*
X83946333Y-76722326D01*
X84004341Y-76750053D01*
X84061970Y-76777722D01*
X84072517Y-76782802D01*
X84141828Y-76816153D01*
X84209778Y-76848732D01*
X84280608Y-76882565D01*
X84358563Y-76919675D01*
X84447885Y-76962088D01*
X84514477Y-76993660D01*
X84566029Y-77018159D01*
X84627518Y-77047483D01*
X84690575Y-77077638D01*
X84737997Y-77100381D01*
X84840634Y-77149617D01*
X84953249Y-77203519D01*
X85067446Y-77258071D01*
X85174830Y-77309260D01*
X85205357Y-77323787D01*
X85250513Y-77345309D01*
X85306965Y-77372279D01*
X85367695Y-77401340D01*
X85425684Y-77429137D01*
X85428877Y-77430669D01*
X85486474Y-77458251D01*
X85547227Y-77487242D01*
X85604122Y-77514302D01*
X85650143Y-77536088D01*
X85652397Y-77537150D01*
X85698341Y-77558909D01*
X85755237Y-77586010D01*
X85815742Y-77614950D01*
X85870837Y-77641417D01*
X85979050Y-77693522D01*
X86070845Y-77737678D01*
X86148094Y-77774781D01*
X86212672Y-77805729D01*
X86266454Y-77831418D01*
X86311311Y-77852747D01*
X86349120Y-77870612D01*
X86368677Y-77879797D01*
X86456431Y-77921128D01*
X86526871Y-77954828D01*
X86581242Y-77981534D01*
X86620793Y-78001881D01*
X86646769Y-78016508D01*
X86660419Y-78026049D01*
X86663317Y-78030228D01*
X86655282Y-78038691D01*
X86632892Y-78035898D01*
X86617597Y-78030472D01*
X86598271Y-78023656D01*
X86565919Y-78013268D01*
X86527030Y-78001382D01*
X86521077Y-77999611D01*
X86477845Y-77986638D01*
X86436384Y-77973927D01*
X86405346Y-77964134D01*
X86404237Y-77963773D01*
X86371241Y-77953446D01*
X86329800Y-77941048D01*
X86302637Y-77933189D01*
X86259615Y-77920508D01*
X86209429Y-77905068D01*
X86170557Y-77892671D01*
X86129141Y-77879435D01*
X86076597Y-77863023D01*
X86021279Y-77846030D01*
X85992757Y-77837396D01*
X85923667Y-77816538D01*
X85852535Y-77794926D01*
X85783266Y-77773760D01*
X85719767Y-77754237D01*
X85665942Y-77737556D01*
X85625697Y-77724917D01*
X85611757Y-77720445D01*
X85581462Y-77710879D01*
X85540320Y-77698246D01*
X85496978Y-77685200D01*
X85494917Y-77684586D01*
X85448413Y-77670580D01*
X85400572Y-77655875D01*
X85362837Y-77644001D01*
X85319803Y-77630524D01*
X85271356Y-77615831D01*
X85245997Y-77608351D01*
X85183751Y-77589946D01*
X85115771Y-77569326D01*
X85051348Y-77549336D01*
X85012317Y-77536904D01*
X84983269Y-77527687D01*
X84937597Y-77513427D01*
X84878115Y-77494995D01*
X84807640Y-77473258D01*
X84728987Y-77449086D01*
X84644972Y-77423347D01*
X84585597Y-77405205D01*
X84536469Y-77390143D01*
X84492393Y-77376506D01*
X84458137Y-77365777D01*
X84438470Y-77359440D01*
X84438277Y-77359375D01*
X84416248Y-77352393D01*
X84381686Y-77341967D01*
X84341603Y-77330206D01*
X84336677Y-77328783D01*
X84293389Y-77316070D01*
X84251887Y-77303497D01*
X84220857Y-77293698D01*
X84219837Y-77293361D01*
X84184637Y-77281979D01*
X84137663Y-77267157D01*
X84083582Y-77250330D01*
X84027066Y-77232928D01*
X83972783Y-77216387D01*
X83925404Y-77202138D01*
X83889599Y-77191614D01*
X83874397Y-77187358D01*
X83847954Y-77179735D01*
X83829022Y-77171112D01*
X83813370Y-77157592D01*
X83796766Y-77135276D01*
X83774980Y-77100269D01*
X83768883Y-77090165D01*
X83741493Y-77044758D01*
X83722485Y-77013499D01*
X83709757Y-76993127D01*
X83701209Y-76980381D01*
X83694738Y-76972003D01*
X83688244Y-76964731D01*
X83687565Y-76963997D01*
X83673259Y-76943983D01*
X83659016Y-76917847D01*
X83644006Y-76888759D01*
X83623133Y-76852189D01*
X83599002Y-76812250D01*
X83574222Y-76773056D01*
X83551399Y-76738719D01*
X83533141Y-76713354D01*
X83522054Y-76701074D01*
X83521383Y-76700698D01*
X83513908Y-76689031D01*
X83513717Y-76686558D01*
X83508546Y-76673835D01*
X83494873Y-76648776D01*
X83475459Y-76615809D01*
X83453063Y-76579367D01*
X83430445Y-76543876D01*
X83410364Y-76513768D01*
X83395582Y-76493473D01*
X83389593Y-76487338D01*
X83383355Y-76477553D01*
X83381563Y-76462887D01*
X83385630Y-76455167D01*
X83385751Y-76455165D01*
X83395710Y-76459390D01*
G36*
X85095741Y-81527287D02*
G01*
X85255366Y-81530085D01*
X85540241Y-81895845D01*
X85825117Y-82261605D01*
X85827784Y-81893047D01*
X85830451Y-81524490D01*
X85990344Y-81527287D01*
X86150237Y-81530085D01*
X86155477Y-82744709D01*
X85825909Y-82739125D01*
X85256157Y-82007605D01*
X85250823Y-82744205D01*
X84936117Y-82744205D01*
X84936117Y-81524489D01*
X85095741Y-81527287D01*
G37*
X85095741Y-81527287D02*
X85255366Y-81530085D01*
X85540241Y-81895845D01*
X85825117Y-82261605D01*
X85827784Y-81893047D01*
X85830451Y-81524490D01*
X85990344Y-81527287D01*
X86150237Y-81530085D01*
X86155477Y-82744709D01*
X85825909Y-82739125D01*
X85256157Y-82007605D01*
X85250823Y-82744205D01*
X84936117Y-82744205D01*
X84936117Y-81524489D01*
X85095741Y-81527287D01*
G36*
X82698472Y-75311861D02*
G01*
X82722637Y-75324564D01*
X82755112Y-75342752D01*
X82765940Y-75349002D01*
X82804786Y-75371556D01*
X82841212Y-75392675D01*
X82868194Y-75408287D01*
X82871096Y-75409962D01*
X82904380Y-75429168D01*
X82937136Y-75448087D01*
X82956554Y-75459241D01*
X82990076Y-75478426D01*
X83034150Y-75503613D01*
X83085226Y-75532772D01*
X83132717Y-75559862D01*
X83185420Y-75589983D01*
X83232694Y-75617130D01*
X83271427Y-75639506D01*
X83298506Y-75655314D01*
X83310517Y-75662554D01*
X83329370Y-75673733D01*
X83356180Y-75688391D01*
X83361317Y-75691089D01*
X83383742Y-75703170D01*
X83419121Y-75722681D01*
X83462744Y-75747008D01*
X83509901Y-75773536D01*
X83513717Y-75775693D01*
X83560940Y-75802227D01*
X83605012Y-75826688D01*
X83641228Y-75846483D01*
X83664882Y-75859020D01*
X83666117Y-75859645D01*
X83695153Y-75874697D01*
X83719571Y-75888078D01*
X83721997Y-75889488D01*
X83738269Y-75898595D01*
X83768456Y-75915074D01*
X83808538Y-75936745D01*
X83854495Y-75961427D01*
X83864237Y-75966639D01*
X83913290Y-75992917D01*
X83959625Y-76017826D01*
X83998371Y-76038742D01*
X84024659Y-76053041D01*
X84026797Y-76054216D01*
X84067967Y-76076380D01*
X84124777Y-76106209D01*
X84194635Y-76142395D01*
X84274948Y-76183632D01*
X84363127Y-76228610D01*
X84456578Y-76276023D01*
X84552709Y-76324561D01*
X84648930Y-76372919D01*
X84742649Y-76419787D01*
X84831273Y-76463857D01*
X84912211Y-76503823D01*
X84982871Y-76538376D01*
X85040661Y-76566207D01*
X85052957Y-76572039D01*
X85142916Y-76614223D01*
X85246608Y-76662321D01*
X85359157Y-76714087D01*
X85475686Y-76767278D01*
X85571117Y-76810531D01*
X85695221Y-76865611D01*
X85830438Y-76923898D01*
X85970930Y-76982968D01*
X86110859Y-77040398D01*
X86244389Y-77093762D01*
X86365682Y-77140637D01*
X86368677Y-77141769D01*
X86421200Y-77161702D01*
X86468211Y-77179721D01*
X86505852Y-77194333D01*
X86530263Y-77204046D01*
X86536317Y-77206606D01*
X86565989Y-77218669D01*
X86611883Y-77235614D01*
X86670786Y-77256387D01*
X86739487Y-77279936D01*
X86814771Y-77305209D01*
X86893427Y-77331152D01*
X86972243Y-77356713D01*
X87048005Y-77380840D01*
X87117502Y-77402480D01*
X87177521Y-77420580D01*
X87224849Y-77434087D01*
X87250988Y-77440781D01*
X87305260Y-77453318D01*
X87391676Y-77632421D01*
X87424598Y-77700527D01*
X87463173Y-77780129D01*
X87504124Y-77864472D01*
X87544169Y-77946800D01*
X87577280Y-78014725D01*
X87609687Y-78081212D01*
X87642323Y-78148343D01*
X87673000Y-78211602D01*
X87699529Y-78266476D01*
X87719721Y-78308448D01*
X87722590Y-78314445D01*
X87743208Y-78357589D01*
X87769845Y-78413324D01*
X87799755Y-78475907D01*
X87830193Y-78539594D01*
X87846410Y-78573525D01*
X87876858Y-78636869D01*
X87913157Y-78711819D01*
X87952102Y-78791788D01*
X87990485Y-78870192D01*
X88020152Y-78930432D01*
X88048603Y-78988516D01*
X88073707Y-79040750D01*
X88094139Y-79084293D01*
X88108572Y-79116307D01*
X88115683Y-79133953D01*
X88116197Y-79136172D01*
X88123229Y-79147009D01*
X88126357Y-79147565D01*
X88135814Y-79155578D01*
X88136517Y-79160175D01*
X88140747Y-79174846D01*
X88151944Y-79202225D01*
X88167863Y-79236906D01*
X88171295Y-79243995D01*
X88186909Y-79276099D01*
X88209218Y-79322151D01*
X88236112Y-79377785D01*
X88265481Y-79438637D01*
X88294127Y-79498085D01*
X88328624Y-79569568D01*
X88367201Y-79649237D01*
X88406327Y-79729818D01*
X88442474Y-79804038D01*
X88462548Y-79845117D01*
X88488377Y-79898465D01*
X88510760Y-79945826D01*
X88528260Y-79984067D01*
X88539442Y-80010057D01*
X88542917Y-80020377D01*
X88550100Y-80030995D01*
X88553077Y-80031485D01*
X88562619Y-80039449D01*
X88563237Y-80043597D01*
X88567408Y-80058682D01*
X88578282Y-80085220D01*
X88593396Y-80118197D01*
X88610291Y-80152602D01*
X88626503Y-80183423D01*
X88639572Y-80205650D01*
X88647037Y-80214269D01*
X88647057Y-80214269D01*
X88654291Y-80206409D01*
X88654677Y-80202786D01*
X88658948Y-80190079D01*
X88670734Y-80162588D01*
X88688495Y-80123719D01*
X88710690Y-80076877D01*
X88724768Y-80047846D01*
X88754896Y-79986035D01*
X88790108Y-79913499D01*
X88826718Y-79837843D01*
X88861044Y-79766674D01*
X88872945Y-79741925D01*
X88903513Y-79678566D01*
X88936035Y-79611632D01*
X88967462Y-79547368D01*
X88994742Y-79492022D01*
X89006053Y-79469288D01*
X89027434Y-79425377D01*
X89044939Y-79387264D01*
X89056756Y-79359043D01*
X89061077Y-79344828D01*
X89066845Y-79331866D01*
X89071237Y-79330445D01*
X89081048Y-79322667D01*
X89081397Y-79319942D01*
X89085694Y-79308138D01*
X89097733Y-79280869D01*
X89116236Y-79240881D01*
X89139925Y-79190916D01*
X89167519Y-79133719D01*
X89182001Y-79104042D01*
X89213715Y-79039086D01*
X89244730Y-78975184D01*
X89273115Y-78916347D01*
X89296935Y-78866583D01*
X89314259Y-78829903D01*
X89317718Y-78822445D01*
X89331271Y-78793284D01*
X89347677Y-78758483D01*
X89367748Y-78716358D01*
X89392295Y-78665228D01*
X89422129Y-78603412D01*
X89458059Y-78529228D01*
X89500898Y-78440993D01*
X89551455Y-78337025D01*
X89579751Y-78278885D01*
X89612125Y-78212222D01*
X89646182Y-78141822D01*
X89679133Y-78073472D01*
X89708184Y-78012961D01*
X89726743Y-77974085D01*
X89754771Y-77915309D01*
X89787476Y-77846988D01*
X89820671Y-77777858D01*
X89848512Y-77720085D01*
X89874431Y-77666182D01*
X89899974Y-77612638D01*
X89922461Y-77565096D01*
X89939213Y-77529199D01*
X89941353Y-77524538D01*
X89952151Y-77500599D01*
X89961292Y-77483023D01*
X89972004Y-77469909D01*
X89987515Y-77459357D01*
X90011051Y-77449466D01*
X90045838Y-77438334D01*
X90095105Y-77424060D01*
X90127877Y-77414662D01*
X90253771Y-77376534D01*
X90394685Y-77330525D01*
X90547459Y-77277832D01*
X90708935Y-77219650D01*
X90875953Y-77157179D01*
X91045353Y-77091613D01*
X91213977Y-77024150D01*
X91378663Y-76955987D01*
X91536254Y-76888320D01*
X91644695Y-76840063D01*
X91687699Y-76820738D01*
X91723435Y-76804930D01*
X91748146Y-76794284D01*
X91758056Y-76790445D01*
X91768201Y-76786421D01*
X91792820Y-76775525D01*
X91827992Y-76759516D01*
X91861757Y-76743900D01*
X91904653Y-76723956D01*
X91960623Y-76697965D01*
X92024301Y-76668416D01*
X92090322Y-76637800D01*
X92139557Y-76614983D01*
X92183693Y-76594126D01*
X92243393Y-76565299D01*
X92316120Y-76529772D01*
X92399339Y-76488812D01*
X92490514Y-76443686D01*
X92587107Y-76395661D01*
X92686584Y-76346006D01*
X92786408Y-76295988D01*
X92884044Y-76246874D01*
X92976954Y-76199932D01*
X93062603Y-76156430D01*
X93138455Y-76117635D01*
X93201974Y-76084815D01*
X93236837Y-76066552D01*
X93308937Y-76028165D01*
X93394704Y-75981991D01*
X93490113Y-75930236D01*
X93591135Y-75875104D01*
X93693745Y-75818798D01*
X93793915Y-75763523D01*
X93887618Y-75711484D01*
X93970828Y-75664885D01*
X93978517Y-75660553D01*
X94036543Y-75627809D01*
X94082067Y-75602038D01*
X94120306Y-75580265D01*
X94156477Y-75559517D01*
X94195797Y-75536820D01*
X94208443Y-75529501D01*
X94304950Y-75473728D01*
X94385279Y-75427546D01*
X94450759Y-75390226D01*
X94502715Y-75361041D01*
X94542476Y-75339260D01*
X94571369Y-75324157D01*
X94590721Y-75315002D01*
X94601859Y-75311066D01*
X94605883Y-75311304D01*
X94606107Y-75323901D01*
X94596924Y-75344669D01*
X94596267Y-75345761D01*
X94582794Y-75368283D01*
X94563320Y-75401377D01*
X94541983Y-75438008D01*
X94541313Y-75439165D01*
X94515181Y-75483147D01*
X94484777Y-75532666D01*
X94459232Y-75573024D01*
X94438580Y-75606272D01*
X94423162Y-75633562D01*
X94415701Y-75650006D01*
X94415397Y-75651764D01*
X94409728Y-75662253D01*
X94407547Y-75662685D01*
X94398424Y-75670845D01*
X94384920Y-75691315D01*
X94379704Y-75700785D01*
X94366156Y-75725560D01*
X94356331Y-75741674D01*
X94354534Y-75743965D01*
X94345749Y-75755938D01*
X94337384Y-75769365D01*
X94327597Y-75785508D01*
X94309554Y-75814857D01*
X94285746Y-75853372D01*
X94258665Y-75897014D01*
X94256104Y-75901134D01*
X94229100Y-75945280D01*
X94205603Y-75985036D01*
X94188000Y-76016269D01*
X94178680Y-76034846D01*
X94178330Y-76035754D01*
X94168462Y-76053549D01*
X94160550Y-76058925D01*
X94151559Y-76066733D01*
X94151237Y-76069485D01*
X94145913Y-76082930D01*
X94132064Y-76107320D01*
X94115677Y-76132850D01*
X94096985Y-76162406D01*
X94084106Y-76186218D01*
X94080117Y-76197642D01*
X94073794Y-76211467D01*
X94071120Y-76213018D01*
X94062181Y-76222708D01*
X94045836Y-76245790D01*
X94024945Y-76278118D01*
X94014480Y-76295145D01*
X93992557Y-76329890D01*
X93973869Y-76356801D01*
X93961227Y-76371947D01*
X93958139Y-76373885D01*
X93946260Y-76378031D01*
X93919650Y-76389412D01*
X93881881Y-76406438D01*
X93836528Y-76427520D01*
X93821037Y-76434845D01*
X93774502Y-76456815D01*
X93734934Y-76475267D01*
X93705744Y-76488628D01*
X93690338Y-76495325D01*
X93688854Y-76495805D01*
X93678606Y-76499822D01*
X93654286Y-76510589D01*
X93620199Y-76526181D01*
X93600657Y-76535269D01*
X93543645Y-76561805D01*
X93470891Y-76595480D01*
X93385150Y-76635023D01*
X93289178Y-76679164D01*
X93206357Y-76717174D01*
X93090358Y-76770402D01*
X92986897Y-76817989D01*
X92893427Y-76861146D01*
X92807402Y-76901084D01*
X92726278Y-76939014D01*
X92647508Y-76976147D01*
X92568546Y-77013694D01*
X92486847Y-77052866D01*
X92399865Y-77094874D01*
X92305055Y-77140928D01*
X92199869Y-77192241D01*
X92081763Y-77250022D01*
X91948192Y-77315482D01*
X91936357Y-77321286D01*
X91861184Y-77358095D01*
X91785813Y-77394905D01*
X91713918Y-77429928D01*
X91649174Y-77461376D01*
X91595257Y-77487461D01*
X91555841Y-77506396D01*
X91555357Y-77506627D01*
X91514156Y-77526402D01*
X91458846Y-77553128D01*
X91393558Y-77584799D01*
X91322422Y-77619409D01*
X91249570Y-77654952D01*
X91204837Y-77676830D01*
X91123538Y-77716626D01*
X91032641Y-77761112D01*
X90938623Y-77807118D01*
X90847961Y-77851475D01*
X90767132Y-77891014D01*
X90745814Y-77901440D01*
X90672974Y-77937402D01*
X90616486Y-77966176D01*
X90574212Y-77989002D01*
X90544017Y-78007123D01*
X90523763Y-78021779D01*
X90511313Y-78034210D01*
X90507404Y-78039882D01*
X90493440Y-78060361D01*
X90482934Y-78070399D01*
X90481971Y-78070605D01*
X90473308Y-78078902D01*
X90468708Y-78089438D01*
X90458864Y-78107076D01*
X90439732Y-78132831D01*
X90422680Y-78152938D01*
X90398164Y-78182121D01*
X90377898Y-78209459D01*
X90369553Y-78223005D01*
X90352890Y-78249264D01*
X90333288Y-78273805D01*
X90315133Y-78295917D01*
X90291611Y-78327459D01*
X90272328Y-78355016D01*
X90251364Y-78385435D01*
X90233892Y-78409800D01*
X90224397Y-78421987D01*
X90216704Y-78430939D01*
X90205695Y-78444786D01*
X90189799Y-78465620D01*
X90167446Y-78495535D01*
X90137065Y-78536625D01*
X90097086Y-78590982D01*
X90072616Y-78624325D01*
X90037305Y-78672236D01*
X90003969Y-78717062D01*
X89975446Y-78755018D01*
X89954572Y-78782317D01*
X89947660Y-78791071D01*
X89926146Y-78818499D01*
X89907724Y-78843372D01*
X89904357Y-78848218D01*
X89875418Y-78890615D01*
X89856285Y-78917913D01*
X89845621Y-78932007D01*
X89843606Y-78934205D01*
X89834136Y-78945760D01*
X89813886Y-78972384D01*
X89783925Y-79012640D01*
X89745322Y-79065088D01*
X89699146Y-79128292D01*
X89692511Y-79137405D01*
X89665478Y-79174429D01*
X89642308Y-79205949D01*
X89625981Y-79227922D01*
X89620185Y-79235500D01*
X89609740Y-79249105D01*
X89589090Y-79276538D01*
X89560103Y-79315284D01*
X89524647Y-79362825D01*
X89484591Y-79416647D01*
X89441802Y-79474231D01*
X89398148Y-79533062D01*
X89355496Y-79590624D01*
X89315715Y-79644400D01*
X89280672Y-79691873D01*
X89252236Y-79730528D01*
X89232274Y-79757847D01*
X89225992Y-79766558D01*
X89210951Y-79787121D01*
X89189006Y-79816562D01*
X89164187Y-79849543D01*
X89140523Y-79880724D01*
X89122045Y-79904765D01*
X89114224Y-79914645D01*
X89104736Y-79927463D01*
X89087226Y-79952168D01*
X89065145Y-79983879D01*
X89060603Y-79990461D01*
X89036242Y-80024965D01*
X89013851Y-80055223D01*
X88997835Y-80075304D01*
X88996483Y-80076821D01*
X88979210Y-80098363D01*
X88958570Y-80127503D01*
X88951715Y-80137938D01*
X88933786Y-80164944D01*
X88918839Y-80185809D01*
X88914708Y-80190926D01*
X88907987Y-80198651D01*
X88900582Y-80207641D01*
X88890079Y-80221000D01*
X88874063Y-80241836D01*
X88850122Y-80273253D01*
X88823448Y-80308345D01*
X88763620Y-80387085D01*
X88643509Y-80387085D01*
X88583775Y-80386168D01*
X88542814Y-80383321D01*
X88519153Y-80378404D01*
X88512637Y-80374385D01*
X88479647Y-80334743D01*
X88459614Y-80308917D01*
X88451694Y-80295807D01*
X88451489Y-80294659D01*
X88445519Y-80283328D01*
X88433063Y-80267363D01*
X88412237Y-80241721D01*
X88397963Y-80222628D01*
X88387743Y-80208606D01*
X88367711Y-80181424D01*
X88339988Y-80143934D01*
X88306692Y-80098993D01*
X88269945Y-80049453D01*
X88231864Y-79998169D01*
X88194571Y-79947996D01*
X88160185Y-79901787D01*
X88130825Y-79862398D01*
X88108613Y-79832682D01*
X88095666Y-79815493D01*
X88093779Y-79813045D01*
X88083924Y-79799896D01*
X88066268Y-79775821D01*
X88047646Y-79750187D01*
X88023106Y-79716301D01*
X88003040Y-79688713D01*
X87984345Y-79663217D01*
X87963917Y-79635606D01*
X87938652Y-79601674D01*
X87905446Y-79557216D01*
X87890745Y-79537549D01*
X87858341Y-79494149D01*
X87828962Y-79454700D01*
X87805446Y-79423019D01*
X87790631Y-79402926D01*
X87788785Y-79400389D01*
X87764268Y-79366813D01*
X87732811Y-79324180D01*
X87696452Y-79275207D01*
X87657229Y-79222610D01*
X87617181Y-79169106D01*
X87578346Y-79117412D01*
X87542762Y-79070245D01*
X87512469Y-79030320D01*
X87489503Y-79000355D01*
X87475905Y-78983067D01*
X87473768Y-78980549D01*
X87460274Y-78963478D01*
X87455797Y-78954163D01*
X87449904Y-78942233D01*
X87438017Y-78926455D01*
X87410754Y-78893731D01*
X87391827Y-78869447D01*
X87376073Y-78846856D01*
X87370251Y-78837945D01*
X87354512Y-78814523D01*
X87342428Y-78798135D01*
X87341730Y-78797309D01*
X87332895Y-78785929D01*
X87314749Y-78761805D01*
X87289994Y-78728583D01*
X87261330Y-78689909D01*
X87231458Y-78649430D01*
X87203078Y-78610790D01*
X87178892Y-78577637D01*
X87173337Y-78569971D01*
X87155883Y-78546453D01*
X87133917Y-78517622D01*
X87128137Y-78510153D01*
X87111256Y-78487178D01*
X87101289Y-78471182D01*
X87100149Y-78467987D01*
X87093830Y-78457302D01*
X87078108Y-78438200D01*
X87071839Y-78431285D01*
X87046814Y-78401015D01*
X87023389Y-78367746D01*
X87021351Y-78364474D01*
X87000350Y-78333581D01*
X86977917Y-78305341D01*
X86974978Y-78302087D01*
X86952613Y-78274859D01*
X86930985Y-78244002D01*
X86929666Y-78241897D01*
X86910502Y-78213635D01*
X86891606Y-78189630D01*
X86889629Y-78187445D01*
X86872910Y-78167270D01*
X86851245Y-78138396D01*
X86839230Y-78121405D01*
X86816828Y-78090162D01*
X86795202Y-78061970D01*
X86786311Y-78051270D01*
X86771401Y-78031999D01*
X86764925Y-78019158D01*
X86764917Y-78018926D01*
X86756375Y-78011326D01*
X86733482Y-77997572D01*
X86700335Y-77980030D01*
X86681097Y-77970530D01*
X86646045Y-77953607D01*
X86596967Y-77929910D01*
X86538135Y-77901502D01*
X86473820Y-77870447D01*
X86408293Y-77838805D01*
X86395637Y-77832694D01*
X86336910Y-77804397D01*
X86284651Y-77779333D01*
X86241517Y-77758768D01*
X86210166Y-77743966D01*
X86193256Y-77736193D01*
X86191067Y-77735325D01*
X86181470Y-77731106D01*
X86156319Y-77719317D01*
X86118340Y-77701256D01*
X86070261Y-77678222D01*
X86014809Y-77651513D01*
X85996466Y-77642651D01*
X85930806Y-77610946D01*
X85863701Y-77578617D01*
X85800088Y-77548037D01*
X85744904Y-77521580D01*
X85703197Y-77501672D01*
X85649311Y-77476053D01*
X85586501Y-77446192D01*
X85524194Y-77416572D01*
X85489837Y-77400240D01*
X85435722Y-77374426D01*
X85371450Y-77343632D01*
X85305142Y-77311753D01*
X85245997Y-77283209D01*
X85133510Y-77228857D01*
X85021204Y-77174724D01*
X84913437Y-77122906D01*
X84814568Y-77075500D01*
X84728957Y-77034600D01*
X84717677Y-77029227D01*
X84662440Y-77002883D01*
X84597467Y-76971830D01*
X84531335Y-76940170D01*
X84478917Y-76915030D01*
X84422607Y-76888051D01*
X84363492Y-76859827D01*
X84308638Y-76833727D01*
X84265557Y-76813329D01*
X84056283Y-76713987D01*
X83846280Y-76612897D01*
X83792640Y-76586865D01*
X83733690Y-76558340D01*
X83675301Y-76530313D01*
X83622294Y-76505082D01*
X83579491Y-76484946D01*
X83558960Y-76475466D01*
X83479865Y-76438593D01*
X83413360Y-76405790D01*
X83361067Y-76377919D01*
X83324613Y-76355841D01*
X83306765Y-76341719D01*
X83289298Y-76319206D01*
X83270220Y-76289391D01*
X83265902Y-76281767D01*
X83246913Y-76248435D01*
X83222952Y-76208248D01*
X83196628Y-76165360D01*
X83170551Y-76123926D01*
X83147332Y-76088100D01*
X83129580Y-76062036D01*
X83120659Y-76050579D01*
X83109270Y-76034729D01*
X83107317Y-76028021D01*
X83102103Y-76016975D01*
X83087585Y-75991631D01*
X83065443Y-75954785D01*
X83037362Y-75909234D01*
X83005021Y-75857773D01*
X83002302Y-75853487D01*
X82954511Y-75777990D01*
X82914280Y-75713854D01*
X82878096Y-75655398D01*
X82842447Y-75596945D01*
X82803820Y-75532815D01*
X82799450Y-75525525D01*
X82787528Y-75507452D01*
X82781431Y-75500125D01*
X82773164Y-75488677D01*
X82759893Y-75466553D01*
X82756031Y-75459671D01*
X82740094Y-75433144D01*
X82725858Y-75413073D01*
X82723777Y-75410685D01*
X82712748Y-75392154D01*
X82711077Y-75383803D01*
X82703939Y-75366654D01*
X82695837Y-75357884D01*
X82685449Y-75342698D01*
X82680522Y-75323794D01*
X82682505Y-75309699D01*
X82687200Y-75307085D01*
X82698472Y-75311861D01*
G37*
X82698472Y-75311861D02*
X82722637Y-75324564D01*
X82755112Y-75342752D01*
X82765940Y-75349002D01*
X82804786Y-75371556D01*
X82841212Y-75392675D01*
X82868194Y-75408287D01*
X82871096Y-75409962D01*
X82904380Y-75429168D01*
X82937136Y-75448087D01*
X82956554Y-75459241D01*
X82990076Y-75478426D01*
X83034150Y-75503613D01*
X83085226Y-75532772D01*
X83132717Y-75559862D01*
X83185420Y-75589983D01*
X83232694Y-75617130D01*
X83271427Y-75639506D01*
X83298506Y-75655314D01*
X83310517Y-75662554D01*
X83329370Y-75673733D01*
X83356180Y-75688391D01*
X83361317Y-75691089D01*
X83383742Y-75703170D01*
X83419121Y-75722681D01*
X83462744Y-75747008D01*
X83509901Y-75773536D01*
X83513717Y-75775693D01*
X83560940Y-75802227D01*
X83605012Y-75826688D01*
X83641228Y-75846483D01*
X83664882Y-75859020D01*
X83666117Y-75859645D01*
X83695153Y-75874697D01*
X83719571Y-75888078D01*
X83721997Y-75889488D01*
X83738269Y-75898595D01*
X83768456Y-75915074D01*
X83808538Y-75936745D01*
X83854495Y-75961427D01*
X83864237Y-75966639D01*
X83913290Y-75992917D01*
X83959625Y-76017826D01*
X83998371Y-76038742D01*
X84024659Y-76053041D01*
X84026797Y-76054216D01*
X84067967Y-76076380D01*
X84124777Y-76106209D01*
X84194635Y-76142395D01*
X84274948Y-76183632D01*
X84363127Y-76228610D01*
X84456578Y-76276023D01*
X84552709Y-76324561D01*
X84648930Y-76372919D01*
X84742649Y-76419787D01*
X84831273Y-76463857D01*
X84912211Y-76503823D01*
X84982871Y-76538376D01*
X85040661Y-76566207D01*
X85052957Y-76572039D01*
X85142916Y-76614223D01*
X85246608Y-76662321D01*
X85359157Y-76714087D01*
X85475686Y-76767278D01*
X85571117Y-76810531D01*
X85695221Y-76865611D01*
X85830438Y-76923898D01*
X85970930Y-76982968D01*
X86110859Y-77040398D01*
X86244389Y-77093762D01*
X86365682Y-77140637D01*
X86368677Y-77141769D01*
X86421200Y-77161702D01*
X86468211Y-77179721D01*
X86505852Y-77194333D01*
X86530263Y-77204046D01*
X86536317Y-77206606D01*
X86565989Y-77218669D01*
X86611883Y-77235614D01*
X86670786Y-77256387D01*
X86739487Y-77279936D01*
X86814771Y-77305209D01*
X86893427Y-77331152D01*
X86972243Y-77356713D01*
X87048005Y-77380840D01*
X87117502Y-77402480D01*
X87177521Y-77420580D01*
X87224849Y-77434087D01*
X87250988Y-77440781D01*
X87305260Y-77453318D01*
X87391676Y-77632421D01*
X87424598Y-77700527D01*
X87463173Y-77780129D01*
X87504124Y-77864472D01*
X87544169Y-77946800D01*
X87577280Y-78014725D01*
X87609687Y-78081212D01*
X87642323Y-78148343D01*
X87673000Y-78211602D01*
X87699529Y-78266476D01*
X87719721Y-78308448D01*
X87722590Y-78314445D01*
X87743208Y-78357589D01*
X87769845Y-78413324D01*
X87799755Y-78475907D01*
X87830193Y-78539594D01*
X87846410Y-78573525D01*
X87876858Y-78636869D01*
X87913157Y-78711819D01*
X87952102Y-78791788D01*
X87990485Y-78870192D01*
X88020152Y-78930432D01*
X88048603Y-78988516D01*
X88073707Y-79040750D01*
X88094139Y-79084293D01*
X88108572Y-79116307D01*
X88115683Y-79133953D01*
X88116197Y-79136172D01*
X88123229Y-79147009D01*
X88126357Y-79147565D01*
X88135814Y-79155578D01*
X88136517Y-79160175D01*
X88140747Y-79174846D01*
X88151944Y-79202225D01*
X88167863Y-79236906D01*
X88171295Y-79243995D01*
X88186909Y-79276099D01*
X88209218Y-79322151D01*
X88236112Y-79377785D01*
X88265481Y-79438637D01*
X88294127Y-79498085D01*
X88328624Y-79569568D01*
X88367201Y-79649237D01*
X88406327Y-79729818D01*
X88442474Y-79804038D01*
X88462548Y-79845117D01*
X88488377Y-79898465D01*
X88510760Y-79945826D01*
X88528260Y-79984067D01*
X88539442Y-80010057D01*
X88542917Y-80020377D01*
X88550100Y-80030995D01*
X88553077Y-80031485D01*
X88562619Y-80039449D01*
X88563237Y-80043597D01*
X88567408Y-80058682D01*
X88578282Y-80085220D01*
X88593396Y-80118197D01*
X88610291Y-80152602D01*
X88626503Y-80183423D01*
X88639572Y-80205650D01*
X88647037Y-80214269D01*
X88647057Y-80214269D01*
X88654291Y-80206409D01*
X88654677Y-80202786D01*
X88658948Y-80190079D01*
X88670734Y-80162588D01*
X88688495Y-80123719D01*
X88710690Y-80076877D01*
X88724768Y-80047846D01*
X88754896Y-79986035D01*
X88790108Y-79913499D01*
X88826718Y-79837843D01*
X88861044Y-79766674D01*
X88872945Y-79741925D01*
X88903513Y-79678566D01*
X88936035Y-79611632D01*
X88967462Y-79547368D01*
X88994742Y-79492022D01*
X89006053Y-79469288D01*
X89027434Y-79425377D01*
X89044939Y-79387264D01*
X89056756Y-79359043D01*
X89061077Y-79344828D01*
X89066845Y-79331866D01*
X89071237Y-79330445D01*
X89081048Y-79322667D01*
X89081397Y-79319942D01*
X89085694Y-79308138D01*
X89097733Y-79280869D01*
X89116236Y-79240881D01*
X89139925Y-79190916D01*
X89167519Y-79133719D01*
X89182001Y-79104042D01*
X89213715Y-79039086D01*
X89244730Y-78975184D01*
X89273115Y-78916347D01*
X89296935Y-78866583D01*
X89314259Y-78829903D01*
X89317718Y-78822445D01*
X89331271Y-78793284D01*
X89347677Y-78758483D01*
X89367748Y-78716358D01*
X89392295Y-78665228D01*
X89422129Y-78603412D01*
X89458059Y-78529228D01*
X89500898Y-78440993D01*
X89551455Y-78337025D01*
X89579751Y-78278885D01*
X89612125Y-78212222D01*
X89646182Y-78141822D01*
X89679133Y-78073472D01*
X89708184Y-78012961D01*
X89726743Y-77974085D01*
X89754771Y-77915309D01*
X89787476Y-77846988D01*
X89820671Y-77777858D01*
X89848512Y-77720085D01*
X89874431Y-77666182D01*
X89899974Y-77612638D01*
X89922461Y-77565096D01*
X89939213Y-77529199D01*
X89941353Y-77524538D01*
X89952151Y-77500599D01*
X89961292Y-77483023D01*
X89972004Y-77469909D01*
X89987515Y-77459357D01*
X90011051Y-77449466D01*
X90045838Y-77438334D01*
X90095105Y-77424060D01*
X90127877Y-77414662D01*
X90253771Y-77376534D01*
X90394685Y-77330525D01*
X90547459Y-77277832D01*
X90708935Y-77219650D01*
X90875953Y-77157179D01*
X91045353Y-77091613D01*
X91213977Y-77024150D01*
X91378663Y-76955987D01*
X91536254Y-76888320D01*
X91644695Y-76840063D01*
X91687699Y-76820738D01*
X91723435Y-76804930D01*
X91748146Y-76794284D01*
X91758056Y-76790445D01*
X91768201Y-76786421D01*
X91792820Y-76775525D01*
X91827992Y-76759516D01*
X91861757Y-76743900D01*
X91904653Y-76723956D01*
X91960623Y-76697965D01*
X92024301Y-76668416D01*
X92090322Y-76637800D01*
X92139557Y-76614983D01*
X92183693Y-76594126D01*
X92243393Y-76565299D01*
X92316120Y-76529772D01*
X92399339Y-76488812D01*
X92490514Y-76443686D01*
X92587107Y-76395661D01*
X92686584Y-76346006D01*
X92786408Y-76295988D01*
X92884044Y-76246874D01*
X92976954Y-76199932D01*
X93062603Y-76156430D01*
X93138455Y-76117635D01*
X93201974Y-76084815D01*
X93236837Y-76066552D01*
X93308937Y-76028165D01*
X93394704Y-75981991D01*
X93490113Y-75930236D01*
X93591135Y-75875104D01*
X93693745Y-75818798D01*
X93793915Y-75763523D01*
X93887618Y-75711484D01*
X93970828Y-75664885D01*
X93978517Y-75660553D01*
X94036543Y-75627809D01*
X94082067Y-75602038D01*
X94120306Y-75580265D01*
X94156477Y-75559517D01*
X94195797Y-75536820D01*
X94208443Y-75529501D01*
X94304950Y-75473728D01*
X94385279Y-75427546D01*
X94450759Y-75390226D01*
X94502715Y-75361041D01*
X94542476Y-75339260D01*
X94571369Y-75324157D01*
X94590721Y-75315002D01*
X94601859Y-75311066D01*
X94605883Y-75311304D01*
X94606107Y-75323901D01*
X94596924Y-75344669D01*
X94596267Y-75345761D01*
X94582794Y-75368283D01*
X94563320Y-75401377D01*
X94541983Y-75438008D01*
X94541313Y-75439165D01*
X94515181Y-75483147D01*
X94484777Y-75532666D01*
X94459232Y-75573024D01*
X94438580Y-75606272D01*
X94423162Y-75633562D01*
X94415701Y-75650006D01*
X94415397Y-75651764D01*
X94409728Y-75662253D01*
X94407547Y-75662685D01*
X94398424Y-75670845D01*
X94384920Y-75691315D01*
X94379704Y-75700785D01*
X94366156Y-75725560D01*
X94356331Y-75741674D01*
X94354534Y-75743965D01*
X94345749Y-75755938D01*
X94337384Y-75769365D01*
X94327597Y-75785508D01*
X94309554Y-75814857D01*
X94285746Y-75853372D01*
X94258665Y-75897014D01*
X94256104Y-75901134D01*
X94229100Y-75945280D01*
X94205603Y-75985036D01*
X94188000Y-76016269D01*
X94178680Y-76034846D01*
X94178330Y-76035754D01*
X94168462Y-76053549D01*
X94160550Y-76058925D01*
X94151559Y-76066733D01*
X94151237Y-76069485D01*
X94145913Y-76082930D01*
X94132064Y-76107320D01*
X94115677Y-76132850D01*
X94096985Y-76162406D01*
X94084106Y-76186218D01*
X94080117Y-76197642D01*
X94073794Y-76211467D01*
X94071120Y-76213018D01*
X94062181Y-76222708D01*
X94045836Y-76245790D01*
X94024945Y-76278118D01*
X94014480Y-76295145D01*
X93992557Y-76329890D01*
X93973869Y-76356801D01*
X93961227Y-76371947D01*
X93958139Y-76373885D01*
X93946260Y-76378031D01*
X93919650Y-76389412D01*
X93881881Y-76406438D01*
X93836528Y-76427520D01*
X93821037Y-76434845D01*
X93774502Y-76456815D01*
X93734934Y-76475267D01*
X93705744Y-76488628D01*
X93690338Y-76495325D01*
X93688854Y-76495805D01*
X93678606Y-76499822D01*
X93654286Y-76510589D01*
X93620199Y-76526181D01*
X93600657Y-76535269D01*
X93543645Y-76561805D01*
X93470891Y-76595480D01*
X93385150Y-76635023D01*
X93289178Y-76679164D01*
X93206357Y-76717174D01*
X93090358Y-76770402D01*
X92986897Y-76817989D01*
X92893427Y-76861146D01*
X92807402Y-76901084D01*
X92726278Y-76939014D01*
X92647508Y-76976147D01*
X92568546Y-77013694D01*
X92486847Y-77052866D01*
X92399865Y-77094874D01*
X92305055Y-77140928D01*
X92199869Y-77192241D01*
X92081763Y-77250022D01*
X91948192Y-77315482D01*
X91936357Y-77321286D01*
X91861184Y-77358095D01*
X91785813Y-77394905D01*
X91713918Y-77429928D01*
X91649174Y-77461376D01*
X91595257Y-77487461D01*
X91555841Y-77506396D01*
X91555357Y-77506627D01*
X91514156Y-77526402D01*
X91458846Y-77553128D01*
X91393558Y-77584799D01*
X91322422Y-77619409D01*
X91249570Y-77654952D01*
X91204837Y-77676830D01*
X91123538Y-77716626D01*
X91032641Y-77761112D01*
X90938623Y-77807118D01*
X90847961Y-77851475D01*
X90767132Y-77891014D01*
X90745814Y-77901440D01*
X90672974Y-77937402D01*
X90616486Y-77966176D01*
X90574212Y-77989002D01*
X90544017Y-78007123D01*
X90523763Y-78021779D01*
X90511313Y-78034210D01*
X90507404Y-78039882D01*
X90493440Y-78060361D01*
X90482934Y-78070399D01*
X90481971Y-78070605D01*
X90473308Y-78078902D01*
X90468708Y-78089438D01*
X90458864Y-78107076D01*
X90439732Y-78132831D01*
X90422680Y-78152938D01*
X90398164Y-78182121D01*
X90377898Y-78209459D01*
X90369553Y-78223005D01*
X90352890Y-78249264D01*
X90333288Y-78273805D01*
X90315133Y-78295917D01*
X90291611Y-78327459D01*
X90272328Y-78355016D01*
X90251364Y-78385435D01*
X90233892Y-78409800D01*
X90224397Y-78421987D01*
X90216704Y-78430939D01*
X90205695Y-78444786D01*
X90189799Y-78465620D01*
X90167446Y-78495535D01*
X90137065Y-78536625D01*
X90097086Y-78590982D01*
X90072616Y-78624325D01*
X90037305Y-78672236D01*
X90003969Y-78717062D01*
X89975446Y-78755018D01*
X89954572Y-78782317D01*
X89947660Y-78791071D01*
X89926146Y-78818499D01*
X89907724Y-78843372D01*
X89904357Y-78848218D01*
X89875418Y-78890615D01*
X89856285Y-78917913D01*
X89845621Y-78932007D01*
X89843606Y-78934205D01*
X89834136Y-78945760D01*
X89813886Y-78972384D01*
X89783925Y-79012640D01*
X89745322Y-79065088D01*
X89699146Y-79128292D01*
X89692511Y-79137405D01*
X89665478Y-79174429D01*
X89642308Y-79205949D01*
X89625981Y-79227922D01*
X89620185Y-79235500D01*
X89609740Y-79249105D01*
X89589090Y-79276538D01*
X89560103Y-79315284D01*
X89524647Y-79362825D01*
X89484591Y-79416647D01*
X89441802Y-79474231D01*
X89398148Y-79533062D01*
X89355496Y-79590624D01*
X89315715Y-79644400D01*
X89280672Y-79691873D01*
X89252236Y-79730528D01*
X89232274Y-79757847D01*
X89225992Y-79766558D01*
X89210951Y-79787121D01*
X89189006Y-79816562D01*
X89164187Y-79849543D01*
X89140523Y-79880724D01*
X89122045Y-79904765D01*
X89114224Y-79914645D01*
X89104736Y-79927463D01*
X89087226Y-79952168D01*
X89065145Y-79983879D01*
X89060603Y-79990461D01*
X89036242Y-80024965D01*
X89013851Y-80055223D01*
X88997835Y-80075304D01*
X88996483Y-80076821D01*
X88979210Y-80098363D01*
X88958570Y-80127503D01*
X88951715Y-80137938D01*
X88933786Y-80164944D01*
X88918839Y-80185809D01*
X88914708Y-80190926D01*
X88907987Y-80198651D01*
X88900582Y-80207641D01*
X88890079Y-80221000D01*
X88874063Y-80241836D01*
X88850122Y-80273253D01*
X88823448Y-80308345D01*
X88763620Y-80387085D01*
X88643509Y-80387085D01*
X88583775Y-80386168D01*
X88542814Y-80383321D01*
X88519153Y-80378404D01*
X88512637Y-80374385D01*
X88479647Y-80334743D01*
X88459614Y-80308917D01*
X88451694Y-80295807D01*
X88451489Y-80294659D01*
X88445519Y-80283328D01*
X88433063Y-80267363D01*
X88412237Y-80241721D01*
X88397963Y-80222628D01*
X88387743Y-80208606D01*
X88367711Y-80181424D01*
X88339988Y-80143934D01*
X88306692Y-80098993D01*
X88269945Y-80049453D01*
X88231864Y-79998169D01*
X88194571Y-79947996D01*
X88160185Y-79901787D01*
X88130825Y-79862398D01*
X88108613Y-79832682D01*
X88095666Y-79815493D01*
X88093779Y-79813045D01*
X88083924Y-79799896D01*
X88066268Y-79775821D01*
X88047646Y-79750187D01*
X88023106Y-79716301D01*
X88003040Y-79688713D01*
X87984345Y-79663217D01*
X87963917Y-79635606D01*
X87938652Y-79601674D01*
X87905446Y-79557216D01*
X87890745Y-79537549D01*
X87858341Y-79494149D01*
X87828962Y-79454700D01*
X87805446Y-79423019D01*
X87790631Y-79402926D01*
X87788785Y-79400389D01*
X87764268Y-79366813D01*
X87732811Y-79324180D01*
X87696452Y-79275207D01*
X87657229Y-79222610D01*
X87617181Y-79169106D01*
X87578346Y-79117412D01*
X87542762Y-79070245D01*
X87512469Y-79030320D01*
X87489503Y-79000355D01*
X87475905Y-78983067D01*
X87473768Y-78980549D01*
X87460274Y-78963478D01*
X87455797Y-78954163D01*
X87449904Y-78942233D01*
X87438017Y-78926455D01*
X87410754Y-78893731D01*
X87391827Y-78869447D01*
X87376073Y-78846856D01*
X87370251Y-78837945D01*
X87354512Y-78814523D01*
X87342428Y-78798135D01*
X87341730Y-78797309D01*
X87332895Y-78785929D01*
X87314749Y-78761805D01*
X87289994Y-78728583D01*
X87261330Y-78689909D01*
X87231458Y-78649430D01*
X87203078Y-78610790D01*
X87178892Y-78577637D01*
X87173337Y-78569971D01*
X87155883Y-78546453D01*
X87133917Y-78517622D01*
X87128137Y-78510153D01*
X87111256Y-78487178D01*
X87101289Y-78471182D01*
X87100149Y-78467987D01*
X87093830Y-78457302D01*
X87078108Y-78438200D01*
X87071839Y-78431285D01*
X87046814Y-78401015D01*
X87023389Y-78367746D01*
X87021351Y-78364474D01*
X87000350Y-78333581D01*
X86977917Y-78305341D01*
X86974978Y-78302087D01*
X86952613Y-78274859D01*
X86930985Y-78244002D01*
X86929666Y-78241897D01*
X86910502Y-78213635D01*
X86891606Y-78189630D01*
X86889629Y-78187445D01*
X86872910Y-78167270D01*
X86851245Y-78138396D01*
X86839230Y-78121405D01*
X86816828Y-78090162D01*
X86795202Y-78061970D01*
X86786311Y-78051270D01*
X86771401Y-78031999D01*
X86764925Y-78019158D01*
X86764917Y-78018926D01*
X86756375Y-78011326D01*
X86733482Y-77997572D01*
X86700335Y-77980030D01*
X86681097Y-77970530D01*
X86646045Y-77953607D01*
X86596967Y-77929910D01*
X86538135Y-77901502D01*
X86473820Y-77870447D01*
X86408293Y-77838805D01*
X86395637Y-77832694D01*
X86336910Y-77804397D01*
X86284651Y-77779333D01*
X86241517Y-77758768D01*
X86210166Y-77743966D01*
X86193256Y-77736193D01*
X86191067Y-77735325D01*
X86181470Y-77731106D01*
X86156319Y-77719317D01*
X86118340Y-77701256D01*
X86070261Y-77678222D01*
X86014809Y-77651513D01*
X85996466Y-77642651D01*
X85930806Y-77610946D01*
X85863701Y-77578617D01*
X85800088Y-77548037D01*
X85744904Y-77521580D01*
X85703197Y-77501672D01*
X85649311Y-77476053D01*
X85586501Y-77446192D01*
X85524194Y-77416572D01*
X85489837Y-77400240D01*
X85435722Y-77374426D01*
X85371450Y-77343632D01*
X85305142Y-77311753D01*
X85245997Y-77283209D01*
X85133510Y-77228857D01*
X85021204Y-77174724D01*
X84913437Y-77122906D01*
X84814568Y-77075500D01*
X84728957Y-77034600D01*
X84717677Y-77029227D01*
X84662440Y-77002883D01*
X84597467Y-76971830D01*
X84531335Y-76940170D01*
X84478917Y-76915030D01*
X84422607Y-76888051D01*
X84363492Y-76859827D01*
X84308638Y-76833727D01*
X84265557Y-76813329D01*
X84056283Y-76713987D01*
X83846280Y-76612897D01*
X83792640Y-76586865D01*
X83733690Y-76558340D01*
X83675301Y-76530313D01*
X83622294Y-76505082D01*
X83579491Y-76484946D01*
X83558960Y-76475466D01*
X83479865Y-76438593D01*
X83413360Y-76405790D01*
X83361067Y-76377919D01*
X83324613Y-76355841D01*
X83306765Y-76341719D01*
X83289298Y-76319206D01*
X83270220Y-76289391D01*
X83265902Y-76281767D01*
X83246913Y-76248435D01*
X83222952Y-76208248D01*
X83196628Y-76165360D01*
X83170551Y-76123926D01*
X83147332Y-76088100D01*
X83129580Y-76062036D01*
X83120659Y-76050579D01*
X83109270Y-76034729D01*
X83107317Y-76028021D01*
X83102103Y-76016975D01*
X83087585Y-75991631D01*
X83065443Y-75954785D01*
X83037362Y-75909234D01*
X83005021Y-75857773D01*
X83002302Y-75853487D01*
X82954511Y-75777990D01*
X82914280Y-75713854D01*
X82878096Y-75655398D01*
X82842447Y-75596945D01*
X82803820Y-75532815D01*
X82799450Y-75525525D01*
X82787528Y-75507452D01*
X82781431Y-75500125D01*
X82773164Y-75488677D01*
X82759893Y-75466553D01*
X82756031Y-75459671D01*
X82740094Y-75433144D01*
X82725858Y-75413073D01*
X82723777Y-75410685D01*
X82712748Y-75392154D01*
X82711077Y-75383803D01*
X82703939Y-75366654D01*
X82695837Y-75357884D01*
X82685449Y-75342698D01*
X82680522Y-75323794D01*
X82682505Y-75309699D01*
X82687200Y-75307085D01*
X82698472Y-75311861D01*
G36*
X84857377Y-78754969D02*
G01*
X84883895Y-78758123D01*
X84925277Y-78762195D01*
X84976115Y-78766685D01*
X85031002Y-78771094D01*
X85037717Y-78771603D01*
X85099073Y-78776513D01*
X85163185Y-78782141D01*
X85222234Y-78787772D01*
X85266317Y-78792453D01*
X85315054Y-78797618D01*
X85375499Y-78803365D01*
X85439085Y-78808907D01*
X85484757Y-78812534D01*
X85570303Y-78819225D01*
X85673309Y-78827730D01*
X85791020Y-78837811D01*
X85920678Y-78849230D01*
X86059528Y-78861751D01*
X86124837Y-78867732D01*
X86195778Y-78874173D01*
X86278530Y-78881548D01*
X86364649Y-78889111D01*
X86445696Y-78896119D01*
X86477944Y-78898867D01*
X86538359Y-78904284D01*
X86592670Y-78909717D01*
X86637261Y-78914760D01*
X86668517Y-78919007D01*
X86682354Y-78921849D01*
X86691170Y-78926083D01*
X86703051Y-78933809D01*
X86720214Y-78946808D01*
X86744875Y-78966862D01*
X86779251Y-78995749D01*
X86825557Y-79035251D01*
X86855817Y-79061205D01*
X86887271Y-79087905D01*
X86926634Y-79120893D01*
X86966070Y-79153606D01*
X86971072Y-79157725D01*
X87001777Y-79184178D01*
X87025287Y-79206703D01*
X87037927Y-79221682D01*
X87039116Y-79224687D01*
X87031391Y-79227671D01*
X87007698Y-79230420D01*
X86967368Y-79232960D01*
X86909729Y-79235316D01*
X86834108Y-79237514D01*
X86739835Y-79239578D01*
X86626237Y-79241534D01*
X86564257Y-79242447D01*
X86444448Y-79244129D01*
X86309976Y-79246012D01*
X86166498Y-79248017D01*
X86019669Y-79250066D01*
X85875145Y-79252080D01*
X85738580Y-79253980D01*
X85615631Y-79255687D01*
X85605817Y-79255823D01*
X85122357Y-79262522D01*
X85104963Y-79238063D01*
X85091615Y-79218231D01*
X85071315Y-79186860D01*
X85047776Y-79149707D01*
X85040082Y-79137405D01*
X85017983Y-79102937D01*
X84999390Y-79075753D01*
X84987202Y-79060017D01*
X84984675Y-79057818D01*
X84976837Y-79046211D01*
X84976757Y-79044804D01*
X84971644Y-79033222D01*
X84957558Y-79007703D01*
X84936374Y-78971489D01*
X84909969Y-78927824D01*
X84895477Y-78904341D01*
X84867128Y-78857925D01*
X84843086Y-78817063D01*
X84825236Y-78785081D01*
X84815464Y-78765303D01*
X84814197Y-78761077D01*
X84821190Y-78753632D01*
X84843870Y-78753281D01*
X84857377Y-78754969D01*
G37*
X84857377Y-78754969D02*
X84883895Y-78758123D01*
X84925277Y-78762195D01*
X84976115Y-78766685D01*
X85031002Y-78771094D01*
X85037717Y-78771603D01*
X85099073Y-78776513D01*
X85163185Y-78782141D01*
X85222234Y-78787772D01*
X85266317Y-78792453D01*
X85315054Y-78797618D01*
X85375499Y-78803365D01*
X85439085Y-78808907D01*
X85484757Y-78812534D01*
X85570303Y-78819225D01*
X85673309Y-78827730D01*
X85791020Y-78837811D01*
X85920678Y-78849230D01*
X86059528Y-78861751D01*
X86124837Y-78867732D01*
X86195778Y-78874173D01*
X86278530Y-78881548D01*
X86364649Y-78889111D01*
X86445696Y-78896119D01*
X86477944Y-78898867D01*
X86538359Y-78904284D01*
X86592670Y-78909717D01*
X86637261Y-78914760D01*
X86668517Y-78919007D01*
X86682354Y-78921849D01*
X86691170Y-78926083D01*
X86703051Y-78933809D01*
X86720214Y-78946808D01*
X86744875Y-78966862D01*
X86779251Y-78995749D01*
X86825557Y-79035251D01*
X86855817Y-79061205D01*
X86887271Y-79087905D01*
X86926634Y-79120893D01*
X86966070Y-79153606D01*
X86971072Y-79157725D01*
X87001777Y-79184178D01*
X87025287Y-79206703D01*
X87037927Y-79221682D01*
X87039116Y-79224687D01*
X87031391Y-79227671D01*
X87007698Y-79230420D01*
X86967368Y-79232960D01*
X86909729Y-79235316D01*
X86834108Y-79237514D01*
X86739835Y-79239578D01*
X86626237Y-79241534D01*
X86564257Y-79242447D01*
X86444448Y-79244129D01*
X86309976Y-79246012D01*
X86166498Y-79248017D01*
X86019669Y-79250066D01*
X85875145Y-79252080D01*
X85738580Y-79253980D01*
X85615631Y-79255687D01*
X85605817Y-79255823D01*
X85122357Y-79262522D01*
X85104963Y-79238063D01*
X85091615Y-79218231D01*
X85071315Y-79186860D01*
X85047776Y-79149707D01*
X85040082Y-79137405D01*
X85017983Y-79102937D01*
X84999390Y-79075753D01*
X84987202Y-79060017D01*
X84984675Y-79057818D01*
X84976837Y-79046211D01*
X84976757Y-79044804D01*
X84971644Y-79033222D01*
X84957558Y-79007703D01*
X84936374Y-78971489D01*
X84909969Y-78927824D01*
X84895477Y-78904341D01*
X84867128Y-78857925D01*
X84843086Y-78817063D01*
X84825236Y-78785081D01*
X84815464Y-78765303D01*
X84814197Y-78761077D01*
X84821190Y-78753632D01*
X84843870Y-78753281D01*
X84857377Y-78754969D01*
G36*
X95750068Y-83759477D02*
G01*
X95766654Y-83731901D01*
X95777352Y-83713617D01*
X95795870Y-83681463D01*
X95820022Y-83639252D01*
X95847623Y-83590799D01*
X95862487Y-83564625D01*
X95941734Y-83424925D01*
X95992452Y-83424925D01*
X96022633Y-83426048D01*
X96036437Y-83430301D01*
X96037727Y-83439012D01*
X96037265Y-83440313D01*
X96030649Y-83453235D01*
X96015341Y-83481018D01*
X95992868Y-83520958D01*
X95964755Y-83570353D01*
X95932530Y-83626500D01*
X95914258Y-83658152D01*
X95797157Y-83860602D01*
X95797157Y-84197085D01*
X95705717Y-84197085D01*
X95705717Y-83863543D01*
X95453873Y-83424925D01*
X95559350Y-83424925D01*
X95750068Y-83759477D01*
G37*
X95750068Y-83759477D02*
X95766654Y-83731901D01*
X95777352Y-83713617D01*
X95795870Y-83681463D01*
X95820022Y-83639252D01*
X95847623Y-83590799D01*
X95862487Y-83564625D01*
X95941734Y-83424925D01*
X95992452Y-83424925D01*
X96022633Y-83426048D01*
X96036437Y-83430301D01*
X96037727Y-83439012D01*
X96037265Y-83440313D01*
X96030649Y-83453235D01*
X96015341Y-83481018D01*
X95992868Y-83520958D01*
X95964755Y-83570353D01*
X95932530Y-83626500D01*
X95914258Y-83658152D01*
X95797157Y-83860602D01*
X95797157Y-84197085D01*
X95705717Y-84197085D01*
X95705717Y-83863543D01*
X95453873Y-83424925D01*
X95559350Y-83424925D01*
X95750068Y-83759477D01*
G36*
X92498692Y-78753659D02*
G01*
X92501693Y-78754474D01*
X92498551Y-78764486D01*
X92486303Y-78788125D01*
X92466857Y-78821944D01*
X92442122Y-78862496D01*
X92439997Y-78865888D01*
X92414368Y-78907597D01*
X92393294Y-78943577D01*
X92378884Y-78970103D01*
X92373250Y-78983448D01*
X92373237Y-78983700D01*
X92366240Y-78994592D01*
X92363077Y-78995165D01*
X92353353Y-79003009D01*
X92352917Y-79006204D01*
X92347515Y-79020395D01*
X92333744Y-79044313D01*
X92323688Y-79059544D01*
X92304520Y-79088354D01*
X92279520Y-79127375D01*
X92253300Y-79169385D01*
X92246436Y-79180585D01*
X92198413Y-79259325D01*
X91902285Y-79257371D01*
X91821344Y-79256724D01*
X91724790Y-79255766D01*
X91617324Y-79254555D01*
X91503650Y-79253148D01*
X91388470Y-79251604D01*
X91276486Y-79249979D01*
X91189597Y-79248616D01*
X91086550Y-79247006D01*
X90978780Y-79245455D01*
X90870515Y-79244013D01*
X90765981Y-79242734D01*
X90669406Y-79241668D01*
X90585018Y-79240867D01*
X90521577Y-79240409D01*
X90442623Y-79239825D01*
X90381751Y-79238966D01*
X90336724Y-79237683D01*
X90305305Y-79235829D01*
X90285255Y-79233255D01*
X90274337Y-79229813D01*
X90270314Y-79225356D01*
X90270117Y-79223765D01*
X90275123Y-79210237D01*
X90279374Y-79208525D01*
X90290028Y-79202160D01*
X90313749Y-79184300D01*
X90348284Y-79156797D01*
X90391379Y-79121504D01*
X90440780Y-79080273D01*
X90494234Y-79034956D01*
X90549486Y-78987405D01*
X90567555Y-78971691D01*
X90596498Y-78948032D01*
X90622262Y-78929666D01*
X90636498Y-78921826D01*
X90652977Y-78918538D01*
X90685993Y-78914110D01*
X90731824Y-78908967D01*
X90786748Y-78903530D01*
X90836899Y-78899069D01*
X90913232Y-78892542D01*
X90999518Y-78885033D01*
X91086727Y-78877337D01*
X91165830Y-78870247D01*
X91189597Y-78868086D01*
X91355928Y-78853034D01*
X91505098Y-78839840D01*
X91636338Y-78828571D01*
X91748883Y-78819291D01*
X91839837Y-78812226D01*
X91899119Y-78807490D01*
X91960063Y-78802079D01*
X92015096Y-78796695D01*
X92053197Y-78792466D01*
X92104288Y-78786915D01*
X92163782Y-78781463D01*
X92219787Y-78777189D01*
X92225917Y-78776794D01*
X92282508Y-78772562D01*
X92345813Y-78766809D01*
X92402873Y-78760719D01*
X92406992Y-78760227D01*
X92447424Y-78755944D01*
X92479612Y-78753657D01*
X92498692Y-78753659D01*
G37*
X92498692Y-78753659D02*
X92501693Y-78754474D01*
X92498551Y-78764486D01*
X92486303Y-78788125D01*
X92466857Y-78821944D01*
X92442122Y-78862496D01*
X92439997Y-78865888D01*
X92414368Y-78907597D01*
X92393294Y-78943577D01*
X92378884Y-78970103D01*
X92373250Y-78983448D01*
X92373237Y-78983700D01*
X92366240Y-78994592D01*
X92363077Y-78995165D01*
X92353353Y-79003009D01*
X92352917Y-79006204D01*
X92347515Y-79020395D01*
X92333744Y-79044313D01*
X92323688Y-79059544D01*
X92304520Y-79088354D01*
X92279520Y-79127375D01*
X92253300Y-79169385D01*
X92246436Y-79180585D01*
X92198413Y-79259325D01*
X91902285Y-79257371D01*
X91821344Y-79256724D01*
X91724790Y-79255766D01*
X91617324Y-79254555D01*
X91503650Y-79253148D01*
X91388470Y-79251604D01*
X91276486Y-79249979D01*
X91189597Y-79248616D01*
X91086550Y-79247006D01*
X90978780Y-79245455D01*
X90870515Y-79244013D01*
X90765981Y-79242734D01*
X90669406Y-79241668D01*
X90585018Y-79240867D01*
X90521577Y-79240409D01*
X90442623Y-79239825D01*
X90381751Y-79238966D01*
X90336724Y-79237683D01*
X90305305Y-79235829D01*
X90285255Y-79233255D01*
X90274337Y-79229813D01*
X90270314Y-79225356D01*
X90270117Y-79223765D01*
X90275123Y-79210237D01*
X90279374Y-79208525D01*
X90290028Y-79202160D01*
X90313749Y-79184300D01*
X90348284Y-79156797D01*
X90391379Y-79121504D01*
X90440780Y-79080273D01*
X90494234Y-79034956D01*
X90549486Y-78987405D01*
X90567555Y-78971691D01*
X90596498Y-78948032D01*
X90622262Y-78929666D01*
X90636498Y-78921826D01*
X90652977Y-78918538D01*
X90685993Y-78914110D01*
X90731824Y-78908967D01*
X90786748Y-78903530D01*
X90836899Y-78899069D01*
X90913232Y-78892542D01*
X90999518Y-78885033D01*
X91086727Y-78877337D01*
X91165830Y-78870247D01*
X91189597Y-78868086D01*
X91355928Y-78853034D01*
X91505098Y-78839840D01*
X91636338Y-78828571D01*
X91748883Y-78819291D01*
X91839837Y-78812226D01*
X91899119Y-78807490D01*
X91960063Y-78802079D01*
X92015096Y-78796695D01*
X92053197Y-78792466D01*
X92104288Y-78786915D01*
X92163782Y-78781463D01*
X92219787Y-78777189D01*
X92225917Y-78776794D01*
X92282508Y-78772562D01*
X92345813Y-78766809D01*
X92402873Y-78760719D01*
X92406992Y-78760227D01*
X92447424Y-78755944D01*
X92479612Y-78753657D01*
X92498692Y-78753659D01*
G36*
X95888597Y-82469885D02*
G01*
X96264517Y-82469885D01*
X96264517Y-82744205D01*
X95573637Y-82744205D01*
X95573637Y-81525005D01*
X95888597Y-81525005D01*
X95888597Y-82469885D01*
G37*
X95888597Y-82469885D02*
X96264517Y-82469885D01*
X96264517Y-82744205D01*
X95573637Y-82744205D01*
X95573637Y-81525005D01*
X95888597Y-81525005D01*
X95888597Y-82469885D01*
G36*
X83775875Y-81527289D02*
G01*
X83935357Y-81530085D01*
X83934979Y-81946645D01*
X83934792Y-82052663D01*
X83934383Y-82140563D01*
X83933670Y-82212544D01*
X83932572Y-82270808D01*
X83931005Y-82317556D01*
X83928887Y-82354987D01*
X83926135Y-82385303D01*
X83922667Y-82410705D01*
X83918400Y-82433392D01*
X83916387Y-82442480D01*
X83886570Y-82529321D01*
X83840169Y-82605006D01*
X83778343Y-82668283D01*
X83702252Y-82717900D01*
X83635637Y-82745689D01*
X83588842Y-82756846D01*
X83527713Y-82765174D01*
X83458061Y-82770483D01*
X83385699Y-82772582D01*
X83316440Y-82771281D01*
X83256096Y-82766390D01*
X83216767Y-82759421D01*
X83129871Y-82728791D01*
X83051954Y-82683912D01*
X82986247Y-82627138D01*
X82935980Y-82560822D01*
X82930318Y-82550835D01*
X82917450Y-82525175D01*
X82906680Y-82498221D01*
X82897825Y-82467972D01*
X82890702Y-82432424D01*
X82885128Y-82389576D01*
X82880921Y-82337424D01*
X82877896Y-82273965D01*
X82875873Y-82197199D01*
X82874667Y-82105122D01*
X82874096Y-81995731D01*
X82873991Y-81933945D01*
X82873637Y-81525005D01*
X83186773Y-81525005D01*
X83191028Y-81918705D01*
X83192343Y-82028068D01*
X83193878Y-82119109D01*
X83195883Y-82193827D01*
X83198606Y-82254220D01*
X83202299Y-82302286D01*
X83207211Y-82340023D01*
X83213591Y-82369430D01*
X83221689Y-82392505D01*
X83231755Y-82411247D01*
X83244038Y-82427653D01*
X83256315Y-82441157D01*
X83293102Y-82467766D01*
X83341655Y-82487009D01*
X83394037Y-82496492D01*
X83435351Y-82495139D01*
X83498078Y-82476525D01*
X83546941Y-82443069D01*
X83582006Y-82394725D01*
X83585950Y-82386472D01*
X83592034Y-82372630D01*
X83597022Y-82359231D01*
X83601042Y-82344167D01*
X83604219Y-82325326D01*
X83606679Y-82300599D01*
X83608549Y-82267874D01*
X83609954Y-82225041D01*
X83611021Y-82169990D01*
X83611876Y-82100611D01*
X83612644Y-82014792D01*
X83613315Y-81928609D01*
X83616393Y-81524494D01*
X83775875Y-81527289D01*
G37*
X83775875Y-81527289D02*
X83935357Y-81530085D01*
X83934979Y-81946645D01*
X83934792Y-82052663D01*
X83934383Y-82140563D01*
X83933670Y-82212544D01*
X83932572Y-82270808D01*
X83931005Y-82317556D01*
X83928887Y-82354987D01*
X83926135Y-82385303D01*
X83922667Y-82410705D01*
X83918400Y-82433392D01*
X83916387Y-82442480D01*
X83886570Y-82529321D01*
X83840169Y-82605006D01*
X83778343Y-82668283D01*
X83702252Y-82717900D01*
X83635637Y-82745689D01*
X83588842Y-82756846D01*
X83527713Y-82765174D01*
X83458061Y-82770483D01*
X83385699Y-82772582D01*
X83316440Y-82771281D01*
X83256096Y-82766390D01*
X83216767Y-82759421D01*
X83129871Y-82728791D01*
X83051954Y-82683912D01*
X82986247Y-82627138D01*
X82935980Y-82560822D01*
X82930318Y-82550835D01*
X82917450Y-82525175D01*
X82906680Y-82498221D01*
X82897825Y-82467972D01*
X82890702Y-82432424D01*
X82885128Y-82389576D01*
X82880921Y-82337424D01*
X82877896Y-82273965D01*
X82875873Y-82197199D01*
X82874667Y-82105122D01*
X82874096Y-81995731D01*
X82873991Y-81933945D01*
X82873637Y-81525005D01*
X83186773Y-81525005D01*
X83191028Y-81918705D01*
X83192343Y-82028068D01*
X83193878Y-82119109D01*
X83195883Y-82193827D01*
X83198606Y-82254220D01*
X83202299Y-82302286D01*
X83207211Y-82340023D01*
X83213591Y-82369430D01*
X83221689Y-82392505D01*
X83231755Y-82411247D01*
X83244038Y-82427653D01*
X83256315Y-82441157D01*
X83293102Y-82467766D01*
X83341655Y-82487009D01*
X83394037Y-82496492D01*
X83435351Y-82495139D01*
X83498078Y-82476525D01*
X83546941Y-82443069D01*
X83582006Y-82394725D01*
X83585950Y-82386472D01*
X83592034Y-82372630D01*
X83597022Y-82359231D01*
X83601042Y-82344167D01*
X83604219Y-82325326D01*
X83606679Y-82300599D01*
X83608549Y-82267874D01*
X83609954Y-82225041D01*
X83611021Y-82169990D01*
X83611876Y-82100611D01*
X83612644Y-82014792D01*
X83613315Y-81928609D01*
X83616393Y-81524494D01*
X83775875Y-81527289D01*
G36*
X93671872Y-83424925D02*
G01*
X93756319Y-83428890D01*
X93823882Y-83441128D01*
X93876459Y-83462147D01*
X93913434Y-83489890D01*
X93946969Y-83536540D01*
X93964749Y-83590420D01*
X93967726Y-83647615D01*
X93956854Y-83704207D01*
X93933084Y-83756280D01*
X93897368Y-83799919D01*
X93850659Y-83831206D01*
X93828413Y-83839596D01*
X93802518Y-83848191D01*
X93787231Y-83854883D01*
X93785477Y-83856569D01*
X93791094Y-83865716D01*
X93806758Y-83888820D01*
X93830688Y-83923317D01*
X93861101Y-83966641D01*
X93896218Y-84016229D01*
X93902317Y-84024801D01*
X93938035Y-84075170D01*
X93969344Y-84119696D01*
X93994461Y-84155814D01*
X94011607Y-84180959D01*
X94018998Y-84192568D01*
X94019157Y-84193004D01*
X94009982Y-84195275D01*
X93986396Y-84196756D01*
X93965273Y-84197085D01*
X93911389Y-84197085D01*
X93797162Y-84029445D01*
X93761854Y-83978308D01*
X93730005Y-83933463D01*
X93703489Y-83897449D01*
X93684183Y-83872804D01*
X93673964Y-83862065D01*
X93673245Y-83861805D01*
X93669691Y-83871555D01*
X93666820Y-83899182D01*
X93664773Y-83942249D01*
X93663692Y-83998320D01*
X93663557Y-84029445D01*
X93663557Y-84197085D01*
X93572117Y-84197085D01*
X93572117Y-83782866D01*
X93663557Y-83782866D01*
X93721977Y-83775624D01*
X93760905Y-83769118D01*
X93796811Y-83760366D01*
X93812742Y-83754934D01*
X93845858Y-83731054D01*
X93867479Y-83694858D01*
X93876488Y-83651502D01*
X93871765Y-83606140D01*
X93853705Y-83566127D01*
X93820828Y-83533434D01*
X93774308Y-83513849D01*
X93712753Y-83506790D01*
X93711817Y-83506778D01*
X93663557Y-83506205D01*
X93663557Y-83782866D01*
X93572117Y-83782866D01*
X93572117Y-83424925D01*
X93671872Y-83424925D01*
G37*
X93671872Y-83424925D02*
X93756319Y-83428890D01*
X93823882Y-83441128D01*
X93876459Y-83462147D01*
X93913434Y-83489890D01*
X93946969Y-83536540D01*
X93964749Y-83590420D01*
X93967726Y-83647615D01*
X93956854Y-83704207D01*
X93933084Y-83756280D01*
X93897368Y-83799919D01*
X93850659Y-83831206D01*
X93828413Y-83839596D01*
X93802518Y-83848191D01*
X93787231Y-83854883D01*
X93785477Y-83856569D01*
X93791094Y-83865716D01*
X93806758Y-83888820D01*
X93830688Y-83923317D01*
X93861101Y-83966641D01*
X93896218Y-84016229D01*
X93902317Y-84024801D01*
X93938035Y-84075170D01*
X93969344Y-84119696D01*
X93994461Y-84155814D01*
X94011607Y-84180959D01*
X94018998Y-84192568D01*
X94019157Y-84193004D01*
X94009982Y-84195275D01*
X93986396Y-84196756D01*
X93965273Y-84197085D01*
X93911389Y-84197085D01*
X93797162Y-84029445D01*
X93761854Y-83978308D01*
X93730005Y-83933463D01*
X93703489Y-83897449D01*
X93684183Y-83872804D01*
X93673964Y-83862065D01*
X93673245Y-83861805D01*
X93669691Y-83871555D01*
X93666820Y-83899182D01*
X93664773Y-83942249D01*
X93663692Y-83998320D01*
X93663557Y-84029445D01*
X93663557Y-84197085D01*
X93572117Y-84197085D01*
X93572117Y-83782866D01*
X93663557Y-83782866D01*
X93721977Y-83775624D01*
X93760905Y-83769118D01*
X93796811Y-83760366D01*
X93812742Y-83754934D01*
X93845858Y-83731054D01*
X93867479Y-83694858D01*
X93876488Y-83651502D01*
X93871765Y-83606140D01*
X93853705Y-83566127D01*
X93820828Y-83533434D01*
X93774308Y-83513849D01*
X93712753Y-83506790D01*
X93711817Y-83506778D01*
X93663557Y-83506205D01*
X93663557Y-83782866D01*
X93572117Y-83782866D01*
X93572117Y-83424925D01*
X93671872Y-83424925D01*
G36*
X92068437Y-83506205D02*
G01*
X91875397Y-83506205D01*
X91875397Y-84197085D01*
X91794117Y-84197085D01*
X91794117Y-83506205D01*
X91601077Y-83506205D01*
X91601077Y-83424925D01*
X92068437Y-83424925D01*
X92068437Y-83506205D01*
G37*
X92068437Y-83506205D02*
X91875397Y-83506205D01*
X91875397Y-84197085D01*
X91794117Y-84197085D01*
X91794117Y-83506205D01*
X91601077Y-83506205D01*
X91601077Y-83424925D01*
X92068437Y-83424925D01*
X92068437Y-83506205D01*
G36*
X93301315Y-81526923D02*
G01*
X93332986Y-81528502D01*
X93351256Y-81531443D01*
X93358425Y-81535881D01*
X93358757Y-81537417D01*
X93354862Y-81548783D01*
X93343629Y-81577214D01*
X93325727Y-81621102D01*
X93301831Y-81678837D01*
X93272612Y-81748810D01*
X93238743Y-81829414D01*
X93200896Y-81919040D01*
X93159743Y-82016078D01*
X93115958Y-82118920D01*
X93103861Y-82147263D01*
X92848966Y-82744205D01*
X92722610Y-82744205D01*
X92669980Y-82744029D01*
X92634102Y-82743102D01*
X92611406Y-82740818D01*
X92598324Y-82736577D01*
X92591289Y-82729774D01*
X92587325Y-82721345D01*
X92581884Y-82708123D01*
X92569261Y-82677849D01*
X92550157Y-82632197D01*
X92525277Y-82572842D01*
X92495323Y-82501458D01*
X92460997Y-82419720D01*
X92423003Y-82329303D01*
X92382043Y-82231882D01*
X92338821Y-82129132D01*
X92333577Y-82116669D01*
X92290421Y-82014027D01*
X92249690Y-81916997D01*
X92212055Y-81827187D01*
X92178188Y-81746205D01*
X92148759Y-81675662D01*
X92124439Y-81617165D01*
X92105900Y-81572323D01*
X92093812Y-81542745D01*
X92088846Y-81530040D01*
X92088757Y-81529689D01*
X92098366Y-81528154D01*
X92125006Y-81527123D01*
X92165392Y-81526639D01*
X92216238Y-81526749D01*
X92262848Y-81527305D01*
X92436939Y-81530085D01*
X92581384Y-81894244D01*
X92725829Y-82258404D01*
X92872113Y-81894244D01*
X93018397Y-81530085D01*
X93188577Y-81527299D01*
X93253945Y-81526567D01*
X93301315Y-81526923D01*
G37*
X93301315Y-81526923D02*
X93332986Y-81528502D01*
X93351256Y-81531443D01*
X93358425Y-81535881D01*
X93358757Y-81537417D01*
X93354862Y-81548783D01*
X93343629Y-81577214D01*
X93325727Y-81621102D01*
X93301831Y-81678837D01*
X93272612Y-81748810D01*
X93238743Y-81829414D01*
X93200896Y-81919040D01*
X93159743Y-82016078D01*
X93115958Y-82118920D01*
X93103861Y-82147263D01*
X92848966Y-82744205D01*
X92722610Y-82744205D01*
X92669980Y-82744029D01*
X92634102Y-82743102D01*
X92611406Y-82740818D01*
X92598324Y-82736577D01*
X92591289Y-82729774D01*
X92587325Y-82721345D01*
X92581884Y-82708123D01*
X92569261Y-82677849D01*
X92550157Y-82632197D01*
X92525277Y-82572842D01*
X92495323Y-82501458D01*
X92460997Y-82419720D01*
X92423003Y-82329303D01*
X92382043Y-82231882D01*
X92338821Y-82129132D01*
X92333577Y-82116669D01*
X92290421Y-82014027D01*
X92249690Y-81916997D01*
X92212055Y-81827187D01*
X92178188Y-81746205D01*
X92148759Y-81675662D01*
X92124439Y-81617165D01*
X92105900Y-81572323D01*
X92093812Y-81542745D01*
X92088846Y-81530040D01*
X92088757Y-81529689D01*
X92098366Y-81528154D01*
X92125006Y-81527123D01*
X92165392Y-81526639D01*
X92216238Y-81526749D01*
X92262848Y-81527305D01*
X92436939Y-81530085D01*
X92581384Y-81894244D01*
X92725829Y-82258404D01*
X92872113Y-81894244D01*
X93018397Y-81530085D01*
X93188577Y-81527299D01*
X93253945Y-81526567D01*
X93301315Y-81526923D01*
G36*
X90107557Y-83506205D02*
G01*
X89792597Y-83506205D01*
X89792597Y-83729725D01*
X90097397Y-83729725D01*
X90097397Y-83810461D01*
X89797677Y-83816085D01*
X89792039Y-84105645D01*
X90107557Y-84105645D01*
X90107557Y-84197085D01*
X89711317Y-84197085D01*
X89711317Y-83424925D01*
X90107557Y-83424925D01*
X90107557Y-83506205D01*
G37*
X90107557Y-83506205D02*
X89792597Y-83506205D01*
X89792597Y-83729725D01*
X90097397Y-83729725D01*
X90097397Y-83810461D01*
X89797677Y-83816085D01*
X89792039Y-84105645D01*
X90107557Y-84105645D01*
X90107557Y-84197085D01*
X89711317Y-84197085D01*
X89711317Y-83424925D01*
X90107557Y-83424925D01*
X90107557Y-83506205D01*
G36*
X87750437Y-83744726D02*
G01*
X87910572Y-83584825D01*
X88070708Y-83424925D01*
X88192179Y-83424925D01*
X87837695Y-83779843D01*
X87858289Y-83803044D01*
X87871098Y-83817367D01*
X87895162Y-83844179D01*
X87928136Y-83880869D01*
X87967675Y-83924829D01*
X88011433Y-83973450D01*
X88025480Y-83989051D01*
X88069984Y-84038528D01*
X88110901Y-84084111D01*
X88145907Y-84123206D01*
X88172678Y-84153215D01*
X88188892Y-84171544D01*
X88191431Y-84174471D01*
X88210786Y-84197085D01*
X88087477Y-84197085D01*
X87932707Y-84024014D01*
X87887988Y-83974689D01*
X87847355Y-83931162D01*
X87812855Y-83895522D01*
X87786537Y-83869858D01*
X87770448Y-83856259D01*
X87766727Y-83854671D01*
X87761744Y-83866605D01*
X87757755Y-83898630D01*
X87754777Y-83950540D01*
X87752826Y-84022131D01*
X87752731Y-84027741D01*
X87749945Y-84197085D01*
X87711244Y-84197085D01*
X87684478Y-84195451D01*
X87667389Y-84191414D01*
X87665770Y-84190311D01*
X87664240Y-84178954D01*
X87662830Y-84149556D01*
X87661582Y-84104397D01*
X87660535Y-84045757D01*
X87659728Y-83975916D01*
X87659203Y-83897151D01*
X87658998Y-83811744D01*
X87658997Y-83804231D01*
X87658997Y-83424925D01*
X87750437Y-83424925D01*
X87750437Y-83744726D01*
G37*
X87750437Y-83744726D02*
X87910572Y-83584825D01*
X88070708Y-83424925D01*
X88192179Y-83424925D01*
X87837695Y-83779843D01*
X87858289Y-83803044D01*
X87871098Y-83817367D01*
X87895162Y-83844179D01*
X87928136Y-83880869D01*
X87967675Y-83924829D01*
X88011433Y-83973450D01*
X88025480Y-83989051D01*
X88069984Y-84038528D01*
X88110901Y-84084111D01*
X88145907Y-84123206D01*
X88172678Y-84153215D01*
X88188892Y-84171544D01*
X88191431Y-84174471D01*
X88210786Y-84197085D01*
X88087477Y-84197085D01*
X87932707Y-84024014D01*
X87887988Y-83974689D01*
X87847355Y-83931162D01*
X87812855Y-83895522D01*
X87786537Y-83869858D01*
X87770448Y-83856259D01*
X87766727Y-83854671D01*
X87761744Y-83866605D01*
X87757755Y-83898630D01*
X87754777Y-83950540D01*
X87752826Y-84022131D01*
X87752731Y-84027741D01*
X87749945Y-84197085D01*
X87711244Y-84197085D01*
X87684478Y-84195451D01*
X87667389Y-84191414D01*
X87665770Y-84190311D01*
X87664240Y-84178954D01*
X87662830Y-84149556D01*
X87661582Y-84104397D01*
X87660535Y-84045757D01*
X87659728Y-83975916D01*
X87659203Y-83897151D01*
X87658998Y-83811744D01*
X87658997Y-83804231D01*
X87658997Y-83424925D01*
X87750437Y-83424925D01*
X87750437Y-83744726D01*
G36*
X93897687Y-76482668D02*
G01*
X93890980Y-76501337D01*
X93874740Y-76527173D01*
X93873016Y-76529502D01*
X93855224Y-76556688D01*
X93842936Y-76581520D01*
X93841851Y-76584705D01*
X93832950Y-76602440D01*
X93825432Y-76607565D01*
X93817022Y-76615804D01*
X93815957Y-76622805D01*
X93811824Y-76636349D01*
X93808337Y-76638055D01*
X93799735Y-76646225D01*
X93785125Y-76667431D01*
X93770917Y-76691395D01*
X93750234Y-76727054D01*
X93723874Y-76770661D01*
X93697308Y-76813177D01*
X93695604Y-76815845D01*
X93669028Y-76858464D01*
X93642153Y-76903327D01*
X93620567Y-76941097D01*
X93619611Y-76942845D01*
X93596520Y-76982934D01*
X93568867Y-77027840D01*
X93549903Y-77056942D01*
X93528992Y-77089033D01*
X93512396Y-77116430D01*
X93503946Y-77132692D01*
X93489878Y-77157827D01*
X93471280Y-77178078D01*
X93454408Y-77186677D01*
X93454022Y-77186685D01*
X93440338Y-77189616D01*
X93411284Y-77197644D01*
X93370827Y-77209618D01*
X93322933Y-77224389D01*
X93311500Y-77227993D01*
X93258479Y-77244707D01*
X93208152Y-77260458D01*
X93165902Y-77273569D01*
X93137112Y-77282362D01*
X93135237Y-77282923D01*
X93097076Y-77294352D01*
X93053639Y-77307445D01*
X93036177Y-77312734D01*
X92923718Y-77346653D01*
X92832977Y-77373747D01*
X92804618Y-77382312D01*
X92759493Y-77396114D01*
X92700235Y-77414340D01*
X92629477Y-77436177D01*
X92549851Y-77460812D01*
X92463990Y-77487432D01*
X92374526Y-77515224D01*
X92337677Y-77526688D01*
X92277785Y-77545232D01*
X92210555Y-77565901D01*
X92146670Y-77585413D01*
X92119237Y-77593737D01*
X92061481Y-77611308D01*
X91997594Y-77630906D01*
X91938071Y-77649305D01*
X91916037Y-77656168D01*
X91870226Y-77670427D01*
X91827726Y-77683554D01*
X91794933Y-77693578D01*
X91783957Y-77696875D01*
X91749567Y-77707283D01*
X91712216Y-77718881D01*
X91707757Y-77720289D01*
X91672432Y-77731285D01*
X91631414Y-77743790D01*
X91616317Y-77748323D01*
X91578225Y-77759809D01*
X91523492Y-77776483D01*
X91454880Y-77797497D01*
X91375149Y-77822004D01*
X91287061Y-77849156D01*
X91193378Y-77878105D01*
X91189597Y-77879275D01*
X91135636Y-77895958D01*
X91083806Y-77911959D01*
X91039680Y-77925557D01*
X91008837Y-77935033D01*
X91006717Y-77935681D01*
X90967365Y-77947851D01*
X90928100Y-77960198D01*
X90915277Y-77964294D01*
X90884926Y-77973704D01*
X90843707Y-77986031D01*
X90800309Y-77998680D01*
X90798437Y-77999217D01*
X90758514Y-78011023D01*
X90723646Y-78021967D01*
X90700653Y-78029900D01*
X90698898Y-78030595D01*
X90670929Y-78038843D01*
X90651644Y-78038557D01*
X90646037Y-78031921D01*
X90654632Y-78024362D01*
X90677751Y-78010710D01*
X90711389Y-77993220D01*
X90734937Y-77981832D01*
X90767966Y-77966234D01*
X90806687Y-77947877D01*
X90852978Y-77925862D01*
X90908722Y-77899294D01*
X90975798Y-77867275D01*
X91056087Y-77828908D01*
X91151469Y-77783297D01*
X91230237Y-77745616D01*
X91269988Y-77726572D01*
X91322955Y-77701160D01*
X91384046Y-77671824D01*
X91448167Y-77641010D01*
X91498106Y-77616996D01*
X91552911Y-77590704D01*
X91601097Y-77567725D01*
X91639809Y-77549409D01*
X91666194Y-77537105D01*
X91677399Y-77532162D01*
X91677567Y-77532125D01*
X91687159Y-77527882D01*
X91712485Y-77515965D01*
X91751005Y-77497588D01*
X91800181Y-77473965D01*
X91857473Y-77446312D01*
X91900557Y-77425445D01*
X91961992Y-77395710D01*
X92017077Y-77369166D01*
X92063272Y-77347028D01*
X92098035Y-77330509D01*
X92118826Y-77320826D01*
X92123698Y-77318765D01*
X92133383Y-77314556D01*
X92158585Y-77302807D01*
X92196533Y-77284832D01*
X92244456Y-77261945D01*
X92299581Y-77235461D01*
X92313559Y-77228723D01*
X92377670Y-77197838D01*
X92442474Y-77166687D01*
X92503169Y-77137573D01*
X92554956Y-77112799D01*
X92591677Y-77095311D01*
X92627070Y-77078490D01*
X92678171Y-77054159D01*
X92742352Y-77023570D01*
X92816987Y-76987977D01*
X92899451Y-76948633D01*
X92987116Y-76906790D01*
X93077356Y-76863701D01*
X93167546Y-76820621D01*
X93255058Y-76778801D01*
X93257157Y-76777798D01*
X93298099Y-76758201D01*
X93351376Y-76732660D01*
X93411012Y-76704042D01*
X93471033Y-76675214D01*
X93490837Y-76665695D01*
X93591071Y-76617582D01*
X93678624Y-76575711D01*
X93752555Y-76540523D01*
X93811927Y-76512464D01*
X93855801Y-76491977D01*
X93883238Y-76479505D01*
X93893242Y-76475485D01*
X93897687Y-76482668D01*
G37*
X93897687Y-76482668D02*
X93890980Y-76501337D01*
X93874740Y-76527173D01*
X93873016Y-76529502D01*
X93855224Y-76556688D01*
X93842936Y-76581520D01*
X93841851Y-76584705D01*
X93832950Y-76602440D01*
X93825432Y-76607565D01*
X93817022Y-76615804D01*
X93815957Y-76622805D01*
X93811824Y-76636349D01*
X93808337Y-76638055D01*
X93799735Y-76646225D01*
X93785125Y-76667431D01*
X93770917Y-76691395D01*
X93750234Y-76727054D01*
X93723874Y-76770661D01*
X93697308Y-76813177D01*
X93695604Y-76815845D01*
X93669028Y-76858464D01*
X93642153Y-76903327D01*
X93620567Y-76941097D01*
X93619611Y-76942845D01*
X93596520Y-76982934D01*
X93568867Y-77027840D01*
X93549903Y-77056942D01*
X93528992Y-77089033D01*
X93512396Y-77116430D01*
X93503946Y-77132692D01*
X93489878Y-77157827D01*
X93471280Y-77178078D01*
X93454408Y-77186677D01*
X93454022Y-77186685D01*
X93440338Y-77189616D01*
X93411284Y-77197644D01*
X93370827Y-77209618D01*
X93322933Y-77224389D01*
X93311500Y-77227993D01*
X93258479Y-77244707D01*
X93208152Y-77260458D01*
X93165902Y-77273569D01*
X93137112Y-77282362D01*
X93135237Y-77282923D01*
X93097076Y-77294352D01*
X93053639Y-77307445D01*
X93036177Y-77312734D01*
X92923718Y-77346653D01*
X92832977Y-77373747D01*
X92804618Y-77382312D01*
X92759493Y-77396114D01*
X92700235Y-77414340D01*
X92629477Y-77436177D01*
X92549851Y-77460812D01*
X92463990Y-77487432D01*
X92374526Y-77515224D01*
X92337677Y-77526688D01*
X92277785Y-77545232D01*
X92210555Y-77565901D01*
X92146670Y-77585413D01*
X92119237Y-77593737D01*
X92061481Y-77611308D01*
X91997594Y-77630906D01*
X91938071Y-77649305D01*
X91916037Y-77656168D01*
X91870226Y-77670427D01*
X91827726Y-77683554D01*
X91794933Y-77693578D01*
X91783957Y-77696875D01*
X91749567Y-77707283D01*
X91712216Y-77718881D01*
X91707757Y-77720289D01*
X91672432Y-77731285D01*
X91631414Y-77743790D01*
X91616317Y-77748323D01*
X91578225Y-77759809D01*
X91523492Y-77776483D01*
X91454880Y-77797497D01*
X91375149Y-77822004D01*
X91287061Y-77849156D01*
X91193378Y-77878105D01*
X91189597Y-77879275D01*
X91135636Y-77895958D01*
X91083806Y-77911959D01*
X91039680Y-77925557D01*
X91008837Y-77935033D01*
X91006717Y-77935681D01*
X90967365Y-77947851D01*
X90928100Y-77960198D01*
X90915277Y-77964294D01*
X90884926Y-77973704D01*
X90843707Y-77986031D01*
X90800309Y-77998680D01*
X90798437Y-77999217D01*
X90758514Y-78011023D01*
X90723646Y-78021967D01*
X90700653Y-78029900D01*
X90698898Y-78030595D01*
X90670929Y-78038843D01*
X90651644Y-78038557D01*
X90646037Y-78031921D01*
X90654632Y-78024362D01*
X90677751Y-78010710D01*
X90711389Y-77993220D01*
X90734937Y-77981832D01*
X90767966Y-77966234D01*
X90806687Y-77947877D01*
X90852978Y-77925862D01*
X90908722Y-77899294D01*
X90975798Y-77867275D01*
X91056087Y-77828908D01*
X91151469Y-77783297D01*
X91230237Y-77745616D01*
X91269988Y-77726572D01*
X91322955Y-77701160D01*
X91384046Y-77671824D01*
X91448167Y-77641010D01*
X91498106Y-77616996D01*
X91552911Y-77590704D01*
X91601097Y-77567725D01*
X91639809Y-77549409D01*
X91666194Y-77537105D01*
X91677399Y-77532162D01*
X91677567Y-77532125D01*
X91687159Y-77527882D01*
X91712485Y-77515965D01*
X91751005Y-77497588D01*
X91800181Y-77473965D01*
X91857473Y-77446312D01*
X91900557Y-77425445D01*
X91961992Y-77395710D01*
X92017077Y-77369166D01*
X92063272Y-77347028D01*
X92098035Y-77330509D01*
X92118826Y-77320826D01*
X92123698Y-77318765D01*
X92133383Y-77314556D01*
X92158585Y-77302807D01*
X92196533Y-77284832D01*
X92244456Y-77261945D01*
X92299581Y-77235461D01*
X92313559Y-77228723D01*
X92377670Y-77197838D01*
X92442474Y-77166687D01*
X92503169Y-77137573D01*
X92554956Y-77112799D01*
X92591677Y-77095311D01*
X92627070Y-77078490D01*
X92678171Y-77054159D01*
X92742352Y-77023570D01*
X92816987Y-76987977D01*
X92899451Y-76948633D01*
X92987116Y-76906790D01*
X93077356Y-76863701D01*
X93167546Y-76820621D01*
X93255058Y-76778801D01*
X93257157Y-76777798D01*
X93298099Y-76758201D01*
X93351376Y-76732660D01*
X93411012Y-76704042D01*
X93471033Y-76675214D01*
X93490837Y-76665695D01*
X93591071Y-76617582D01*
X93678624Y-76575711D01*
X93752555Y-76540523D01*
X93811927Y-76512464D01*
X93855801Y-76491977D01*
X93883238Y-76479505D01*
X93893242Y-76475485D01*
X93897687Y-76482668D01*
G36*
X88794377Y-81527313D02*
G01*
X88878006Y-81528694D01*
X88944229Y-81530083D01*
X88995958Y-81531729D01*
X89036104Y-81533884D01*
X89067581Y-81536798D01*
X89093300Y-81540722D01*
X89116173Y-81545908D01*
X89139112Y-81552606D01*
X89157597Y-81558602D01*
X89256221Y-81601334D01*
X89346032Y-81660337D01*
X89424564Y-81733199D01*
X89489350Y-81817509D01*
X89537921Y-81910856D01*
X89549407Y-81941565D01*
X89566318Y-82009996D01*
X89575818Y-82089301D01*
X89577533Y-82171290D01*
X89571091Y-82247774D01*
X89564841Y-82280774D01*
X89531950Y-82377686D01*
X89481352Y-82468689D01*
X89415381Y-82551215D01*
X89336372Y-82622698D01*
X89246662Y-82680568D01*
X89170020Y-82714877D01*
X89150598Y-82721603D01*
X89131441Y-82726939D01*
X89109878Y-82731087D01*
X89083237Y-82734244D01*
X89048846Y-82736612D01*
X89004033Y-82738389D01*
X88946127Y-82739775D01*
X88872456Y-82740970D01*
X88809617Y-82741805D01*
X88512437Y-82745581D01*
X88512437Y-82472370D01*
X88837557Y-82472370D01*
X88926457Y-82467800D01*
X88993449Y-82461200D01*
X89046637Y-82448431D01*
X89068328Y-82440065D01*
X89124455Y-82406534D01*
X89173684Y-82360185D01*
X89211104Y-82306370D01*
X89227950Y-82266095D01*
X89236414Y-82226556D01*
X89242215Y-82178340D01*
X89243957Y-82139685D01*
X89238612Y-82061661D01*
X89221620Y-81997012D01*
X89191538Y-81941543D01*
X89164701Y-81908869D01*
X89134327Y-81879458D01*
X89103088Y-81854016D01*
X89081647Y-81840255D01*
X89032064Y-81821295D01*
X88971480Y-81807208D01*
X88909000Y-81799916D01*
X88887856Y-81799325D01*
X88837557Y-81799325D01*
X88837557Y-82472370D01*
X88512437Y-82472370D01*
X88512437Y-81522897D01*
X88794377Y-81527313D01*
G37*
X88794377Y-81527313D02*
X88878006Y-81528694D01*
X88944229Y-81530083D01*
X88995958Y-81531729D01*
X89036104Y-81533884D01*
X89067581Y-81536798D01*
X89093300Y-81540722D01*
X89116173Y-81545908D01*
X89139112Y-81552606D01*
X89157597Y-81558602D01*
X89256221Y-81601334D01*
X89346032Y-81660337D01*
X89424564Y-81733199D01*
X89489350Y-81817509D01*
X89537921Y-81910856D01*
X89549407Y-81941565D01*
X89566318Y-82009996D01*
X89575818Y-82089301D01*
X89577533Y-82171290D01*
X89571091Y-82247774D01*
X89564841Y-82280774D01*
X89531950Y-82377686D01*
X89481352Y-82468689D01*
X89415381Y-82551215D01*
X89336372Y-82622698D01*
X89246662Y-82680568D01*
X89170020Y-82714877D01*
X89150598Y-82721603D01*
X89131441Y-82726939D01*
X89109878Y-82731087D01*
X89083237Y-82734244D01*
X89048846Y-82736612D01*
X89004033Y-82738389D01*
X88946127Y-82739775D01*
X88872456Y-82740970D01*
X88809617Y-82741805D01*
X88512437Y-82745581D01*
X88512437Y-82472370D01*
X88837557Y-82472370D01*
X88926457Y-82467800D01*
X88993449Y-82461200D01*
X89046637Y-82448431D01*
X89068328Y-82440065D01*
X89124455Y-82406534D01*
X89173684Y-82360185D01*
X89211104Y-82306370D01*
X89227950Y-82266095D01*
X89236414Y-82226556D01*
X89242215Y-82178340D01*
X89243957Y-82139685D01*
X89238612Y-82061661D01*
X89221620Y-81997012D01*
X89191538Y-81941543D01*
X89164701Y-81908869D01*
X89134327Y-81879458D01*
X89103088Y-81854016D01*
X89081647Y-81840255D01*
X89032064Y-81821295D01*
X88971480Y-81807208D01*
X88909000Y-81799916D01*
X88887856Y-81799325D01*
X88837557Y-81799325D01*
X88837557Y-82472370D01*
X88512437Y-82472370D01*
X88512437Y-81522897D01*
X88794377Y-81527313D01*
G36*
X84439842Y-78107736D02*
G01*
X84477617Y-78114760D01*
X84506413Y-78120923D01*
X84590992Y-78139827D01*
X84662402Y-78155577D01*
X84727268Y-78169618D01*
X84792212Y-78183394D01*
X84809117Y-78186941D01*
X84849900Y-78195525D01*
X84884924Y-78202972D01*
X84907846Y-78207932D01*
X84910717Y-78208574D01*
X84940526Y-78215254D01*
X84985076Y-78225135D01*
X85039318Y-78237108D01*
X85098208Y-78250065D01*
X85156697Y-78262895D01*
X85209740Y-78274491D01*
X85252290Y-78283743D01*
X85276477Y-78288945D01*
X85352471Y-78305100D01*
X85411988Y-78317769D01*
X85458428Y-78327681D01*
X85495191Y-78335563D01*
X85525677Y-78342144D01*
X85553286Y-78348151D01*
X85566037Y-78350939D01*
X85610869Y-78360428D01*
X85663909Y-78371181D01*
X85711657Y-78380483D01*
X85749978Y-78388136D01*
X85780360Y-78394929D01*
X85797426Y-78399641D01*
X85798951Y-78400332D01*
X85812609Y-78404544D01*
X85839479Y-78410281D01*
X85861611Y-78414244D01*
X85896504Y-78420711D01*
X85947508Y-78431063D01*
X86010956Y-78444514D01*
X86083181Y-78460282D01*
X86160518Y-78477582D01*
X86201037Y-78486810D01*
X86231010Y-78493482D01*
X86272539Y-78502479D01*
X86317285Y-78511998D01*
X86322957Y-78513191D01*
X86376323Y-78524531D01*
X86436002Y-78537413D01*
X86485517Y-78548265D01*
X86534618Y-78559044D01*
X86586030Y-78570177D01*
X86628828Y-78579298D01*
X86629759Y-78579494D01*
X86692722Y-78592718D01*
X87420963Y-79321011D01*
X87521942Y-79422142D01*
X87618697Y-79519326D01*
X87710277Y-79611591D01*
X87795730Y-79697966D01*
X87874104Y-79777478D01*
X87944447Y-79849157D01*
X88005806Y-79912030D01*
X88057231Y-79965126D01*
X88097770Y-80007474D01*
X88126469Y-80038100D01*
X88142379Y-80056035D01*
X88145400Y-80060504D01*
X88136552Y-80059936D01*
X88116650Y-80048177D01*
X88089706Y-80027672D01*
X88084905Y-80023654D01*
X88047325Y-79991932D01*
X88007284Y-79958329D01*
X87979273Y-79934965D01*
X87913651Y-79880428D01*
X87859234Y-79835080D01*
X87811549Y-79795178D01*
X87766129Y-79756977D01*
X87718502Y-79716735D01*
X87698830Y-79700072D01*
X87663248Y-79670158D01*
X87623508Y-79637089D01*
X87602795Y-79620005D01*
X87567377Y-79590730D01*
X87530458Y-79559908D01*
X87511355Y-79543805D01*
X87478886Y-79516507D01*
X87441285Y-79485228D01*
X87419915Y-79467605D01*
X87384400Y-79438309D01*
X87347278Y-79407470D01*
X87328072Y-79391405D01*
X87303750Y-79371076D01*
X87268413Y-79341673D01*
X87226715Y-79307061D01*
X87183307Y-79271105D01*
X87181348Y-79269485D01*
X87132150Y-79228619D01*
X87078861Y-79184085D01*
X87028443Y-79141716D01*
X86993332Y-79112005D01*
X86949355Y-79074724D01*
X86897352Y-79030821D01*
X86844905Y-78986689D01*
X86812609Y-78959605D01*
X86715512Y-78878325D01*
X86585274Y-78866676D01*
X86528146Y-78861580D01*
X86458088Y-78855352D01*
X86382410Y-78848641D01*
X86308424Y-78842096D01*
X86277237Y-78839342D01*
X86216046Y-78833814D01*
X86159015Y-78828421D01*
X86110443Y-78823588D01*
X86074623Y-78819739D01*
X86058797Y-78817766D01*
X86032353Y-78814579D01*
X85991499Y-78810411D01*
X85942085Y-78805832D01*
X85896237Y-78801921D01*
X85857760Y-78798734D01*
X85817678Y-78795308D01*
X85773677Y-78791429D01*
X85723444Y-78786884D01*
X85664665Y-78781459D01*
X85595027Y-78774940D01*
X85512215Y-78767114D01*
X85413917Y-78757768D01*
X85297819Y-78746687D01*
X85291717Y-78746103D01*
X85218234Y-78739150D01*
X85135474Y-78731432D01*
X85052643Y-78723801D01*
X84978943Y-78717109D01*
X84965783Y-78715930D01*
X84909229Y-78710616D01*
X84858162Y-78705341D01*
X84816788Y-78700574D01*
X84789310Y-78696785D01*
X84781991Y-78695378D01*
X84762739Y-78683966D01*
X84740221Y-78657482D01*
X84713913Y-78616011D01*
X84686104Y-78568490D01*
X84666685Y-78535708D01*
X84653907Y-78514798D01*
X84646019Y-78502892D01*
X84641477Y-78497325D01*
X84627923Y-78479087D01*
X84613144Y-78453392D01*
X84604437Y-78433825D01*
X84595704Y-78418838D01*
X84590485Y-78416045D01*
X84581442Y-78407681D01*
X84571269Y-78388105D01*
X84559040Y-78363107D01*
X84540589Y-78330989D01*
X84530174Y-78314445D01*
X84506230Y-78276518D01*
X84481194Y-78234998D01*
X84472760Y-78220465D01*
X84456085Y-78193773D01*
X84442383Y-78176246D01*
X84436662Y-78172205D01*
X84428972Y-78164003D01*
X84428117Y-78157690D01*
X84421424Y-78139331D01*
X84411667Y-78126726D01*
X84401070Y-78111788D01*
X84401064Y-78104430D01*
X84412825Y-78104058D01*
X84439842Y-78107736D01*
G37*
X84439842Y-78107736D02*
X84477617Y-78114760D01*
X84506413Y-78120923D01*
X84590992Y-78139827D01*
X84662402Y-78155577D01*
X84727268Y-78169618D01*
X84792212Y-78183394D01*
X84809117Y-78186941D01*
X84849900Y-78195525D01*
X84884924Y-78202972D01*
X84907846Y-78207932D01*
X84910717Y-78208574D01*
X84940526Y-78215254D01*
X84985076Y-78225135D01*
X85039318Y-78237108D01*
X85098208Y-78250065D01*
X85156697Y-78262895D01*
X85209740Y-78274491D01*
X85252290Y-78283743D01*
X85276477Y-78288945D01*
X85352471Y-78305100D01*
X85411988Y-78317769D01*
X85458428Y-78327681D01*
X85495191Y-78335563D01*
X85525677Y-78342144D01*
X85553286Y-78348151D01*
X85566037Y-78350939D01*
X85610869Y-78360428D01*
X85663909Y-78371181D01*
X85711657Y-78380483D01*
X85749978Y-78388136D01*
X85780360Y-78394929D01*
X85797426Y-78399641D01*
X85798951Y-78400332D01*
X85812609Y-78404544D01*
X85839479Y-78410281D01*
X85861611Y-78414244D01*
X85896504Y-78420711D01*
X85947508Y-78431063D01*
X86010956Y-78444514D01*
X86083181Y-78460282D01*
X86160518Y-78477582D01*
X86201037Y-78486810D01*
X86231010Y-78493482D01*
X86272539Y-78502479D01*
X86317285Y-78511998D01*
X86322957Y-78513191D01*
X86376323Y-78524531D01*
X86436002Y-78537413D01*
X86485517Y-78548265D01*
X86534618Y-78559044D01*
X86586030Y-78570177D01*
X86628828Y-78579298D01*
X86629759Y-78579494D01*
X86692722Y-78592718D01*
X87420963Y-79321011D01*
X87521942Y-79422142D01*
X87618697Y-79519326D01*
X87710277Y-79611591D01*
X87795730Y-79697966D01*
X87874104Y-79777478D01*
X87944447Y-79849157D01*
X88005806Y-79912030D01*
X88057231Y-79965126D01*
X88097770Y-80007474D01*
X88126469Y-80038100D01*
X88142379Y-80056035D01*
X88145400Y-80060504D01*
X88136552Y-80059936D01*
X88116650Y-80048177D01*
X88089706Y-80027672D01*
X88084905Y-80023654D01*
X88047325Y-79991932D01*
X88007284Y-79958329D01*
X87979273Y-79934965D01*
X87913651Y-79880428D01*
X87859234Y-79835080D01*
X87811549Y-79795178D01*
X87766129Y-79756977D01*
X87718502Y-79716735D01*
X87698830Y-79700072D01*
X87663248Y-79670158D01*
X87623508Y-79637089D01*
X87602795Y-79620005D01*
X87567377Y-79590730D01*
X87530458Y-79559908D01*
X87511355Y-79543805D01*
X87478886Y-79516507D01*
X87441285Y-79485228D01*
X87419915Y-79467605D01*
X87384400Y-79438309D01*
X87347278Y-79407470D01*
X87328072Y-79391405D01*
X87303750Y-79371076D01*
X87268413Y-79341673D01*
X87226715Y-79307061D01*
X87183307Y-79271105D01*
X87181348Y-79269485D01*
X87132150Y-79228619D01*
X87078861Y-79184085D01*
X87028443Y-79141716D01*
X86993332Y-79112005D01*
X86949355Y-79074724D01*
X86897352Y-79030821D01*
X86844905Y-78986689D01*
X86812609Y-78959605D01*
X86715512Y-78878325D01*
X86585274Y-78866676D01*
X86528146Y-78861580D01*
X86458088Y-78855352D01*
X86382410Y-78848641D01*
X86308424Y-78842096D01*
X86277237Y-78839342D01*
X86216046Y-78833814D01*
X86159015Y-78828421D01*
X86110443Y-78823588D01*
X86074623Y-78819739D01*
X86058797Y-78817766D01*
X86032353Y-78814579D01*
X85991499Y-78810411D01*
X85942085Y-78805832D01*
X85896237Y-78801921D01*
X85857760Y-78798734D01*
X85817678Y-78795308D01*
X85773677Y-78791429D01*
X85723444Y-78786884D01*
X85664665Y-78781459D01*
X85595027Y-78774940D01*
X85512215Y-78767114D01*
X85413917Y-78757768D01*
X85297819Y-78746687D01*
X85291717Y-78746103D01*
X85218234Y-78739150D01*
X85135474Y-78731432D01*
X85052643Y-78723801D01*
X84978943Y-78717109D01*
X84965783Y-78715930D01*
X84909229Y-78710616D01*
X84858162Y-78705341D01*
X84816788Y-78700574D01*
X84789310Y-78696785D01*
X84781991Y-78695378D01*
X84762739Y-78683966D01*
X84740221Y-78657482D01*
X84713913Y-78616011D01*
X84686104Y-78568490D01*
X84666685Y-78535708D01*
X84653907Y-78514798D01*
X84646019Y-78502892D01*
X84641477Y-78497325D01*
X84627923Y-78479087D01*
X84613144Y-78453392D01*
X84604437Y-78433825D01*
X84595704Y-78418838D01*
X84590485Y-78416045D01*
X84581442Y-78407681D01*
X84571269Y-78388105D01*
X84559040Y-78363107D01*
X84540589Y-78330989D01*
X84530174Y-78314445D01*
X84506230Y-78276518D01*
X84481194Y-78234998D01*
X84472760Y-78220465D01*
X84456085Y-78193773D01*
X84442383Y-78176246D01*
X84436662Y-78172205D01*
X84428972Y-78164003D01*
X84428117Y-78157690D01*
X84421424Y-78139331D01*
X84411667Y-78126726D01*
X84401070Y-78111788D01*
X84401064Y-78104430D01*
X84412825Y-78104058D01*
X84439842Y-78107736D01*
G36*
X81545774Y-81501107D02*
G01*
X81619387Y-81507779D01*
X81679837Y-81519414D01*
X81719850Y-81531156D01*
X81762833Y-81546074D01*
X81804450Y-81562356D01*
X81840364Y-81578191D01*
X81866239Y-81591764D01*
X81877739Y-81601264D01*
X81877957Y-81602230D01*
X81873463Y-81613580D01*
X81861485Y-81638456D01*
X81844280Y-81672549D01*
X81824104Y-81711550D01*
X81803214Y-81751151D01*
X81783864Y-81787044D01*
X81768313Y-81814920D01*
X81758815Y-81830470D01*
X81757687Y-81831890D01*
X81746035Y-81831058D01*
X81721356Y-81822378D01*
X81688521Y-81807625D01*
X81681100Y-81803950D01*
X81617023Y-81778818D01*
X81556440Y-81768597D01*
X81502192Y-81773086D01*
X81457121Y-81792085D01*
X81426453Y-81821847D01*
X81410805Y-81854602D01*
X81412328Y-81884755D01*
X81431682Y-81912998D01*
X81469524Y-81940025D01*
X81526513Y-81966527D01*
X81583388Y-81986859D01*
X81679278Y-82021066D01*
X81756610Y-82055744D01*
X81817112Y-82092521D01*
X81862514Y-82133023D01*
X81894544Y-82178877D01*
X81914931Y-82231711D01*
X81925404Y-82293150D01*
X81926669Y-82309929D01*
X81924583Y-82411500D01*
X81905836Y-82502050D01*
X81870840Y-82580978D01*
X81820009Y-82647682D01*
X81753755Y-82701559D01*
X81672491Y-82742008D01*
X81618521Y-82759110D01*
X81561108Y-82769124D01*
X81491356Y-82773791D01*
X81416506Y-82773205D01*
X81343796Y-82767461D01*
X81280468Y-82756654D01*
X81272143Y-82754580D01*
X81205000Y-82732537D01*
X81135099Y-82702132D01*
X81072238Y-82667799D01*
X81053940Y-82655834D01*
X81027484Y-82637525D01*
X81093556Y-82513065D01*
X81118149Y-82467988D01*
X81140036Y-82430189D01*
X81157230Y-82402928D01*
X81167746Y-82389466D01*
X81169346Y-82388605D01*
X81182733Y-82394642D01*
X81203880Y-82409636D01*
X81209918Y-82414567D01*
X81264224Y-82451939D01*
X81325690Y-82480630D01*
X81388910Y-82499004D01*
X81448482Y-82505428D01*
X81492793Y-82500118D01*
X81540656Y-82479783D01*
X81573790Y-82450350D01*
X81591041Y-82414874D01*
X81591254Y-82376409D01*
X81573274Y-82338010D01*
X81559902Y-82322518D01*
X81539989Y-82305782D01*
X81513945Y-82290733D01*
X81477699Y-82275496D01*
X81427182Y-82258198D01*
X81404962Y-82251181D01*
X81319335Y-82222632D01*
X81251305Y-82195228D01*
X81198331Y-82167401D01*
X81157872Y-82137585D01*
X81127387Y-82104212D01*
X81104379Y-82065804D01*
X81093010Y-82038957D01*
X81085943Y-82011354D01*
X81082230Y-81976960D01*
X81080922Y-81929735D01*
X81080861Y-81916165D01*
X81082693Y-81848270D01*
X81089507Y-81794392D01*
X81102870Y-81748515D01*
X81124349Y-81704624D01*
X81144118Y-81673247D01*
X81197756Y-81609909D01*
X81263971Y-81558174D01*
X81337376Y-81522156D01*
X81345667Y-81519327D01*
X81402126Y-81506880D01*
X81471091Y-81500807D01*
X81545774Y-81501107D01*
G37*
X81545774Y-81501107D02*
X81619387Y-81507779D01*
X81679837Y-81519414D01*
X81719850Y-81531156D01*
X81762833Y-81546074D01*
X81804450Y-81562356D01*
X81840364Y-81578191D01*
X81866239Y-81591764D01*
X81877739Y-81601264D01*
X81877957Y-81602230D01*
X81873463Y-81613580D01*
X81861485Y-81638456D01*
X81844280Y-81672549D01*
X81824104Y-81711550D01*
X81803214Y-81751151D01*
X81783864Y-81787044D01*
X81768313Y-81814920D01*
X81758815Y-81830470D01*
X81757687Y-81831890D01*
X81746035Y-81831058D01*
X81721356Y-81822378D01*
X81688521Y-81807625D01*
X81681100Y-81803950D01*
X81617023Y-81778818D01*
X81556440Y-81768597D01*
X81502192Y-81773086D01*
X81457121Y-81792085D01*
X81426453Y-81821847D01*
X81410805Y-81854602D01*
X81412328Y-81884755D01*
X81431682Y-81912998D01*
X81469524Y-81940025D01*
X81526513Y-81966527D01*
X81583388Y-81986859D01*
X81679278Y-82021066D01*
X81756610Y-82055744D01*
X81817112Y-82092521D01*
X81862514Y-82133023D01*
X81894544Y-82178877D01*
X81914931Y-82231711D01*
X81925404Y-82293150D01*
X81926669Y-82309929D01*
X81924583Y-82411500D01*
X81905836Y-82502050D01*
X81870840Y-82580978D01*
X81820009Y-82647682D01*
X81753755Y-82701559D01*
X81672491Y-82742008D01*
X81618521Y-82759110D01*
X81561108Y-82769124D01*
X81491356Y-82773791D01*
X81416506Y-82773205D01*
X81343796Y-82767461D01*
X81280468Y-82756654D01*
X81272143Y-82754580D01*
X81205000Y-82732537D01*
X81135099Y-82702132D01*
X81072238Y-82667799D01*
X81053940Y-82655834D01*
X81027484Y-82637525D01*
X81093556Y-82513065D01*
X81118149Y-82467988D01*
X81140036Y-82430189D01*
X81157230Y-82402928D01*
X81167746Y-82389466D01*
X81169346Y-82388605D01*
X81182733Y-82394642D01*
X81203880Y-82409636D01*
X81209918Y-82414567D01*
X81264224Y-82451939D01*
X81325690Y-82480630D01*
X81388910Y-82499004D01*
X81448482Y-82505428D01*
X81492793Y-82500118D01*
X81540656Y-82479783D01*
X81573790Y-82450350D01*
X81591041Y-82414874D01*
X81591254Y-82376409D01*
X81573274Y-82338010D01*
X81559902Y-82322518D01*
X81539989Y-82305782D01*
X81513945Y-82290733D01*
X81477699Y-82275496D01*
X81427182Y-82258198D01*
X81404962Y-82251181D01*
X81319335Y-82222632D01*
X81251305Y-82195228D01*
X81198331Y-82167401D01*
X81157872Y-82137585D01*
X81127387Y-82104212D01*
X81104379Y-82065804D01*
X81093010Y-82038957D01*
X81085943Y-82011354D01*
X81082230Y-81976960D01*
X81080922Y-81929735D01*
X81080861Y-81916165D01*
X81082693Y-81848270D01*
X81089507Y-81794392D01*
X81102870Y-81748515D01*
X81124349Y-81704624D01*
X81144118Y-81673247D01*
X81197756Y-81609909D01*
X81263971Y-81558174D01*
X81337376Y-81522156D01*
X81345667Y-81519327D01*
X81402126Y-81506880D01*
X81471091Y-81500807D01*
X81545774Y-81501107D01*
%TD*%
M02*
