%TF.GenerationSoftware,KiCad,Pcbnew,(6.0.9)*%
%TF.CreationDate,2022-12-05T21:09:52-07:00*%
%TF.ProjectId,Rotisserie-Chicken,526f7469-7373-4657-9269-652d43686963,rev?*%
%TF.SameCoordinates,Original*%
%TF.FileFunction,Copper,L2,Bot*%
%TF.FilePolarity,Positive*%
%FSLAX46Y46*%
G04 Gerber Fmt 4.6, Leading zero omitted, Abs format (unit mm)*
G04 Created by KiCad (PCBNEW (6.0.9)) date 2022-12-05 21:09:52*
%MOMM*%
%LPD*%
G01*
G04 APERTURE LIST*
%TA.AperFunction,ComponentPad*%
%ADD10R,1.371600X1.371600*%
%TD*%
%TA.AperFunction,ComponentPad*%
%ADD11C,1.371600*%
%TD*%
%TA.AperFunction,ComponentPad*%
%ADD12R,2.050000X2.050000*%
%TD*%
%TA.AperFunction,ComponentPad*%
%ADD13C,2.050000*%
%TD*%
%TA.AperFunction,ComponentPad*%
%ADD14R,1.650000X1.650000*%
%TD*%
%TA.AperFunction,ComponentPad*%
%ADD15C,1.650000*%
%TD*%
%TA.AperFunction,ViaPad*%
%ADD16C,0.800000*%
%TD*%
G04 APERTURE END LIST*
D10*
%TO.P,D1,1,1*%
%TO.N,Net-(D1-Pad1)*%
X97871000Y-69596000D03*
D11*
%TO.P,D1,2,2*%
%TO.N,12V*%
X100411000Y-69596000D03*
%TD*%
D12*
%TO.P,P2,1,1*%
%TO.N,Motor+*%
X115103500Y-76907500D03*
D13*
%TO.P,P2,2,2*%
%TO.N,Motor-*%
X111143500Y-76907500D03*
%TD*%
D14*
%TO.P,P1,1,5*%
%TO.N,12V*%
X114808000Y-93336500D03*
D15*
%TO.P,P1,2,6*%
%TO.N,Earth*%
X109728000Y-93336500D03*
%TO.P,P1,3,5*%
%TO.N,12V*%
X104648000Y-93336500D03*
%TO.P,P1,4,6*%
%TO.N,Earth*%
X99568000Y-93336500D03*
%TO.P,P1,5,5*%
%TO.N,Motor+*%
X94488000Y-93336500D03*
%TO.P,P1,6,6*%
%TO.N,Motor-*%
X89408000Y-93336500D03*
%TD*%
D16*
%TO.N,Earth*%
X97409000Y-75565000D03*
%TD*%
%TA.AperFunction,Conductor*%
%TO.N,Earth*%
G36*
X126433621Y-64028502D02*
G01*
X126480114Y-64082158D01*
X126491500Y-64134500D01*
X126491500Y-101473500D01*
X126471498Y-101541621D01*
X126417842Y-101588114D01*
X126365500Y-101599500D01*
X77088500Y-101599500D01*
X77020379Y-101579498D01*
X76973886Y-101525842D01*
X76962500Y-101473500D01*
X76962500Y-97836485D01*
X78870854Y-97836485D01*
X78871156Y-97840320D01*
X78894652Y-98138861D01*
X78896370Y-98160695D01*
X78961206Y-98479378D01*
X79064398Y-98787784D01*
X79204405Y-99081316D01*
X79206467Y-99084553D01*
X79206470Y-99084558D01*
X79217325Y-99101597D01*
X79379141Y-99355597D01*
X79381584Y-99358560D01*
X79381585Y-99358562D01*
X79558973Y-99573750D01*
X79586001Y-99606538D01*
X79821902Y-99830399D01*
X80083326Y-100023843D01*
X80139223Y-100055468D01*
X80363019Y-100182086D01*
X80363023Y-100182088D01*
X80366376Y-100183985D01*
X80369937Y-100185460D01*
X80369939Y-100185461D01*
X80391761Y-100194500D01*
X80666832Y-100308438D01*
X80770288Y-100337129D01*
X80976500Y-100394317D01*
X80976508Y-100394319D01*
X80980216Y-100395347D01*
X81301856Y-100443416D01*
X81305154Y-100443560D01*
X81416918Y-100448440D01*
X81416922Y-100448440D01*
X81418294Y-100448500D01*
X81616598Y-100448500D01*
X81858605Y-100433698D01*
X81862388Y-100432997D01*
X81862395Y-100432996D01*
X82062459Y-100395916D01*
X82178372Y-100374433D01*
X82387682Y-100308438D01*
X82484860Y-100277798D01*
X82484863Y-100277797D01*
X82488532Y-100276640D01*
X82492029Y-100275046D01*
X82492035Y-100275044D01*
X82780954Y-100143376D01*
X82780958Y-100143374D01*
X82784462Y-100141777D01*
X82818147Y-100121135D01*
X83058473Y-99973863D01*
X83058476Y-99973861D01*
X83061751Y-99971854D01*
X83064755Y-99969464D01*
X83064760Y-99969461D01*
X83189008Y-99870629D01*
X83316264Y-99769405D01*
X83318958Y-99766664D01*
X83318962Y-99766660D01*
X83541513Y-99540190D01*
X83541517Y-99540185D01*
X83544208Y-99537447D01*
X83742185Y-99279439D01*
X83907242Y-98999227D01*
X84036920Y-98700988D01*
X84129285Y-98389169D01*
X84182961Y-98068417D01*
X84197146Y-97743515D01*
X84184473Y-97582485D01*
X120018854Y-97582485D01*
X120019156Y-97586320D01*
X120038542Y-97832638D01*
X120044370Y-97906695D01*
X120109206Y-98225378D01*
X120212398Y-98533784D01*
X120352405Y-98827316D01*
X120527141Y-99101597D01*
X120529584Y-99104560D01*
X120529585Y-99104562D01*
X120679308Y-99286190D01*
X120734001Y-99352538D01*
X120969902Y-99576399D01*
X121231326Y-99769843D01*
X121372851Y-99849914D01*
X121511019Y-99928086D01*
X121511023Y-99928088D01*
X121514376Y-99929985D01*
X121814832Y-100054438D01*
X121918288Y-100083129D01*
X122124500Y-100140317D01*
X122124508Y-100140319D01*
X122128216Y-100141347D01*
X122449856Y-100189416D01*
X122453154Y-100189560D01*
X122564918Y-100194440D01*
X122564922Y-100194440D01*
X122566294Y-100194500D01*
X122764598Y-100194500D01*
X123006605Y-100179698D01*
X123010388Y-100178997D01*
X123010395Y-100178996D01*
X123166489Y-100150065D01*
X123326372Y-100120433D01*
X123535682Y-100054438D01*
X123632860Y-100023798D01*
X123632863Y-100023797D01*
X123636532Y-100022640D01*
X123640029Y-100021046D01*
X123640035Y-100021044D01*
X123928954Y-99889376D01*
X123928958Y-99889374D01*
X123932462Y-99887777D01*
X124022361Y-99832687D01*
X124206473Y-99719863D01*
X124206476Y-99719861D01*
X124209751Y-99717854D01*
X124212755Y-99715464D01*
X124212760Y-99715461D01*
X124353419Y-99603575D01*
X124464264Y-99515405D01*
X124466958Y-99512664D01*
X124466962Y-99512660D01*
X124689513Y-99286190D01*
X124689517Y-99286185D01*
X124692208Y-99283447D01*
X124890185Y-99025439D01*
X125055242Y-98745227D01*
X125184920Y-98446988D01*
X125277285Y-98135169D01*
X125330961Y-97814417D01*
X125345146Y-97489515D01*
X125332388Y-97327410D01*
X125319932Y-97169140D01*
X125319932Y-97169137D01*
X125319630Y-97165305D01*
X125254794Y-96846622D01*
X125151602Y-96538216D01*
X125011595Y-96244684D01*
X125000742Y-96227647D01*
X124885377Y-96046561D01*
X124836859Y-95970403D01*
X124707386Y-95813340D01*
X124632442Y-95722425D01*
X124632438Y-95722420D01*
X124629999Y-95719462D01*
X124394098Y-95495601D01*
X124132674Y-95302157D01*
X123926807Y-95185683D01*
X123852981Y-95143914D01*
X123852977Y-95143912D01*
X123849624Y-95142015D01*
X123836513Y-95136584D01*
X123623139Y-95048202D01*
X123549168Y-95017562D01*
X123445712Y-94988871D01*
X123239500Y-94931683D01*
X123239492Y-94931681D01*
X123235784Y-94930653D01*
X122914144Y-94882584D01*
X122910846Y-94882440D01*
X122799082Y-94877560D01*
X122799078Y-94877560D01*
X122797706Y-94877500D01*
X122599402Y-94877500D01*
X122357395Y-94892302D01*
X122353612Y-94893003D01*
X122353605Y-94893004D01*
X122197511Y-94921935D01*
X122037628Y-94951567D01*
X121853058Y-95009762D01*
X121731140Y-95048202D01*
X121731137Y-95048203D01*
X121727468Y-95049360D01*
X121723971Y-95050954D01*
X121723965Y-95050956D01*
X121435046Y-95182624D01*
X121435042Y-95182626D01*
X121431538Y-95184223D01*
X121428259Y-95186233D01*
X121428256Y-95186234D01*
X121234520Y-95304956D01*
X121154249Y-95354146D01*
X121151245Y-95356536D01*
X121151240Y-95356539D01*
X121099225Y-95397914D01*
X120899736Y-95556595D01*
X120897042Y-95559336D01*
X120897038Y-95559340D01*
X120674487Y-95785810D01*
X120674483Y-95785815D01*
X120671792Y-95788553D01*
X120473815Y-96046561D01*
X120308758Y-96326773D01*
X120179080Y-96625012D01*
X120086715Y-96936831D01*
X120033039Y-97257583D01*
X120018854Y-97582485D01*
X84184473Y-97582485D01*
X84184170Y-97578638D01*
X84171932Y-97423140D01*
X84171932Y-97423137D01*
X84171630Y-97419305D01*
X84106794Y-97100622D01*
X84003602Y-96792216D01*
X83863595Y-96498684D01*
X83688859Y-96224403D01*
X83686415Y-96221438D01*
X83484442Y-95976425D01*
X83484438Y-95976420D01*
X83481999Y-95973462D01*
X83246098Y-95749601D01*
X82984674Y-95556157D01*
X82779781Y-95440234D01*
X82704981Y-95397914D01*
X82704977Y-95397912D01*
X82701624Y-95396015D01*
X82401168Y-95271562D01*
X82297712Y-95242871D01*
X82091500Y-95185683D01*
X82091492Y-95185681D01*
X82087784Y-95184653D01*
X81766144Y-95136584D01*
X81762846Y-95136440D01*
X81651082Y-95131560D01*
X81651078Y-95131560D01*
X81649706Y-95131500D01*
X81451402Y-95131500D01*
X81209395Y-95146302D01*
X81205612Y-95147003D01*
X81205605Y-95147004D01*
X81049511Y-95175935D01*
X80889628Y-95205567D01*
X80705058Y-95263762D01*
X80583140Y-95302202D01*
X80583137Y-95302203D01*
X80579468Y-95303360D01*
X80575971Y-95304954D01*
X80575965Y-95304956D01*
X80287046Y-95436624D01*
X80287042Y-95436626D01*
X80283538Y-95438223D01*
X80280259Y-95440233D01*
X80280256Y-95440234D01*
X80090373Y-95556595D01*
X80006249Y-95608146D01*
X80003245Y-95610536D01*
X80003240Y-95610539D01*
X79878993Y-95709370D01*
X79751736Y-95810595D01*
X79749042Y-95813336D01*
X79749038Y-95813340D01*
X79526487Y-96039810D01*
X79526483Y-96039815D01*
X79523792Y-96042553D01*
X79325815Y-96300561D01*
X79160758Y-96580773D01*
X79031080Y-96879012D01*
X78938715Y-97190831D01*
X78885039Y-97511583D01*
X78870854Y-97836485D01*
X76962500Y-97836485D01*
X76962500Y-93336500D01*
X88069406Y-93336500D01*
X88089742Y-93568944D01*
X88150133Y-93794326D01*
X88152455Y-93799306D01*
X88152456Y-93799308D01*
X88246418Y-94000810D01*
X88246421Y-94000815D01*
X88248744Y-94005797D01*
X88382578Y-94196932D01*
X88547568Y-94361922D01*
X88552076Y-94365079D01*
X88552079Y-94365081D01*
X88734194Y-94492599D01*
X88738703Y-94495756D01*
X88743685Y-94498079D01*
X88743690Y-94498082D01*
X88944180Y-94591572D01*
X88950174Y-94594367D01*
X88955482Y-94595789D01*
X88955484Y-94595790D01*
X89170241Y-94653334D01*
X89170243Y-94653334D01*
X89175556Y-94654758D01*
X89408000Y-94675094D01*
X89640444Y-94654758D01*
X89645757Y-94653334D01*
X89645759Y-94653334D01*
X89860516Y-94595790D01*
X89860518Y-94595789D01*
X89865826Y-94594367D01*
X89871820Y-94591572D01*
X90072310Y-94498082D01*
X90072315Y-94498079D01*
X90077297Y-94495756D01*
X90081806Y-94492599D01*
X90263921Y-94365081D01*
X90263924Y-94365079D01*
X90268432Y-94361922D01*
X90433422Y-94196932D01*
X90567256Y-94005797D01*
X90569579Y-94000815D01*
X90569582Y-94000810D01*
X90663544Y-93799308D01*
X90663545Y-93799306D01*
X90665867Y-93794326D01*
X90726258Y-93568944D01*
X90746594Y-93336500D01*
X93149406Y-93336500D01*
X93169742Y-93568944D01*
X93230133Y-93794326D01*
X93232455Y-93799306D01*
X93232456Y-93799308D01*
X93326418Y-94000810D01*
X93326421Y-94000815D01*
X93328744Y-94005797D01*
X93462578Y-94196932D01*
X93627568Y-94361922D01*
X93632076Y-94365079D01*
X93632079Y-94365081D01*
X93814194Y-94492599D01*
X93818703Y-94495756D01*
X93823685Y-94498079D01*
X93823690Y-94498082D01*
X94024180Y-94591572D01*
X94030174Y-94594367D01*
X94035482Y-94595789D01*
X94035484Y-94595790D01*
X94250241Y-94653334D01*
X94250243Y-94653334D01*
X94255556Y-94654758D01*
X94488000Y-94675094D01*
X94720444Y-94654758D01*
X94725757Y-94653334D01*
X94725759Y-94653334D01*
X94940516Y-94595790D01*
X94940518Y-94595789D01*
X94945826Y-94594367D01*
X94951820Y-94591572D01*
X95152310Y-94498082D01*
X95152315Y-94498079D01*
X95157297Y-94495756D01*
X95161806Y-94492599D01*
X95236193Y-94440513D01*
X98828542Y-94440513D01*
X98837838Y-94452528D01*
X98894446Y-94492165D01*
X98903941Y-94497648D01*
X99105364Y-94591572D01*
X99115656Y-94595318D01*
X99330328Y-94652839D01*
X99341123Y-94654742D01*
X99562525Y-94674113D01*
X99573475Y-94674113D01*
X99794877Y-94654742D01*
X99805672Y-94652839D01*
X100020344Y-94595318D01*
X100030636Y-94591572D01*
X100232059Y-94497648D01*
X100241554Y-94492165D01*
X100299000Y-94451941D01*
X100307375Y-94441464D01*
X100300307Y-94428017D01*
X99580812Y-93708522D01*
X99566868Y-93700908D01*
X99565035Y-93701039D01*
X99558420Y-93705290D01*
X98834972Y-94428738D01*
X98828542Y-94440513D01*
X95236193Y-94440513D01*
X95343921Y-94365081D01*
X95343924Y-94365079D01*
X95348432Y-94361922D01*
X95513422Y-94196932D01*
X95647256Y-94005797D01*
X95649579Y-94000815D01*
X95649582Y-94000810D01*
X95743544Y-93799308D01*
X95743545Y-93799306D01*
X95745867Y-93794326D01*
X95806258Y-93568944D01*
X95826115Y-93341975D01*
X98230387Y-93341975D01*
X98249758Y-93563377D01*
X98251661Y-93574172D01*
X98309182Y-93788844D01*
X98312928Y-93799136D01*
X98406852Y-94000559D01*
X98412335Y-94010054D01*
X98452559Y-94067500D01*
X98463036Y-94075875D01*
X98476483Y-94068807D01*
X99195978Y-93349312D01*
X99202356Y-93337632D01*
X99932408Y-93337632D01*
X99932539Y-93339465D01*
X99936790Y-93346080D01*
X100660238Y-94069528D01*
X100672013Y-94075958D01*
X100684028Y-94066662D01*
X100723665Y-94010054D01*
X100729148Y-94000559D01*
X100823072Y-93799136D01*
X100826818Y-93788844D01*
X100884339Y-93574172D01*
X100886242Y-93563377D01*
X100905613Y-93341975D01*
X100905613Y-93336500D01*
X103309406Y-93336500D01*
X103329742Y-93568944D01*
X103390133Y-93794326D01*
X103392455Y-93799306D01*
X103392456Y-93799308D01*
X103486418Y-94000810D01*
X103486421Y-94000815D01*
X103488744Y-94005797D01*
X103622578Y-94196932D01*
X103787568Y-94361922D01*
X103792076Y-94365079D01*
X103792079Y-94365081D01*
X103974194Y-94492599D01*
X103978703Y-94495756D01*
X103983685Y-94498079D01*
X103983690Y-94498082D01*
X104184180Y-94591572D01*
X104190174Y-94594367D01*
X104195482Y-94595789D01*
X104195484Y-94595790D01*
X104410241Y-94653334D01*
X104410243Y-94653334D01*
X104415556Y-94654758D01*
X104648000Y-94675094D01*
X104880444Y-94654758D01*
X104885757Y-94653334D01*
X104885759Y-94653334D01*
X105100516Y-94595790D01*
X105100518Y-94595789D01*
X105105826Y-94594367D01*
X105111820Y-94591572D01*
X105312310Y-94498082D01*
X105312315Y-94498079D01*
X105317297Y-94495756D01*
X105321806Y-94492599D01*
X105396193Y-94440513D01*
X108988542Y-94440513D01*
X108997838Y-94452528D01*
X109054446Y-94492165D01*
X109063941Y-94497648D01*
X109265364Y-94591572D01*
X109275656Y-94595318D01*
X109490328Y-94652839D01*
X109501123Y-94654742D01*
X109722525Y-94674113D01*
X109733475Y-94674113D01*
X109954877Y-94654742D01*
X109965672Y-94652839D01*
X110180344Y-94595318D01*
X110190636Y-94591572D01*
X110392059Y-94497648D01*
X110401554Y-94492165D01*
X110459000Y-94451941D01*
X110467375Y-94441464D01*
X110460307Y-94428017D01*
X110241924Y-94209634D01*
X113474500Y-94209634D01*
X113481255Y-94271816D01*
X113532385Y-94408205D01*
X113619739Y-94524761D01*
X113736295Y-94612115D01*
X113872684Y-94663245D01*
X113934866Y-94670000D01*
X115681134Y-94670000D01*
X115743316Y-94663245D01*
X115879705Y-94612115D01*
X115996261Y-94524761D01*
X116083615Y-94408205D01*
X116134745Y-94271816D01*
X116141500Y-94209634D01*
X116141500Y-92463366D01*
X116134745Y-92401184D01*
X116083615Y-92264795D01*
X115996261Y-92148239D01*
X115879705Y-92060885D01*
X115743316Y-92009755D01*
X115681134Y-92003000D01*
X113934866Y-92003000D01*
X113872684Y-92009755D01*
X113736295Y-92060885D01*
X113619739Y-92148239D01*
X113532385Y-92264795D01*
X113481255Y-92401184D01*
X113474500Y-92463366D01*
X113474500Y-94209634D01*
X110241924Y-94209634D01*
X109740812Y-93708522D01*
X109726868Y-93700908D01*
X109725035Y-93701039D01*
X109718420Y-93705290D01*
X108994972Y-94428738D01*
X108988542Y-94440513D01*
X105396193Y-94440513D01*
X105503921Y-94365081D01*
X105503924Y-94365079D01*
X105508432Y-94361922D01*
X105673422Y-94196932D01*
X105807256Y-94005797D01*
X105809579Y-94000815D01*
X105809582Y-94000810D01*
X105903544Y-93799308D01*
X105903545Y-93799306D01*
X105905867Y-93794326D01*
X105966258Y-93568944D01*
X105986115Y-93341975D01*
X108390387Y-93341975D01*
X108409758Y-93563377D01*
X108411661Y-93574172D01*
X108469182Y-93788844D01*
X108472928Y-93799136D01*
X108566852Y-94000559D01*
X108572335Y-94010054D01*
X108612559Y-94067500D01*
X108623036Y-94075875D01*
X108636483Y-94068807D01*
X109355978Y-93349312D01*
X109362356Y-93337632D01*
X110092408Y-93337632D01*
X110092539Y-93339465D01*
X110096790Y-93346080D01*
X110820238Y-94069528D01*
X110832013Y-94075958D01*
X110844028Y-94066662D01*
X110883665Y-94010054D01*
X110889148Y-94000559D01*
X110983072Y-93799136D01*
X110986818Y-93788844D01*
X111044339Y-93574172D01*
X111046242Y-93563377D01*
X111065613Y-93341975D01*
X111065613Y-93331025D01*
X111046242Y-93109623D01*
X111044339Y-93098828D01*
X110986818Y-92884156D01*
X110983072Y-92873864D01*
X110889148Y-92672441D01*
X110883665Y-92662946D01*
X110843441Y-92605500D01*
X110832964Y-92597125D01*
X110819517Y-92604193D01*
X110100022Y-93323688D01*
X110092408Y-93337632D01*
X109362356Y-93337632D01*
X109363592Y-93335368D01*
X109363461Y-93333535D01*
X109359210Y-93326920D01*
X108635762Y-92603472D01*
X108623987Y-92597042D01*
X108611972Y-92606338D01*
X108572335Y-92662946D01*
X108566852Y-92672441D01*
X108472928Y-92873864D01*
X108469182Y-92884156D01*
X108411661Y-93098828D01*
X108409758Y-93109623D01*
X108390387Y-93331025D01*
X108390387Y-93341975D01*
X105986115Y-93341975D01*
X105986594Y-93336500D01*
X105966258Y-93104056D01*
X105905867Y-92878674D01*
X105809699Y-92672441D01*
X105809582Y-92672190D01*
X105809579Y-92672185D01*
X105807256Y-92667203D01*
X105673422Y-92476068D01*
X105508432Y-92311078D01*
X105503924Y-92307921D01*
X105503921Y-92307919D01*
X105394835Y-92231536D01*
X108988625Y-92231536D01*
X108995693Y-92244983D01*
X109715188Y-92964478D01*
X109729132Y-92972092D01*
X109730965Y-92971961D01*
X109737580Y-92967710D01*
X110461028Y-92244262D01*
X110467458Y-92232487D01*
X110458162Y-92220472D01*
X110401554Y-92180835D01*
X110392059Y-92175352D01*
X110190636Y-92081428D01*
X110180344Y-92077682D01*
X109965672Y-92020161D01*
X109954877Y-92018258D01*
X109733475Y-91998887D01*
X109722525Y-91998887D01*
X109501123Y-92018258D01*
X109490328Y-92020161D01*
X109275656Y-92077682D01*
X109265364Y-92081428D01*
X109063941Y-92175352D01*
X109054446Y-92180835D01*
X108997000Y-92221059D01*
X108988625Y-92231536D01*
X105394835Y-92231536D01*
X105321806Y-92180401D01*
X105321804Y-92180400D01*
X105317297Y-92177244D01*
X105312315Y-92174921D01*
X105312310Y-92174918D01*
X105110808Y-92080956D01*
X105110806Y-92080955D01*
X105105826Y-92078633D01*
X105100518Y-92077211D01*
X105100516Y-92077210D01*
X104885759Y-92019666D01*
X104885757Y-92019666D01*
X104880444Y-92018242D01*
X104648000Y-91997906D01*
X104415556Y-92018242D01*
X104410243Y-92019666D01*
X104410241Y-92019666D01*
X104195484Y-92077210D01*
X104195482Y-92077211D01*
X104190174Y-92078633D01*
X104185194Y-92080955D01*
X104185192Y-92080956D01*
X103983690Y-92174918D01*
X103983685Y-92174921D01*
X103978703Y-92177244D01*
X103974196Y-92180400D01*
X103974194Y-92180401D01*
X103792079Y-92307919D01*
X103792076Y-92307921D01*
X103787568Y-92311078D01*
X103622578Y-92476068D01*
X103488744Y-92667203D01*
X103486421Y-92672185D01*
X103486418Y-92672190D01*
X103486301Y-92672441D01*
X103390133Y-92878674D01*
X103329742Y-93104056D01*
X103309406Y-93336500D01*
X100905613Y-93336500D01*
X100905613Y-93331025D01*
X100886242Y-93109623D01*
X100884339Y-93098828D01*
X100826818Y-92884156D01*
X100823072Y-92873864D01*
X100729148Y-92672441D01*
X100723665Y-92662946D01*
X100683441Y-92605500D01*
X100672964Y-92597125D01*
X100659517Y-92604193D01*
X99940022Y-93323688D01*
X99932408Y-93337632D01*
X99202356Y-93337632D01*
X99203592Y-93335368D01*
X99203461Y-93333535D01*
X99199210Y-93326920D01*
X98475762Y-92603472D01*
X98463987Y-92597042D01*
X98451972Y-92606338D01*
X98412335Y-92662946D01*
X98406852Y-92672441D01*
X98312928Y-92873864D01*
X98309182Y-92884156D01*
X98251661Y-93098828D01*
X98249758Y-93109623D01*
X98230387Y-93331025D01*
X98230387Y-93341975D01*
X95826115Y-93341975D01*
X95826594Y-93336500D01*
X95806258Y-93104056D01*
X95745867Y-92878674D01*
X95649699Y-92672441D01*
X95649582Y-92672190D01*
X95649579Y-92672185D01*
X95647256Y-92667203D01*
X95513422Y-92476068D01*
X95348432Y-92311078D01*
X95343924Y-92307921D01*
X95343921Y-92307919D01*
X95234835Y-92231536D01*
X98828625Y-92231536D01*
X98835693Y-92244983D01*
X99555188Y-92964478D01*
X99569132Y-92972092D01*
X99570965Y-92971961D01*
X99577580Y-92967710D01*
X100301028Y-92244262D01*
X100307458Y-92232487D01*
X100298162Y-92220472D01*
X100241554Y-92180835D01*
X100232059Y-92175352D01*
X100030636Y-92081428D01*
X100020344Y-92077682D01*
X99805672Y-92020161D01*
X99794877Y-92018258D01*
X99573475Y-91998887D01*
X99562525Y-91998887D01*
X99341123Y-92018258D01*
X99330328Y-92020161D01*
X99115656Y-92077682D01*
X99105364Y-92081428D01*
X98903941Y-92175352D01*
X98894446Y-92180835D01*
X98837000Y-92221059D01*
X98828625Y-92231536D01*
X95234835Y-92231536D01*
X95161806Y-92180401D01*
X95161804Y-92180400D01*
X95157297Y-92177244D01*
X95152315Y-92174921D01*
X95152310Y-92174918D01*
X94950808Y-92080956D01*
X94950806Y-92080955D01*
X94945826Y-92078633D01*
X94940518Y-92077211D01*
X94940516Y-92077210D01*
X94725759Y-92019666D01*
X94725757Y-92019666D01*
X94720444Y-92018242D01*
X94488000Y-91997906D01*
X94255556Y-92018242D01*
X94250243Y-92019666D01*
X94250241Y-92019666D01*
X94035484Y-92077210D01*
X94035482Y-92077211D01*
X94030174Y-92078633D01*
X94025194Y-92080955D01*
X94025192Y-92080956D01*
X93823690Y-92174918D01*
X93823685Y-92174921D01*
X93818703Y-92177244D01*
X93814196Y-92180400D01*
X93814194Y-92180401D01*
X93632079Y-92307919D01*
X93632076Y-92307921D01*
X93627568Y-92311078D01*
X93462578Y-92476068D01*
X93328744Y-92667203D01*
X93326421Y-92672185D01*
X93326418Y-92672190D01*
X93326301Y-92672441D01*
X93230133Y-92878674D01*
X93169742Y-93104056D01*
X93149406Y-93336500D01*
X90746594Y-93336500D01*
X90726258Y-93104056D01*
X90665867Y-92878674D01*
X90569699Y-92672441D01*
X90569582Y-92672190D01*
X90569579Y-92672185D01*
X90567256Y-92667203D01*
X90433422Y-92476068D01*
X90268432Y-92311078D01*
X90263924Y-92307921D01*
X90263921Y-92307919D01*
X90081806Y-92180401D01*
X90081804Y-92180400D01*
X90077297Y-92177244D01*
X90072315Y-92174921D01*
X90072310Y-92174918D01*
X89870808Y-92080956D01*
X89870806Y-92080955D01*
X89865826Y-92078633D01*
X89860518Y-92077211D01*
X89860516Y-92077210D01*
X89645759Y-92019666D01*
X89645757Y-92019666D01*
X89640444Y-92018242D01*
X89408000Y-91997906D01*
X89175556Y-92018242D01*
X89170243Y-92019666D01*
X89170241Y-92019666D01*
X88955484Y-92077210D01*
X88955482Y-92077211D01*
X88950174Y-92078633D01*
X88945194Y-92080955D01*
X88945192Y-92080956D01*
X88743690Y-92174918D01*
X88743685Y-92174921D01*
X88738703Y-92177244D01*
X88734196Y-92180400D01*
X88734194Y-92180401D01*
X88552079Y-92307919D01*
X88552076Y-92307921D01*
X88547568Y-92311078D01*
X88382578Y-92476068D01*
X88248744Y-92667203D01*
X88246421Y-92672185D01*
X88246418Y-92672190D01*
X88246301Y-92672441D01*
X88150133Y-92878674D01*
X88089742Y-93104056D01*
X88069406Y-93336500D01*
X76962500Y-93336500D01*
X76962500Y-76907500D01*
X109605258Y-76907500D01*
X109624196Y-77148134D01*
X109625350Y-77152941D01*
X109625351Y-77152947D01*
X109660767Y-77300461D01*
X109680545Y-77382843D01*
X109772916Y-77605847D01*
X109899036Y-77811656D01*
X110055799Y-77995201D01*
X110239344Y-78151964D01*
X110445153Y-78278084D01*
X110449723Y-78279977D01*
X110449727Y-78279979D01*
X110663584Y-78368561D01*
X110668157Y-78370455D01*
X110750539Y-78390233D01*
X110898053Y-78425649D01*
X110898059Y-78425650D01*
X110902866Y-78426804D01*
X111143500Y-78445742D01*
X111384134Y-78426804D01*
X111388941Y-78425650D01*
X111388947Y-78425649D01*
X111536461Y-78390233D01*
X111618843Y-78370455D01*
X111623416Y-78368561D01*
X111837273Y-78279979D01*
X111837277Y-78279977D01*
X111841847Y-78278084D01*
X112047656Y-78151964D01*
X112231201Y-77995201D01*
X112243642Y-77980634D01*
X113570000Y-77980634D01*
X113576755Y-78042816D01*
X113627885Y-78179205D01*
X113715239Y-78295761D01*
X113831795Y-78383115D01*
X113968184Y-78434245D01*
X114030366Y-78441000D01*
X116176634Y-78441000D01*
X116238816Y-78434245D01*
X116375205Y-78383115D01*
X116491761Y-78295761D01*
X116579115Y-78179205D01*
X116630245Y-78042816D01*
X116637000Y-77980634D01*
X116637000Y-75834366D01*
X116630245Y-75772184D01*
X116579115Y-75635795D01*
X116491761Y-75519239D01*
X116375205Y-75431885D01*
X116238816Y-75380755D01*
X116176634Y-75374000D01*
X114030366Y-75374000D01*
X113968184Y-75380755D01*
X113831795Y-75431885D01*
X113715239Y-75519239D01*
X113627885Y-75635795D01*
X113576755Y-75772184D01*
X113570000Y-75834366D01*
X113570000Y-77980634D01*
X112243642Y-77980634D01*
X112387964Y-77811656D01*
X112514084Y-77605847D01*
X112606455Y-77382843D01*
X112626233Y-77300461D01*
X112661649Y-77152947D01*
X112661650Y-77152941D01*
X112662804Y-77148134D01*
X112681742Y-76907500D01*
X112662804Y-76666866D01*
X112661650Y-76662059D01*
X112661649Y-76662053D01*
X112607610Y-76436969D01*
X112606455Y-76432157D01*
X112514084Y-76209153D01*
X112387964Y-76003344D01*
X112231201Y-75819799D01*
X112047656Y-75663036D01*
X111841847Y-75536916D01*
X111837277Y-75535023D01*
X111837273Y-75535021D01*
X111623416Y-75446439D01*
X111623414Y-75446438D01*
X111618843Y-75444545D01*
X111536461Y-75424767D01*
X111388947Y-75389351D01*
X111388941Y-75389350D01*
X111384134Y-75388196D01*
X111143500Y-75369258D01*
X110902866Y-75388196D01*
X110898059Y-75389350D01*
X110898053Y-75389351D01*
X110750539Y-75424767D01*
X110668157Y-75444545D01*
X110663586Y-75446438D01*
X110663584Y-75446439D01*
X110449727Y-75535021D01*
X110449723Y-75535023D01*
X110445153Y-75536916D01*
X110239344Y-75663036D01*
X110055799Y-75819799D01*
X109899036Y-76003344D01*
X109772916Y-76209153D01*
X109680545Y-76432157D01*
X109679390Y-76436969D01*
X109625351Y-76662053D01*
X109625350Y-76662059D01*
X109624196Y-76666866D01*
X109605258Y-76907500D01*
X76962500Y-76907500D01*
X76962500Y-67864485D01*
X78743854Y-67864485D01*
X78744156Y-67868320D01*
X78762108Y-68096417D01*
X78769370Y-68188695D01*
X78834206Y-68507378D01*
X78937398Y-68815784D01*
X79077405Y-69109316D01*
X79079467Y-69112553D01*
X79079470Y-69112558D01*
X79117165Y-69171727D01*
X79252141Y-69383597D01*
X79254584Y-69386560D01*
X79254585Y-69386562D01*
X79427233Y-69596000D01*
X79459001Y-69634538D01*
X79694902Y-69858399D01*
X79956326Y-70051843D01*
X80080059Y-70121848D01*
X80236019Y-70210086D01*
X80236023Y-70210088D01*
X80239376Y-70211985D01*
X80539832Y-70336438D01*
X80643288Y-70365129D01*
X80849500Y-70422317D01*
X80849508Y-70422319D01*
X80853216Y-70423347D01*
X81174856Y-70471416D01*
X81178154Y-70471560D01*
X81289918Y-70476440D01*
X81289922Y-70476440D01*
X81291294Y-70476500D01*
X81489598Y-70476500D01*
X81731605Y-70461698D01*
X81735388Y-70460997D01*
X81735395Y-70460996D01*
X81935459Y-70423916D01*
X82051372Y-70402433D01*
X82260682Y-70336438D01*
X82281310Y-70329934D01*
X96676700Y-70329934D01*
X96683455Y-70392116D01*
X96734585Y-70528505D01*
X96821939Y-70645061D01*
X96938495Y-70732415D01*
X97074884Y-70783545D01*
X97137066Y-70790300D01*
X98604934Y-70790300D01*
X98667116Y-70783545D01*
X98803505Y-70732415D01*
X98920061Y-70645061D01*
X99007415Y-70528505D01*
X99058545Y-70392116D01*
X99065300Y-70329934D01*
X99065300Y-70104102D01*
X99085302Y-70035981D01*
X99138958Y-69989488D01*
X99209232Y-69979384D01*
X99273812Y-70008878D01*
X99305726Y-70051351D01*
X99372275Y-70195708D01*
X99375606Y-70200421D01*
X99375607Y-70200423D01*
X99472462Y-70337468D01*
X99498957Y-70374958D01*
X99547572Y-70422317D01*
X99603073Y-70476383D01*
X99656183Y-70528121D01*
X99660979Y-70531326D01*
X99660982Y-70531328D01*
X99667512Y-70535691D01*
X99838688Y-70650067D01*
X99843991Y-70652345D01*
X99843994Y-70652347D01*
X99935640Y-70691721D01*
X100040360Y-70736712D01*
X100156999Y-70763105D01*
X100235071Y-70780771D01*
X100254445Y-70785155D01*
X100260216Y-70785382D01*
X100260218Y-70785382D01*
X100333634Y-70788266D01*
X100473773Y-70793772D01*
X100565442Y-70780481D01*
X100685284Y-70763105D01*
X100685289Y-70763104D01*
X100690998Y-70762276D01*
X100696462Y-70760421D01*
X100696467Y-70760420D01*
X100893378Y-70693577D01*
X100898846Y-70691721D01*
X101090357Y-70584470D01*
X101259115Y-70444115D01*
X101356933Y-70326502D01*
X101395779Y-70279795D01*
X101399470Y-70275357D01*
X101506721Y-70083846D01*
X101534551Y-70001863D01*
X101575420Y-69881467D01*
X101575421Y-69881462D01*
X101577276Y-69875998D01*
X101578104Y-69870289D01*
X101578105Y-69870284D01*
X101608239Y-69662447D01*
X101608772Y-69658773D01*
X101610416Y-69596000D01*
X101590332Y-69377424D01*
X101530751Y-69166168D01*
X101516369Y-69137003D01*
X101436225Y-68974488D01*
X101433670Y-68969307D01*
X101370208Y-68884320D01*
X101367344Y-68880485D01*
X119510854Y-68880485D01*
X119518252Y-68974488D01*
X119534591Y-69182085D01*
X119536370Y-69204695D01*
X119601206Y-69523378D01*
X119704398Y-69831784D01*
X119844405Y-70125316D01*
X119846467Y-70128553D01*
X119846470Y-70128558D01*
X119892253Y-70200423D01*
X120019141Y-70399597D01*
X120021584Y-70402560D01*
X120021585Y-70402562D01*
X120222967Y-70646857D01*
X120226001Y-70650538D01*
X120461902Y-70874399D01*
X120723326Y-71067843D01*
X120864851Y-71147914D01*
X121003019Y-71226086D01*
X121003023Y-71226088D01*
X121006376Y-71227985D01*
X121306832Y-71352438D01*
X121410288Y-71381129D01*
X121616500Y-71438317D01*
X121616508Y-71438319D01*
X121620216Y-71439347D01*
X121941856Y-71487416D01*
X121945154Y-71487560D01*
X122056918Y-71492440D01*
X122056922Y-71492440D01*
X122058294Y-71492500D01*
X122256598Y-71492500D01*
X122498605Y-71477698D01*
X122502388Y-71476997D01*
X122502395Y-71476996D01*
X122702459Y-71439916D01*
X122818372Y-71418433D01*
X123027682Y-71352438D01*
X123124860Y-71321798D01*
X123124863Y-71321797D01*
X123128532Y-71320640D01*
X123132029Y-71319046D01*
X123132035Y-71319044D01*
X123420954Y-71187376D01*
X123420958Y-71187374D01*
X123424462Y-71185777D01*
X123701751Y-71015854D01*
X123704755Y-71013464D01*
X123704760Y-71013461D01*
X123829008Y-70914629D01*
X123956264Y-70813405D01*
X123958958Y-70810664D01*
X123958962Y-70810660D01*
X124181513Y-70584190D01*
X124181517Y-70584185D01*
X124184208Y-70581447D01*
X124335515Y-70384260D01*
X124379835Y-70326502D01*
X124379837Y-70326498D01*
X124382185Y-70323439D01*
X124542457Y-70051351D01*
X124545289Y-70046543D01*
X124545291Y-70046540D01*
X124547242Y-70043227D01*
X124676920Y-69744988D01*
X124703557Y-69655065D01*
X124768191Y-69436861D01*
X124769285Y-69433169D01*
X124822961Y-69112417D01*
X124837146Y-68787515D01*
X124824174Y-68622696D01*
X124811932Y-68467140D01*
X124811932Y-68467137D01*
X124811630Y-68463305D01*
X124746794Y-68144622D01*
X124643602Y-67836216D01*
X124503595Y-67542684D01*
X124328859Y-67268403D01*
X124216741Y-67132393D01*
X124124442Y-67020425D01*
X124124438Y-67020420D01*
X124121999Y-67017462D01*
X123886098Y-66793601D01*
X123624674Y-66600157D01*
X123419781Y-66484234D01*
X123344981Y-66441914D01*
X123344977Y-66441912D01*
X123341624Y-66440015D01*
X123041168Y-66315562D01*
X122937712Y-66286871D01*
X122731500Y-66229683D01*
X122731492Y-66229681D01*
X122727784Y-66228653D01*
X122406144Y-66180584D01*
X122402846Y-66180440D01*
X122291082Y-66175560D01*
X122291078Y-66175560D01*
X122289706Y-66175500D01*
X122091402Y-66175500D01*
X121849395Y-66190302D01*
X121845612Y-66191003D01*
X121845605Y-66191004D01*
X121689512Y-66219934D01*
X121529628Y-66249567D01*
X121345058Y-66307762D01*
X121223140Y-66346202D01*
X121223137Y-66346203D01*
X121219468Y-66347360D01*
X121215971Y-66348954D01*
X121215965Y-66348956D01*
X120927046Y-66480624D01*
X120927042Y-66480626D01*
X120923538Y-66482223D01*
X120920259Y-66484233D01*
X120920256Y-66484234D01*
X120856275Y-66523442D01*
X120646249Y-66652146D01*
X120643245Y-66654536D01*
X120643240Y-66654539D01*
X120518992Y-66753371D01*
X120391736Y-66854595D01*
X120389042Y-66857336D01*
X120389038Y-66857340D01*
X120166487Y-67083810D01*
X120166483Y-67083815D01*
X120163792Y-67086553D01*
X119965815Y-67344561D01*
X119800758Y-67624773D01*
X119671080Y-67923012D01*
X119578715Y-68234831D01*
X119525039Y-68555583D01*
X119510854Y-68880485D01*
X101367344Y-68880485D01*
X101305793Y-68798058D01*
X101305792Y-68798057D01*
X101302340Y-68793434D01*
X101205295Y-68703727D01*
X101145398Y-68648358D01*
X101145395Y-68648356D01*
X101141158Y-68644439D01*
X100955523Y-68527313D01*
X100914703Y-68511027D01*
X100804700Y-68467140D01*
X100751653Y-68445976D01*
X100745985Y-68444849D01*
X100745983Y-68444848D01*
X100542041Y-68404282D01*
X100542037Y-68404282D01*
X100536373Y-68403155D01*
X100530598Y-68403079D01*
X100530594Y-68403079D01*
X100419963Y-68401631D01*
X100316895Y-68400281D01*
X100311198Y-68401260D01*
X100311197Y-68401260D01*
X100218613Y-68417169D01*
X100100568Y-68437453D01*
X99894638Y-68513425D01*
X99889677Y-68516377D01*
X99889676Y-68516377D01*
X99710969Y-68622696D01*
X99710966Y-68622698D01*
X99706001Y-68625652D01*
X99540974Y-68770377D01*
X99405085Y-68942751D01*
X99402394Y-68947867D01*
X99402392Y-68947869D01*
X99391113Y-68969307D01*
X99302884Y-69137003D01*
X99300483Y-69135740D01*
X99263065Y-69182085D01*
X99195680Y-69204443D01*
X99126906Y-69186821D01*
X99078575Y-69134814D01*
X99065300Y-69078519D01*
X99065300Y-68862066D01*
X99058545Y-68799884D01*
X99007415Y-68663495D01*
X98920061Y-68546939D01*
X98803505Y-68459585D01*
X98667116Y-68408455D01*
X98604934Y-68401700D01*
X97137066Y-68401700D01*
X97074884Y-68408455D01*
X96938495Y-68459585D01*
X96821939Y-68546939D01*
X96734585Y-68663495D01*
X96683455Y-68799884D01*
X96676700Y-68862066D01*
X96676700Y-70329934D01*
X82281310Y-70329934D01*
X82357860Y-70305798D01*
X82357863Y-70305797D01*
X82361532Y-70304640D01*
X82365029Y-70303046D01*
X82365035Y-70303044D01*
X82653954Y-70171376D01*
X82653958Y-70171374D01*
X82657462Y-70169777D01*
X82660744Y-70167766D01*
X82931473Y-70001863D01*
X82931476Y-70001861D01*
X82934751Y-69999854D01*
X82937755Y-69997464D01*
X82937760Y-69997461D01*
X83090459Y-69875998D01*
X83189264Y-69797405D01*
X83191958Y-69794664D01*
X83191962Y-69794660D01*
X83414513Y-69568190D01*
X83414517Y-69568185D01*
X83417208Y-69565447D01*
X83559236Y-69380353D01*
X83612835Y-69310502D01*
X83612837Y-69310498D01*
X83615185Y-69307439D01*
X83780242Y-69027227D01*
X83909920Y-68728988D01*
X83926830Y-68671903D01*
X83961285Y-68555583D01*
X84002285Y-68417169D01*
X84055961Y-68096417D01*
X84070146Y-67771515D01*
X84057388Y-67609410D01*
X84044932Y-67451140D01*
X84044932Y-67451137D01*
X84044630Y-67447305D01*
X83979794Y-67128622D01*
X83876602Y-66820216D01*
X83736595Y-66526684D01*
X83709552Y-66484234D01*
X83610377Y-66328561D01*
X83561859Y-66252403D01*
X83559415Y-66249438D01*
X83357442Y-66004425D01*
X83357438Y-66004420D01*
X83354999Y-66001462D01*
X83119098Y-65777601D01*
X82857674Y-65584157D01*
X82652781Y-65468234D01*
X82577981Y-65425914D01*
X82577977Y-65425912D01*
X82574624Y-65424015D01*
X82274168Y-65299562D01*
X82170712Y-65270871D01*
X81964500Y-65213683D01*
X81964492Y-65213681D01*
X81960784Y-65212653D01*
X81639144Y-65164584D01*
X81635846Y-65164440D01*
X81524082Y-65159560D01*
X81524078Y-65159560D01*
X81522706Y-65159500D01*
X81324402Y-65159500D01*
X81082395Y-65174302D01*
X81078612Y-65175003D01*
X81078605Y-65175004D01*
X80922512Y-65203934D01*
X80762628Y-65233567D01*
X80578058Y-65291762D01*
X80456140Y-65330202D01*
X80456137Y-65330203D01*
X80452468Y-65331360D01*
X80448971Y-65332954D01*
X80448965Y-65332956D01*
X80160046Y-65464624D01*
X80160042Y-65464626D01*
X80156538Y-65466223D01*
X79879249Y-65636146D01*
X79876245Y-65638536D01*
X79876240Y-65638539D01*
X79751993Y-65737370D01*
X79624736Y-65838595D01*
X79622042Y-65841336D01*
X79622038Y-65841340D01*
X79399487Y-66067810D01*
X79399483Y-66067815D01*
X79396792Y-66070553D01*
X79275914Y-66228084D01*
X79208790Y-66315562D01*
X79198815Y-66328561D01*
X79107117Y-66484234D01*
X79037483Y-66602450D01*
X79033758Y-66608773D01*
X78904080Y-66907012D01*
X78902986Y-66910706D01*
X78902984Y-66910711D01*
X78862727Y-67046617D01*
X78811715Y-67218831D01*
X78758039Y-67539583D01*
X78743854Y-67864485D01*
X76962500Y-67864485D01*
X76962500Y-64134500D01*
X76982502Y-64066379D01*
X77036158Y-64019886D01*
X77088500Y-64008500D01*
X126365500Y-64008500D01*
X126433621Y-64028502D01*
G37*
%TD.AperFunction*%
%TD*%
M02*
